<?xml version="1.0" encoding="UTF-8" standalone="no"?>
<!-- Created with Inkscape (http://www.inkscape.org/) -->

<svg
   width="753mm"
   height="353mm"
   viewBox="0 0 753 353"
   version="1.1"
   id="svg1"
   inkscape:version="1.3 (0e150ed6c4, 2023-07-21)"
   sodipodi:docname="lid.svg"
   xmlns:inkscape="http://www.inkscape.org/namespaces/inkscape"
   xmlns:sodipodi="http://sodipodi.sourceforge.net/DTD/sodipodi-0.dtd"
   xmlns="http://www.w3.org/2000/svg"
   xmlns:svg="http://www.w3.org/2000/svg">
  <sodipodi:namedview
     id="namedview1"
     pagecolor="#ffffff"
     bordercolor="#666666"
     borderopacity="1.0"
     inkscape:showpageshadow="2"
     inkscape:pageopacity="0.0"
     inkscape:pagecheckerboard="0"
     inkscape:deskcolor="#d1d1d1"
     inkscape:document-units="mm"
     inkscape:zoom="0.50168649"
     inkscape:cx="1417.2197"
     inkscape:cy="660.77123"
     inkscape:window-width="2560"
     inkscape:window-height="1389"
     inkscape:window-x="0"
     inkscape:window-y="27"
     inkscape:window-maximized="1"
     inkscape:current-layer="layer1"
     showgrid="false" />
  <defs
     id="defs1" />
  <g
     inkscape:label="Layer 1"
     inkscape:groupmode="layer"
     id="layer1"
     transform="translate(4.9209299,4.9209299)">
    <rect
       style="fill:none;stroke:#000000;stroke-width:0.965551;stroke-dasharray:none;stroke-opacity:1"
       id="rect11"
       width="300"
       height="190"
       x="415.07907"
       y="75.078987"
       rx="10"
       ry="10" />
    <circle
       style="fill:none;stroke:#000000;stroke-width:1;stroke-dasharray:none;stroke-opacity:1"
       id="path11"
       cx="5.0790701"
       cy="45.079071"
       r="1.75" />
    <circle
       style="fill:none;stroke:#000000;stroke-width:1;stroke-dasharray:none;stroke-opacity:1"
       id="circle13"
       cx="5.0790701"
       cy="295.07907"
       r="1.75" />
    <circle
       style="fill:none;stroke:#000000;stroke-width:1;stroke-dasharray:none;stroke-opacity:1"
       id="circle14"
       cx="5.0790701"
       cy="170.07898"
       r="1.75" />
    <circle
       style="fill:none;stroke:#000000;stroke-width:1;stroke-dasharray:none;stroke-opacity:1"
       id="circle18"
       cx="735.07904"
       cy="45.079071"
       r="1.75" />
    <circle
       style="fill:none;stroke:#000000;stroke-width:1;stroke-dasharray:none;stroke-opacity:1"
       id="circle19"
       cx="735.07904"
       cy="295.07907"
       r="1.75" />
    <circle
       style="fill:none;stroke:#000000;stroke-width:1;stroke-dasharray:none;stroke-opacity:1"
       id="circle20"
       cx="735.07904"
       cy="170.07898"
       r="1.75" />
    <circle
       style="fill:none;stroke:#000000;stroke-width:1;stroke-dasharray:none;stroke-opacity:1"
       id="circle12"
       cx="207.57913"
       cy="5.0790701"
       r="1.75" />
    <circle
       style="fill:none;stroke:#000000;stroke-width:1;stroke-dasharray:none;stroke-opacity:1"
       id="circle11"
       cx="45.079071"
       cy="5.0790701"
       r="1.75" />
    <circle
       style="fill:none;stroke:#000000;stroke-width:1;stroke-dasharray:none;stroke-opacity:1"
       id="circle21"
       cx="695.07904"
       cy="5.0790701"
       r="1.75" />
    <circle
       style="fill:none;stroke:#000000;stroke-width:1;stroke-dasharray:none;stroke-opacity:1"
       id="circle22"
       cx="370.07919"
       cy="5.0790701"
       r="1.75" />
    <circle
       style="fill:none;stroke:#000000;stroke-width:1;stroke-dasharray:none;stroke-opacity:1"
       id="circle23"
       cx="532.5791"
       cy="5.0790701"
       r="1.75" />
    <circle
       style="fill:none;stroke:#000000;stroke-width:1;stroke-dasharray:none;stroke-opacity:1"
       id="circle24"
       cx="207.57913"
       cy="335.07907"
       r="1.75" />
    <circle
       style="fill:none;stroke:#000000;stroke-width:1;stroke-dasharray:none;stroke-opacity:1"
       id="circle25"
       cx="45.079071"
       cy="335.07907"
       r="1.75" />
    <circle
       style="fill:none;stroke:#000000;stroke-width:1;stroke-dasharray:none;stroke-opacity:1"
       id="circle26"
       cx="695.07904"
       cy="335.07907"
       r="1.75" />
    <circle
       style="fill:none;stroke:#000000;stroke-width:1;stroke-dasharray:none;stroke-opacity:1"
       id="circle27"
       cx="370.07919"
       cy="335.07907"
       r="1.75" />
    <circle
       style="fill:none;stroke:#000000;stroke-width:1;stroke-dasharray:none;stroke-opacity:1"
       id="circle28"
       cx="532.5791"
       cy="335.07907"
       r="1.75" />
    <path
       d="m 350.78563,309.99666 c -2.64172,0 -4.77214,2.05137 -4.77214,4.59508 0,2.5437 2.13042,4.59507 4.77214,4.59507 2.64172,0 4.77213,-2.05137 4.77213,-4.59507 0.0852,-2.54371 -2.13041,-4.59508 -4.77213,-4.59508 z"
       id="path32872"
       style="fill:none;stroke:#000000;stroke-width:0.836;stroke-dasharray:none;stroke-opacity:1" />
    <path
       d="m 341.24135,302.77582 c -2.64172,0 -4.77214,2.05138 -4.77214,4.59508 0,2.5437 2.13042,4.59508 4.77214,4.59508 2.64172,0 4.77214,-2.05138 4.77214,-4.59508 0,-2.5437 -2.13042,-4.59508 -4.77214,-4.59508 z"
       id="path32870"
       style="fill:none;stroke:#000000;stroke-width:0.836;stroke-dasharray:none;stroke-opacity:1" />
    <path
       d="m 350.78563,295.7191 c -2.64172,0 -4.77214,2.05137 -4.77214,4.59508 0,2.5437 2.13042,4.59507 4.77214,4.59507 2.64172,0 4.77213,-2.05137 4.77213,-4.59507 0.0852,-2.54371 -2.13041,-4.59508 -4.77213,-4.59508 z"
       id="path32868"
       style="fill:none;stroke:#000000;stroke-width:0.836;stroke-dasharray:none;stroke-opacity:1" />
    <path
       d="m 341.24135,288.49826 c -2.64172,0 -4.77214,2.05138 -4.77214,4.59508 0,2.5437 2.13042,4.59508 4.77214,4.59508 2.64172,0 4.77214,-2.05138 4.77214,-4.59508 0,-2.5437 -2.13042,-4.59508 -4.77214,-4.59508 z"
       id="path32866"
       style="fill:none;stroke:#000000;stroke-width:0.836;stroke-dasharray:none;stroke-opacity:1" />
    <path
       d="m 350.78563,281.52359 c -2.64172,0 -4.77214,2.05138 -4.77214,4.59508 0,2.5437 2.13042,4.59508 4.77214,4.59508 2.64172,0 4.77213,-2.05138 4.77213,-4.59508 0.0852,-2.5437 -2.13041,-4.59508 -4.77213,-4.59508 z"
       id="path32864"
       style="fill:none;stroke:#000000;stroke-width:0.836;stroke-dasharray:none;stroke-opacity:1" />
    <path
       d="m 341.24135,274.30276 c -2.64172,0 -4.77214,2.05137 -4.77214,4.59508 0,2.5437 2.13042,4.59507 4.77214,4.59507 2.64172,0 4.77214,-2.05137 4.77214,-4.59507 0,-2.54371 -2.13042,-4.59508 -4.77214,-4.59508 z"
       id="path32862"
       style="fill:none;stroke:#000000;stroke-width:0.836;stroke-dasharray:none;stroke-opacity:1" />
    <path
       d="m 350.78563,267.24603 c -2.64172,0 -4.77214,2.05138 -4.77214,4.59508 0,2.5437 2.13042,4.59508 4.77214,4.59508 2.64172,0 4.77213,-2.05138 4.77213,-4.59508 0.0852,-2.5437 -2.13041,-4.59508 -4.77213,-4.59508 z"
       id="path32860"
       style="fill:none;stroke:#000000;stroke-width:0.836;stroke-dasharray:none;stroke-opacity:1" />
    <path
       d="m 341.24135,260.0252 c -2.64172,0 -4.77214,2.05137 -4.77214,4.59508 0,2.5437 2.13042,4.59507 4.77214,4.59507 2.64172,0 4.77214,-2.05137 4.77214,-4.59507 0,-2.46165 -2.13042,-4.59508 -4.77214,-4.59508 z"
       id="path32858"
       style="fill:none;stroke:#000000;stroke-width:0.836;stroke-dasharray:none;stroke-opacity:1" />
    <path
       d="m 350.78563,253.05053 c -2.64172,0 -4.77214,2.05137 -4.77214,4.59508 0,2.5437 2.13042,4.59507 4.77214,4.59507 2.64172,0 4.77213,-2.05137 4.77213,-4.59507 0.0852,-2.54371 -2.13041,-4.59508 -4.77213,-4.59508 z"
       id="path32856"
       style="fill:none;stroke:#000000;stroke-width:0.836;stroke-dasharray:none;stroke-opacity:1" />
    <path
       d="m 341.24135,245.8297 c -2.64172,0 -4.77214,2.05137 -4.77214,4.59507 0,2.5437 2.13042,4.59508 4.77214,4.59508 2.64172,0 4.77214,-2.05138 4.77214,-4.59508 0,-2.5437 -2.13042,-4.59507 -4.77214,-4.59507 z"
       id="path32854"
       style="fill:none;stroke:#000000;stroke-width:0.836;stroke-dasharray:none;stroke-opacity:1" />
    <path
       d="m 350.78563,238.77297 c -2.64172,0 -4.77214,2.05137 -4.77214,4.59508 0,2.5437 2.13042,4.59507 4.77214,4.59507 2.64172,0 4.77213,-2.05137 4.77213,-4.59507 0.0852,-2.54371 -2.13041,-4.59508 -4.77213,-4.59508 z"
       id="path32852"
       style="fill:none;stroke:#000000;stroke-width:0.836;stroke-dasharray:none;stroke-opacity:1" />
    <path
       d="m 341.24135,231.55214 c -2.64172,0 -4.77214,2.05137 -4.77214,4.59507 0,2.54371 2.13042,4.59508 4.77214,4.59508 2.64172,0 4.77214,-2.05137 4.77214,-4.59508 0,-2.5437 -2.13042,-4.59507 -4.77214,-4.59507 z"
       id="path32850"
       style="fill:none;stroke:#000000;stroke-width:0.836;stroke-dasharray:none;stroke-opacity:1" />
    <path
       d="m 350.78563,224.49541 c -2.64172,0 -4.77214,2.05137 -4.77214,4.59508 0,2.5437 2.13042,4.59507 4.77214,4.59507 2.64172,0 4.77213,-2.05137 4.77213,-4.59507 0.0852,-2.46165 -2.13041,-4.59508 -4.77213,-4.59508 z"
       id="path32848"
       style="fill:none;stroke:#000000;stroke-width:0.836;stroke-dasharray:none;stroke-opacity:1" />
    <path
       d="m 341.24135,217.35663 c -2.64172,0 -4.77214,2.05137 -4.77214,4.59508 0,2.5437 2.13042,4.59507 4.77214,4.59507 2.64172,0 4.77214,-2.05137 4.77214,-4.59507 0,-2.54371 -2.13042,-4.59508 -4.77214,-4.59508 z"
       id="path32846"
       style="fill:none;stroke:#000000;stroke-width:0.836;stroke-dasharray:none;stroke-opacity:1" />
    <path
       d="m 350.78563,210.29991 c -2.64172,0 -4.77214,2.05137 -4.77214,4.59507 0,2.54371 2.13042,4.59508 4.77214,4.59508 2.64172,0 4.77213,-2.05137 4.77213,-4.59508 0.0852,-2.5437 -2.13041,-4.59507 -4.77213,-4.59507 z"
       id="path32844"
       style="fill:none;stroke:#000000;stroke-width:0.836;stroke-dasharray:none;stroke-opacity:1" />
    <path
       d="m 341.24135,203.07907 c -2.64172,0 -4.77214,2.05137 -4.77214,4.59508 0,2.5437 2.13042,4.59507 4.77214,4.59507 2.64172,0 4.77214,-2.05137 4.77214,-4.59507 0,-2.54371 -2.13042,-4.59508 -4.77214,-4.59508 z"
       id="path32842"
       style="fill:none;stroke:#000000;stroke-width:0.836;stroke-dasharray:none;stroke-opacity:1" />
    <path
       d="m 331.61186,309.99666 c -2.64172,0 -4.77214,2.05137 -4.77214,4.59508 0,2.5437 2.13042,4.59507 4.77214,4.59507 2.64172,0 4.77214,-2.05137 4.77214,-4.59507 0.0852,-2.54371 -2.13042,-4.59508 -4.77214,-4.59508 z"
       id="path32808"
       style="fill:none;stroke:#000000;stroke-width:0.836;stroke-dasharray:none;stroke-opacity:1" />
    <path
       d="m 322.06758,302.77582 c -2.64172,0 -4.77214,2.05138 -4.77214,4.59508 0,2.5437 2.13042,4.59508 4.77214,4.59508 2.64172,0 4.77214,-2.05138 4.77214,-4.59508 0,-2.5437 -2.13042,-4.59508 -4.77214,-4.59508 z"
       id="path32806"
       style="fill:none;stroke:#000000;stroke-width:0.836;stroke-dasharray:none;stroke-opacity:1" />
    <path
       d="m 331.61186,295.7191 c -2.64172,0 -4.77214,2.05137 -4.77214,4.59508 0,2.5437 2.13042,4.59507 4.77214,4.59507 2.64172,0 4.77214,-2.05137 4.77214,-4.59507 0.0852,-2.54371 -2.13042,-4.59508 -4.77214,-4.59508 z"
       id="path32804"
       style="fill:none;stroke:#000000;stroke-width:0.836;stroke-dasharray:none;stroke-opacity:1" />
    <path
       d="m 322.06758,288.49826 c -2.64172,0 -4.77214,2.05138 -4.77214,4.59508 0,2.5437 2.13042,4.59508 4.77214,4.59508 2.64172,0 4.77214,-2.05138 4.77214,-4.59508 0,-2.5437 -2.13042,-4.59508 -4.77214,-4.59508 z"
       id="path32802"
       style="fill:none;stroke:#000000;stroke-width:0.836;stroke-dasharray:none;stroke-opacity:1" />
    <path
       d="m 331.61186,281.52359 c -2.64172,0 -4.77214,2.05138 -4.77214,4.59508 0,2.5437 2.13042,4.59508 4.77214,4.59508 2.64172,0 4.77214,-2.05138 4.77214,-4.59508 0.0852,-2.5437 -2.13042,-4.59508 -4.77214,-4.59508 z"
       id="path32800"
       style="fill:none;stroke:#000000;stroke-width:0.836;stroke-dasharray:none;stroke-opacity:1" />
    <path
       d="m 322.06758,274.30276 c -2.64172,0 -4.77214,2.05137 -4.77214,4.59508 0,2.5437 2.13042,4.59507 4.77214,4.59507 2.64172,0 4.77214,-2.05137 4.77214,-4.59507 0,-2.54371 -2.13042,-4.59508 -4.77214,-4.59508 z"
       id="path32798"
       style="fill:none;stroke:#000000;stroke-width:0.836;stroke-dasharray:none;stroke-opacity:1" />
    <path
       d="m 331.61186,267.24603 c -2.64172,0 -4.77214,2.05138 -4.77214,4.59508 0,2.5437 2.13042,4.59508 4.77214,4.59508 2.64172,0 4.77214,-2.05138 4.77214,-4.59508 0.0852,-2.5437 -2.13042,-4.59508 -4.77214,-4.59508 z"
       id="path32796"
       style="fill:none;stroke:#000000;stroke-width:0.836;stroke-dasharray:none;stroke-opacity:1" />
    <path
       d="m 322.06758,260.0252 c -2.64172,0 -4.77214,2.05137 -4.77214,4.59508 0,2.5437 2.13042,4.59507 4.77214,4.59507 2.64172,0 4.77214,-2.05137 4.77214,-4.59507 0,-2.46165 -2.13042,-4.59508 -4.77214,-4.59508 z"
       id="path32794"
       style="fill:none;stroke:#000000;stroke-width:0.836;stroke-dasharray:none;stroke-opacity:1" />
    <path
       d="m 331.61186,253.05053 c -2.64172,0 -4.77214,2.05137 -4.77214,4.59508 0,2.5437 2.13042,4.59507 4.77214,4.59507 2.64172,0 4.77214,-2.05137 4.77214,-4.59507 0.0852,-2.54371 -2.13042,-4.59508 -4.77214,-4.59508 z"
       id="path32792"
       style="fill:none;stroke:#000000;stroke-width:0.836;stroke-dasharray:none;stroke-opacity:1" />
    <path
       d="m 322.06758,245.8297 c -2.64172,0 -4.77214,2.05137 -4.77214,4.59507 0,2.5437 2.13042,4.59508 4.77214,4.59508 2.64172,0 4.77214,-2.05138 4.77214,-4.59508 0,-2.5437 -2.13042,-4.59507 -4.77214,-4.59507 z"
       id="path32790"
       style="fill:none;stroke:#000000;stroke-width:0.836;stroke-dasharray:none;stroke-opacity:1" />
    <path
       d="m 331.61186,238.77297 c -2.64172,0 -4.77214,2.05137 -4.77214,4.59508 0,2.5437 2.13042,4.59507 4.77214,4.59507 2.64172,0 4.77214,-2.05137 4.77214,-4.59507 0.0852,-2.54371 -2.13042,-4.59508 -4.77214,-4.59508 z"
       id="path32788"
       style="fill:none;stroke:#000000;stroke-width:0.836;stroke-dasharray:none;stroke-opacity:1" />
    <path
       d="m 322.06758,231.55214 c -2.64172,0 -4.77214,2.05137 -4.77214,4.59507 0,2.54371 2.13042,4.59508 4.77214,4.59508 2.64172,0 4.77214,-2.05137 4.77214,-4.59508 0,-2.5437 -2.13042,-4.59507 -4.77214,-4.59507 z"
       id="path32786"
       style="fill:none;stroke:#000000;stroke-width:0.836;stroke-dasharray:none;stroke-opacity:1" />
    <path
       d="m 331.61186,224.49541 c -2.64172,0 -4.77214,2.05137 -4.77214,4.59508 0,2.5437 2.13042,4.59507 4.77214,4.59507 2.64172,0 4.77214,-2.05137 4.77214,-4.59507 0.0852,-2.46165 -2.13042,-4.59508 -4.77214,-4.59508 z"
       id="path32784"
       style="fill:none;stroke:#000000;stroke-width:0.836;stroke-dasharray:none;stroke-opacity:1" />
    <path
       d="m 322.06758,217.35663 c -2.64172,0 -4.77214,2.05137 -4.77214,4.59508 0,2.5437 2.13042,4.59507 4.77214,4.59507 2.64172,0 4.77214,-2.05137 4.77214,-4.59507 0,-2.54371 -2.13042,-4.59508 -4.77214,-4.59508 z"
       id="path32782"
       style="fill:none;stroke:#000000;stroke-width:0.836;stroke-dasharray:none;stroke-opacity:1" />
    <path
       d="m 331.61186,210.29991 c -2.64172,0 -4.77214,2.05137 -4.77214,4.59507 0,2.54371 2.13042,4.59508 4.77214,4.59508 2.64172,0 4.77214,-2.05137 4.77214,-4.59508 0.0852,-2.5437 -2.13042,-4.59507 -4.77214,-4.59507 z"
       id="path32780"
       style="fill:none;stroke:#000000;stroke-width:0.836;stroke-dasharray:none;stroke-opacity:1" />
    <path
       d="m 322.06758,203.07907 c -2.64172,0 -4.77214,2.05137 -4.77214,4.59508 0,2.5437 2.13042,4.59507 4.77214,4.59507 2.64172,0 4.77214,-2.05137 4.77214,-4.59507 0,-2.54371 -2.13042,-4.59508 -4.77214,-4.59508 z"
       id="path32778"
       style="fill:none;stroke:#000000;stroke-width:0.836;stroke-dasharray:none;stroke-opacity:1" />
    <path
       d="m 312.43809,309.99666 c -2.64172,0 -4.77214,2.05137 -4.77214,4.59508 0,2.5437 2.13042,4.59507 4.77214,4.59507 2.64172,0 4.77214,-2.05137 4.77214,-4.59507 0.0852,-2.54371 -2.13042,-4.59508 -4.77214,-4.59508 z"
       id="path32744"
       style="fill:none;stroke:#000000;stroke-width:0.836;stroke-dasharray:none;stroke-opacity:1" />
    <path
       d="m 302.89381,302.77582 c -2.64171,0 -4.77213,2.05138 -4.77213,4.59508 0,2.5437 2.13042,4.59508 4.77213,4.59508 2.64172,0 4.77214,-2.05138 4.77214,-4.59508 0,-2.5437 -2.13042,-4.59508 -4.77214,-4.59508 z"
       id="path32742"
       style="fill:none;stroke:#000000;stroke-width:0.836;stroke-dasharray:none;stroke-opacity:1" />
    <path
       d="m 312.43809,295.7191 c -2.64172,0 -4.77214,2.05137 -4.77214,4.59508 0,2.5437 2.13042,4.59507 4.77214,4.59507 2.64172,0 4.77214,-2.05137 4.77214,-4.59507 0.0852,-2.54371 -2.13042,-4.59508 -4.77214,-4.59508 z"
       id="path32740"
       style="fill:none;stroke:#000000;stroke-width:0.836;stroke-dasharray:none;stroke-opacity:1" />
    <path
       d="m 302.89381,288.49826 c -2.64171,0 -4.77213,2.05138 -4.77213,4.59508 0,2.5437 2.13042,4.59508 4.77213,4.59508 2.64172,0 4.77214,-2.05138 4.77214,-4.59508 0,-2.5437 -2.13042,-4.59508 -4.77214,-4.59508 z"
       id="path32738"
       style="fill:none;stroke:#000000;stroke-width:0.836;stroke-dasharray:none;stroke-opacity:1" />
    <path
       d="m 312.43809,281.52359 c -2.64172,0 -4.77214,2.05138 -4.77214,4.59508 0,2.5437 2.13042,4.59508 4.77214,4.59508 2.64172,0 4.77214,-2.05138 4.77214,-4.59508 0.0852,-2.5437 -2.13042,-4.59508 -4.77214,-4.59508 z"
       id="path32736"
       style="fill:none;stroke:#000000;stroke-width:0.836;stroke-dasharray:none;stroke-opacity:1" />
    <path
       d="m 302.89381,274.30276 c -2.64171,0 -4.77213,2.05137 -4.77213,4.59508 0,2.5437 2.13042,4.59507 4.77213,4.59507 2.64172,0 4.77214,-2.05137 4.77214,-4.59507 0,-2.54371 -2.13042,-4.59508 -4.77214,-4.59508 z"
       id="path32734"
       style="fill:none;stroke:#000000;stroke-width:0.836;stroke-dasharray:none;stroke-opacity:1" />
    <path
       d="m 312.43809,267.24603 c -2.64172,0 -4.77214,2.05138 -4.77214,4.59508 0,2.5437 2.13042,4.59508 4.77214,4.59508 2.64172,0 4.77214,-2.05138 4.77214,-4.59508 0.0852,-2.5437 -2.13042,-4.59508 -4.77214,-4.59508 z"
       id="path32732"
       style="fill:none;stroke:#000000;stroke-width:0.836;stroke-dasharray:none;stroke-opacity:1" />
    <path
       d="m 302.89381,260.0252 c -2.64171,0 -4.77213,2.05137 -4.77213,4.59508 0,2.5437 2.13042,4.59507 4.77213,4.59507 2.64172,0 4.77214,-2.05137 4.77214,-4.59507 0,-2.46165 -2.13042,-4.59508 -4.77214,-4.59508 z"
       id="path32730"
       style="fill:none;stroke:#000000;stroke-width:0.836;stroke-dasharray:none;stroke-opacity:1" />
    <path
       d="m 312.43809,253.05053 c -2.64172,0 -4.77214,2.05137 -4.77214,4.59508 0,2.5437 2.13042,4.59507 4.77214,4.59507 2.64172,0 4.77214,-2.05137 4.77214,-4.59507 0.0852,-2.54371 -2.13042,-4.59508 -4.77214,-4.59508 z"
       id="path32728"
       style="fill:none;stroke:#000000;stroke-width:0.836;stroke-dasharray:none;stroke-opacity:1" />
    <path
       d="m 302.89381,245.8297 c -2.64171,0 -4.77213,2.05137 -4.77213,4.59507 0,2.5437 2.13042,4.59508 4.77213,4.59508 2.64172,0 4.77214,-2.05138 4.77214,-4.59508 0,-2.5437 -2.13042,-4.59507 -4.77214,-4.59507 z"
       id="path32726"
       style="fill:none;stroke:#000000;stroke-width:0.836;stroke-dasharray:none;stroke-opacity:1" />
    <path
       d="m 312.43809,238.77297 c -2.64172,0 -4.77214,2.05137 -4.77214,4.59508 0,2.5437 2.13042,4.59507 4.77214,4.59507 2.64172,0 4.77214,-2.05137 4.77214,-4.59507 0.0852,-2.54371 -2.13042,-4.59508 -4.77214,-4.59508 z"
       id="path32724"
       style="fill:none;stroke:#000000;stroke-width:0.836;stroke-dasharray:none;stroke-opacity:1" />
    <path
       d="m 302.89381,231.55214 c -2.64171,0 -4.77213,2.05137 -4.77213,4.59507 0,2.54371 2.13042,4.59508 4.77213,4.59508 2.64172,0 4.77214,-2.05137 4.77214,-4.59508 0,-2.5437 -2.13042,-4.59507 -4.77214,-4.59507 z"
       id="path32722"
       style="fill:none;stroke:#000000;stroke-width:0.836;stroke-dasharray:none;stroke-opacity:1" />
    <path
       d="m 312.43809,224.49541 c -2.64172,0 -4.77214,2.05137 -4.77214,4.59508 0,2.5437 2.13042,4.59507 4.77214,4.59507 2.64172,0 4.77214,-2.05137 4.77214,-4.59507 0.0852,-2.46165 -2.13042,-4.59508 -4.77214,-4.59508 z"
       id="path32720"
       style="fill:none;stroke:#000000;stroke-width:0.836;stroke-dasharray:none;stroke-opacity:1" />
    <path
       d="m 302.89381,217.35663 c -2.64171,0 -4.77213,2.05137 -4.77213,4.59508 0,2.5437 2.13042,4.59507 4.77213,4.59507 2.64172,0 4.77214,-2.05137 4.77214,-4.59507 0,-2.54371 -2.13042,-4.59508 -4.77214,-4.59508 z"
       id="path32718"
       style="fill:none;stroke:#000000;stroke-width:0.836;stroke-dasharray:none;stroke-opacity:1" />
    <path
       d="m 312.43809,210.29991 c -2.64172,0 -4.77214,2.05137 -4.77214,4.59507 0,2.54371 2.13042,4.59508 4.77214,4.59508 2.64172,0 4.77214,-2.05137 4.77214,-4.59508 0.0852,-2.5437 -2.13042,-4.59507 -4.77214,-4.59507 z"
       id="path32716"
       style="fill:none;stroke:#000000;stroke-width:0.836;stroke-dasharray:none;stroke-opacity:1" />
    <path
       d="m 302.89381,203.07907 c -2.64171,0 -4.77213,2.05137 -4.77213,4.59508 0,2.5437 2.13042,4.59507 4.77213,4.59507 2.64172,0 4.77214,-2.05137 4.77214,-4.59507 0,-2.54371 -2.13042,-4.59508 -4.77214,-4.59508 z"
       id="path32714"
       style="fill:none;stroke:#000000;stroke-width:0.836;stroke-dasharray:none;stroke-opacity:1" />
    <path
       d="m 293.26432,309.99666 c -2.64172,0 -4.77214,2.05137 -4.77214,4.59508 0,2.5437 2.13042,4.59507 4.77214,4.59507 2.64172,0 4.77214,-2.05137 4.77214,-4.59507 0.0852,-2.54371 -2.13042,-4.59508 -4.77214,-4.59508 z"
       id="path32680"
       style="fill:none;stroke:#000000;stroke-width:0.836;stroke-dasharray:none;stroke-opacity:1" />
    <path
       d="m 283.72005,302.77582 c -2.64172,0 -4.77214,2.05138 -4.77214,4.59508 0,2.5437 2.13042,4.59508 4.77214,4.59508 2.64172,0 4.77213,-2.05138 4.77213,-4.59508 0,-2.5437 -2.13041,-4.59508 -4.77213,-4.59508 z"
       id="path32678"
       style="fill:none;stroke:#000000;stroke-width:0.836;stroke-dasharray:none;stroke-opacity:1" />
    <path
       d="m 293.26432,295.7191 c -2.64172,0 -4.77214,2.05137 -4.77214,4.59508 0,2.5437 2.13042,4.59507 4.77214,4.59507 2.64172,0 4.77214,-2.05137 4.77214,-4.59507 0.0852,-2.54371 -2.13042,-4.59508 -4.77214,-4.59508 z"
       id="path32676"
       style="fill:none;stroke:#000000;stroke-width:0.836;stroke-dasharray:none;stroke-opacity:1" />
    <path
       d="m 283.72005,288.49826 c -2.64172,0 -4.77214,2.05138 -4.77214,4.59508 0,2.5437 2.13042,4.59508 4.77214,4.59508 2.64172,0 4.77213,-2.05138 4.77213,-4.59508 0,-2.5437 -2.13041,-4.59508 -4.77213,-4.59508 z"
       id="path32674"
       style="fill:none;stroke:#000000;stroke-width:0.836;stroke-dasharray:none;stroke-opacity:1" />
    <path
       d="m 293.26432,281.52359 c -2.64172,0 -4.77214,2.05138 -4.77214,4.59508 0,2.5437 2.13042,4.59508 4.77214,4.59508 2.64172,0 4.77214,-2.05138 4.77214,-4.59508 0.0852,-2.5437 -2.13042,-4.59508 -4.77214,-4.59508 z"
       id="path32672"
       style="fill:none;stroke:#000000;stroke-width:0.836;stroke-dasharray:none;stroke-opacity:1" />
    <path
       d="m 283.72005,274.30276 c -2.64172,0 -4.77214,2.05137 -4.77214,4.59508 0,2.5437 2.13042,4.59507 4.77214,4.59507 2.64172,0 4.77213,-2.05137 4.77213,-4.59507 0,-2.54371 -2.13041,-4.59508 -4.77213,-4.59508 z"
       id="path32670"
       style="fill:none;stroke:#000000;stroke-width:0.836;stroke-dasharray:none;stroke-opacity:1" />
    <path
       d="m 293.26432,267.24603 c -2.64172,0 -4.77214,2.05138 -4.77214,4.59508 0,2.5437 2.13042,4.59508 4.77214,4.59508 2.64172,0 4.77214,-2.05138 4.77214,-4.59508 0.0852,-2.5437 -2.13042,-4.59508 -4.77214,-4.59508 z"
       id="path32668"
       style="fill:none;stroke:#000000;stroke-width:0.836;stroke-dasharray:none;stroke-opacity:1" />
    <path
       d="m 283.72005,260.0252 c -2.64172,0 -4.77214,2.05137 -4.77214,4.59508 0,2.5437 2.13042,4.59507 4.77214,4.59507 2.64172,0 4.77213,-2.05137 4.77213,-4.59507 0,-2.46165 -2.13041,-4.59508 -4.77213,-4.59508 z"
       id="path32666"
       style="fill:none;stroke:#000000;stroke-width:0.836;stroke-dasharray:none;stroke-opacity:1" />
    <path
       d="m 293.26432,253.05053 c -2.64172,0 -4.77214,2.05137 -4.77214,4.59508 0,2.5437 2.13042,4.59507 4.77214,4.59507 2.64172,0 4.77214,-2.05137 4.77214,-4.59507 0.0852,-2.54371 -2.13042,-4.59508 -4.77214,-4.59508 z"
       id="path32664"
       style="fill:none;stroke:#000000;stroke-width:0.836;stroke-dasharray:none;stroke-opacity:1" />
    <path
       d="m 283.72005,245.8297 c -2.64172,0 -4.77214,2.05137 -4.77214,4.59507 0,2.5437 2.13042,4.59508 4.77214,4.59508 2.64172,0 4.77213,-2.05138 4.77213,-4.59508 0,-2.5437 -2.13041,-4.59507 -4.77213,-4.59507 z"
       id="path32662"
       style="fill:none;stroke:#000000;stroke-width:0.836;stroke-dasharray:none;stroke-opacity:1" />
    <path
       d="m 293.26432,238.77297 c -2.64172,0 -4.77214,2.05137 -4.77214,4.59508 0,2.5437 2.13042,4.59507 4.77214,4.59507 2.64172,0 4.77214,-2.05137 4.77214,-4.59507 0.0852,-2.54371 -2.13042,-4.59508 -4.77214,-4.59508 z"
       id="path32660"
       style="fill:none;stroke:#000000;stroke-width:0.836;stroke-dasharray:none;stroke-opacity:1" />
    <path
       d="m 283.72005,231.55214 c -2.64172,0 -4.77214,2.05137 -4.77214,4.59507 0,2.54371 2.13042,4.59508 4.77214,4.59508 2.64172,0 4.77213,-2.05137 4.77213,-4.59508 0,-2.5437 -2.13041,-4.59507 -4.77213,-4.59507 z"
       id="path32658"
       style="fill:none;stroke:#000000;stroke-width:0.836;stroke-dasharray:none;stroke-opacity:1" />
    <path
       d="m 293.26432,224.49541 c -2.64172,0 -4.77214,2.05137 -4.77214,4.59508 0,2.5437 2.13042,4.59507 4.77214,4.59507 2.64172,0 4.77214,-2.05137 4.77214,-4.59507 0.0852,-2.46165 -2.13042,-4.59508 -4.77214,-4.59508 z"
       id="path32656"
       style="fill:none;stroke:#000000;stroke-width:0.836;stroke-dasharray:none;stroke-opacity:1" />
    <path
       d="m 283.72005,217.35663 c -2.64172,0 -4.77214,2.05137 -4.77214,4.59508 0,2.5437 2.13042,4.59507 4.77214,4.59507 2.64172,0 4.77213,-2.05137 4.77213,-4.59507 0,-2.54371 -2.13041,-4.59508 -4.77213,-4.59508 z"
       id="path32654"
       style="fill:none;stroke:#000000;stroke-width:0.836;stroke-dasharray:none;stroke-opacity:1" />
    <path
       d="m 293.26432,210.29991 c -2.64172,0 -4.77214,2.05137 -4.77214,4.59507 0,2.54371 2.13042,4.59508 4.77214,4.59508 2.64172,0 4.77214,-2.05137 4.77214,-4.59508 0.0852,-2.5437 -2.13042,-4.59507 -4.77214,-4.59507 z"
       id="path32652"
       style="fill:none;stroke:#000000;stroke-width:0.836;stroke-dasharray:none;stroke-opacity:1" />
    <path
       d="m 283.72005,203.07907 c -2.64172,0 -4.77214,2.05137 -4.77214,4.59508 0,2.5437 2.13042,4.59507 4.77214,4.59507 2.64172,0 4.77213,-2.05137 4.77213,-4.59507 0,-2.54371 -2.13041,-4.59508 -4.77213,-4.59508 z"
       id="path32650"
       style="fill:none;stroke:#000000;stroke-width:0.836;stroke-dasharray:none;stroke-opacity:1" />
    <path
       d="m 274.09055,309.99666 c -2.64171,0 -4.77213,2.05137 -4.77213,4.59508 0,2.5437 2.13042,4.59507 4.77213,4.59507 2.64172,0 4.77214,-2.05137 4.77214,-4.59507 0.0852,-2.54371 -2.0452,-4.59508 -4.77214,-4.59508 z"
       id="path32616"
       style="fill:none;stroke:#000000;stroke-width:0.836;stroke-dasharray:none;stroke-opacity:1" />
    <path
       d="m 264.54628,302.77582 c -2.64172,0 -4.77214,2.05138 -4.77214,4.59508 0,2.5437 2.13042,4.59508 4.77214,4.59508 2.64172,0 4.77214,-2.05138 4.77214,-4.59508 0,-2.5437 -2.13042,-4.59508 -4.77214,-4.59508 z"
       id="path32614"
       style="fill:none;stroke:#000000;stroke-width:0.836;stroke-dasharray:none;stroke-opacity:1" />
    <path
       d="m 274.09055,295.7191 c -2.64171,0 -4.77213,2.05137 -4.77213,4.59508 0,2.5437 2.13042,4.59507 4.77213,4.59507 2.64172,0 4.77214,-2.05137 4.77214,-4.59507 0.0852,-2.54371 -2.0452,-4.59508 -4.77214,-4.59508 z"
       id="path32612"
       style="fill:none;stroke:#000000;stroke-width:0.836;stroke-dasharray:none;stroke-opacity:1" />
    <path
       d="m 264.54628,288.49826 c -2.64172,0 -4.77214,2.05138 -4.77214,4.59508 0,2.5437 2.13042,4.59508 4.77214,4.59508 2.64172,0 4.77214,-2.05138 4.77214,-4.59508 0,-2.5437 -2.13042,-4.59508 -4.77214,-4.59508 z"
       id="path32610"
       style="fill:none;stroke:#000000;stroke-width:0.836;stroke-dasharray:none;stroke-opacity:1" />
    <path
       d="m 274.09055,281.52359 c -2.64171,0 -4.77213,2.05138 -4.77213,4.59508 0,2.5437 2.13042,4.59508 4.77213,4.59508 2.64172,0 4.77214,-2.05138 4.77214,-4.59508 0.0852,-2.5437 -2.0452,-4.59508 -4.77214,-4.59508 z"
       id="path32608"
       style="fill:none;stroke:#000000;stroke-width:0.836;stroke-dasharray:none;stroke-opacity:1" />
    <path
       d="m 264.54628,274.30276 c -2.64172,0 -4.77214,2.05137 -4.77214,4.59508 0,2.5437 2.13042,4.59507 4.77214,4.59507 2.64172,0 4.77214,-2.05137 4.77214,-4.59507 0,-2.54371 -2.13042,-4.59508 -4.77214,-4.59508 z"
       id="path32606"
       style="fill:none;stroke:#000000;stroke-width:0.836;stroke-dasharray:none;stroke-opacity:1" />
    <path
       d="m 274.09055,267.24603 c -2.64171,0 -4.77213,2.05138 -4.77213,4.59508 0,2.5437 2.13042,4.59508 4.77213,4.59508 2.64172,0 4.77214,-2.05138 4.77214,-4.59508 0.0852,-2.5437 -2.0452,-4.59508 -4.77214,-4.59508 z"
       id="path32604"
       style="fill:none;stroke:#000000;stroke-width:0.836;stroke-dasharray:none;stroke-opacity:1" />
    <path
       d="m 264.54628,260.0252 c -2.64172,0 -4.77214,2.05137 -4.77214,4.59508 0,2.5437 2.13042,4.59507 4.77214,4.59507 2.64172,0 4.77214,-2.05137 4.77214,-4.59507 0,-2.46165 -2.13042,-4.59508 -4.77214,-4.59508 z"
       id="path32602"
       style="fill:none;stroke:#000000;stroke-width:0.836;stroke-dasharray:none;stroke-opacity:1" />
    <path
       d="m 274.09055,253.05053 c -2.64171,0 -4.77213,2.05137 -4.77213,4.59508 0,2.5437 2.13042,4.59507 4.77213,4.59507 2.64172,0 4.77214,-2.05137 4.77214,-4.59507 0.0852,-2.54371 -2.0452,-4.59508 -4.77214,-4.59508 z"
       id="path32600"
       style="fill:none;stroke:#000000;stroke-width:0.836;stroke-dasharray:none;stroke-opacity:1" />
    <path
       d="m 264.54628,245.8297 c -2.64172,0 -4.77214,2.05137 -4.77214,4.59507 0,2.5437 2.13042,4.59508 4.77214,4.59508 2.64172,0 4.77214,-2.05138 4.77214,-4.59508 0,-2.5437 -2.13042,-4.59507 -4.77214,-4.59507 z"
       id="path32598"
       style="fill:none;stroke:#000000;stroke-width:0.836;stroke-dasharray:none;stroke-opacity:1" />
    <path
       d="m 274.09055,238.77297 c -2.64171,0 -4.77213,2.05137 -4.77213,4.59508 0,2.5437 2.13042,4.59507 4.77213,4.59507 2.64172,0 4.77214,-2.05137 4.77214,-4.59507 0.0852,-2.54371 -2.0452,-4.59508 -4.77214,-4.59508 z"
       id="path32596"
       style="fill:none;stroke:#000000;stroke-width:0.836;stroke-dasharray:none;stroke-opacity:1" />
    <path
       d="m 264.54628,231.55214 c -2.64172,0 -4.77214,2.05137 -4.77214,4.59507 0,2.54371 2.13042,4.59508 4.77214,4.59508 2.64172,0 4.77214,-2.05137 4.77214,-4.59508 0,-2.5437 -2.13042,-4.59507 -4.77214,-4.59507 z"
       id="path32594"
       style="fill:none;stroke:#000000;stroke-width:0.836;stroke-dasharray:none;stroke-opacity:1" />
    <path
       d="m 274.09055,224.49541 c -2.64171,0 -4.77213,2.05137 -4.77213,4.59508 0,2.5437 2.13042,4.59507 4.77213,4.59507 2.64172,0 4.77214,-2.05137 4.77214,-4.59507 0.0852,-2.46165 -2.0452,-4.59508 -4.77214,-4.59508 z"
       id="path32592"
       style="fill:none;stroke:#000000;stroke-width:0.836;stroke-dasharray:none;stroke-opacity:1" />
    <path
       d="m 264.54628,217.35663 c -2.64172,0 -4.77214,2.05137 -4.77214,4.59508 0,2.5437 2.13042,4.59507 4.77214,4.59507 2.64172,0 4.77214,-2.05137 4.77214,-4.59507 0,-2.54371 -2.13042,-4.59508 -4.77214,-4.59508 z"
       id="path32590"
       style="fill:none;stroke:#000000;stroke-width:0.836;stroke-dasharray:none;stroke-opacity:1" />
    <path
       d="m 274.09055,210.29991 c -2.64171,0 -4.77213,2.05137 -4.77213,4.59507 0,2.54371 2.13042,4.59508 4.77213,4.59508 2.64172,0 4.77214,-2.05137 4.77214,-4.59508 0.0852,-2.5437 -2.0452,-4.59507 -4.77214,-4.59507 z"
       id="path32588"
       style="fill:none;stroke:#000000;stroke-width:0.836;stroke-dasharray:none;stroke-opacity:1" />
    <path
       d="m 264.54628,203.07907 c -2.64172,0 -4.77214,2.05137 -4.77214,4.59508 0,2.5437 2.13042,4.59507 4.77214,4.59507 2.64172,0 4.77214,-2.05137 4.77214,-4.59507 0,-2.54371 -2.13042,-4.59508 -4.77214,-4.59508 z"
       id="path32586"
       style="fill:none;stroke:#000000;stroke-width:0.836;stroke-dasharray:none;stroke-opacity:1" />
    <path
       d="m 255.002,309.99666 c -2.64172,0 -4.77213,2.05137 -4.77213,4.59508 0,2.5437 2.13041,4.59507 4.77213,4.59507 2.64172,0 4.77214,-2.05137 4.77214,-4.59507 0,-2.54371 -2.13042,-4.59508 -4.77214,-4.59508 z"
       id="path32552"
       style="fill:none;stroke:#000000;stroke-width:0.836;stroke-dasharray:none;stroke-opacity:1" />
    <path
       d="m 245.37251,302.77582 c -2.64172,0 -4.77214,2.05138 -4.77214,4.59508 0,2.5437 2.13042,4.59508 4.77214,4.59508 2.64172,0 4.77214,-2.05138 4.77214,-4.59508 0,-2.5437 -2.13042,-4.59508 -4.77214,-4.59508 z"
       id="path32550"
       style="fill:none;stroke:#000000;stroke-width:0.836;stroke-dasharray:none;stroke-opacity:1" />
    <path
       d="m 255.002,295.7191 c -2.64172,0 -4.77213,2.05137 -4.77213,4.59508 0,2.5437 2.13041,4.59507 4.77213,4.59507 2.64172,0 4.77214,-2.05137 4.77214,-4.59507 0,-2.54371 -2.13042,-4.59508 -4.77214,-4.59508 z"
       id="path32548"
       style="fill:none;stroke:#000000;stroke-width:0.836;stroke-dasharray:none;stroke-opacity:1" />
    <path
       d="m 245.37251,288.49826 c -2.64172,0 -4.77214,2.05138 -4.77214,4.59508 0,2.5437 2.13042,4.59508 4.77214,4.59508 2.64172,0 4.77214,-2.05138 4.77214,-4.59508 0,-2.5437 -2.13042,-4.59508 -4.77214,-4.59508 z"
       id="path32546"
       style="fill:none;stroke:#000000;stroke-width:0.836;stroke-dasharray:none;stroke-opacity:1" />
    <path
       d="m 255.002,281.52359 c -2.64172,0 -4.77213,2.05138 -4.77213,4.59508 0,2.5437 2.13041,4.59508 4.77213,4.59508 2.64172,0 4.77214,-2.05138 4.77214,-4.59508 0,-2.5437 -2.13042,-4.59508 -4.77214,-4.59508 z"
       id="path32544"
       style="fill:none;stroke:#000000;stroke-width:0.836;stroke-dasharray:none;stroke-opacity:1" />
    <path
       d="m 245.37251,274.30276 c -2.64172,0 -4.77214,2.05137 -4.77214,4.59508 0,2.5437 2.13042,4.59507 4.77214,4.59507 2.64172,0 4.77214,-2.05137 4.77214,-4.59507 0,-2.54371 -2.13042,-4.59508 -4.77214,-4.59508 z"
       id="path32542"
       style="fill:none;stroke:#000000;stroke-width:0.836;stroke-dasharray:none;stroke-opacity:1" />
    <path
       d="m 255.002,267.24603 c -2.64172,0 -4.77213,2.05138 -4.77213,4.59508 0,2.5437 2.13041,4.59508 4.77213,4.59508 2.64172,0 4.77214,-2.05138 4.77214,-4.59508 0,-2.5437 -2.13042,-4.59508 -4.77214,-4.59508 z"
       id="path32540"
       style="fill:none;stroke:#000000;stroke-width:0.836;stroke-dasharray:none;stroke-opacity:1" />
    <path
       d="m 245.37251,260.0252 c -2.64172,0 -4.77214,2.05137 -4.77214,4.59508 0,2.5437 2.13042,4.59507 4.77214,4.59507 2.64172,0 4.77214,-2.05137 4.77214,-4.59507 0,-2.46165 -2.13042,-4.59508 -4.77214,-4.59508 z"
       id="path32538"
       style="fill:none;stroke:#000000;stroke-width:0.836;stroke-dasharray:none;stroke-opacity:1" />
    <path
       d="m 255.002,253.05053 c -2.64172,0 -4.77213,2.05137 -4.77213,4.59508 0,2.5437 2.13041,4.59507 4.77213,4.59507 2.64172,0 4.77214,-2.05137 4.77214,-4.59507 0,-2.54371 -2.13042,-4.59508 -4.77214,-4.59508 z"
       id="path32536"
       style="fill:none;stroke:#000000;stroke-width:0.836;stroke-dasharray:none;stroke-opacity:1" />
    <path
       d="m 245.37251,245.8297 c -2.64172,0 -4.77214,2.05137 -4.77214,4.59507 0,2.5437 2.13042,4.59508 4.77214,4.59508 2.64172,0 4.77214,-2.05138 4.77214,-4.59508 0,-2.5437 -2.13042,-4.59507 -4.77214,-4.59507 z"
       id="path32534"
       style="fill:none;stroke:#000000;stroke-width:0.836;stroke-dasharray:none;stroke-opacity:1" />
    <path
       d="m 255.002,238.77297 c -2.64172,0 -4.77213,2.05137 -4.77213,4.59508 0,2.5437 2.13041,4.59507 4.77213,4.59507 2.64172,0 4.77214,-2.05137 4.77214,-4.59507 0,-2.54371 -2.13042,-4.59508 -4.77214,-4.59508 z"
       id="path32532"
       style="fill:none;stroke:#000000;stroke-width:0.836;stroke-dasharray:none;stroke-opacity:1" />
    <path
       d="m 245.37251,231.55214 c -2.64172,0 -4.77214,2.05137 -4.77214,4.59507 0,2.54371 2.13042,4.59508 4.77214,4.59508 2.64172,0 4.77214,-2.05137 4.77214,-4.59508 0,-2.5437 -2.13042,-4.59507 -4.77214,-4.59507 z"
       id="path32530"
       style="fill:none;stroke:#000000;stroke-width:0.836;stroke-dasharray:none;stroke-opacity:1" />
    <path
       d="m 255.002,224.49541 c -2.64172,0 -4.77213,2.05137 -4.77213,4.59508 0,2.5437 2.13041,4.59507 4.77213,4.59507 2.64172,0 4.77214,-2.05137 4.77214,-4.59507 0,-2.46165 -2.13042,-4.59508 -4.77214,-4.59508 z"
       id="path32528"
       style="fill:none;stroke:#000000;stroke-width:0.836;stroke-dasharray:none;stroke-opacity:1" />
    <path
       d="m 245.37251,217.35663 c -2.64172,0 -4.77214,2.05137 -4.77214,4.59508 0,2.5437 2.13042,4.59507 4.77214,4.59507 2.64172,0 4.77214,-2.05137 4.77214,-4.59507 0,-2.54371 -2.13042,-4.59508 -4.77214,-4.59508 z"
       id="path32526"
       style="fill:none;stroke:#000000;stroke-width:0.836;stroke-dasharray:none;stroke-opacity:1" />
    <path
       d="m 255.002,210.29991 c -2.64172,0 -4.77213,2.05137 -4.77213,4.59507 0,2.54371 2.13041,4.59508 4.77213,4.59508 2.64172,0 4.77214,-2.05137 4.77214,-4.59508 0,-2.5437 -2.13042,-4.59507 -4.77214,-4.59507 z"
       id="path32524"
       style="fill:none;stroke:#000000;stroke-width:0.836;stroke-dasharray:none;stroke-opacity:1" />
    <path
       d="m 245.37251,203.07907 c -2.64172,0 -4.77214,2.05137 -4.77214,4.59508 0,2.5437 2.13042,4.59507 4.77214,4.59507 2.64172,0 4.77214,-2.05137 4.77214,-4.59507 0,-2.54371 -2.13042,-4.59508 -4.77214,-4.59508 z"
       id="path32522"
       style="fill:none;stroke:#000000;stroke-width:0.836;stroke-dasharray:none;stroke-opacity:1" />
    <path
       d="m 235.82823,309.99666 c -2.64171,0 -4.77213,2.05137 -4.77213,4.59508 0,2.5437 2.13042,4.59507 4.77213,4.59507 2.64172,0 4.77214,-2.05137 4.77214,-4.59507 0,-2.54371 -2.13042,-4.59508 -4.77214,-4.59508 z"
       id="path32488"
       style="fill:none;stroke:#000000;stroke-width:0.836;stroke-dasharray:none;stroke-opacity:1" />
    <path
       d="m 226.19874,302.77582 c -2.64172,0 -4.77214,2.05138 -4.77214,4.59508 0,2.5437 2.13042,4.59508 4.77214,4.59508 2.64172,0 4.77214,-2.05138 4.77214,-4.59508 0,-2.5437 -2.13042,-4.59508 -4.77214,-4.59508 z"
       id="path32486"
       style="fill:none;stroke:#000000;stroke-width:0.836;stroke-dasharray:none;stroke-opacity:1" />
    <path
       d="m 235.82823,295.7191 c -2.64171,0 -4.77213,2.05137 -4.77213,4.59508 0,2.5437 2.13042,4.59507 4.77213,4.59507 2.64172,0 4.77214,-2.05137 4.77214,-4.59507 0,-2.54371 -2.13042,-4.59508 -4.77214,-4.59508 z"
       id="path32484"
       style="fill:none;stroke:#000000;stroke-width:0.836;stroke-dasharray:none;stroke-opacity:1" />
    <path
       d="m 226.19874,288.49826 c -2.64172,0 -4.77214,2.05138 -4.77214,4.59508 0,2.5437 2.13042,4.59508 4.77214,4.59508 2.64172,0 4.77214,-2.05138 4.77214,-4.59508 0,-2.5437 -2.13042,-4.59508 -4.77214,-4.59508 z"
       id="path32482"
       style="fill:none;stroke:#000000;stroke-width:0.836;stroke-dasharray:none;stroke-opacity:1" />
    <path
       d="m 235.82823,281.52359 c -2.64171,0 -4.77213,2.05138 -4.77213,4.59508 0,2.5437 2.13042,4.59508 4.77213,4.59508 2.64172,0 4.77214,-2.05138 4.77214,-4.59508 0,-2.5437 -2.13042,-4.59508 -4.77214,-4.59508 z"
       id="path32480"
       style="fill:none;stroke:#000000;stroke-width:0.836;stroke-dasharray:none;stroke-opacity:1" />
    <path
       d="m 226.19874,274.30276 c -2.64172,0 -4.77214,2.05137 -4.77214,4.59508 0,2.5437 2.13042,4.59507 4.77214,4.59507 2.64172,0 4.77214,-2.05137 4.77214,-4.59507 0,-2.54371 -2.13042,-4.59508 -4.77214,-4.59508 z"
       id="path32478"
       style="fill:none;stroke:#000000;stroke-width:0.836;stroke-dasharray:none;stroke-opacity:1" />
    <path
       d="m 235.82823,267.24603 c -2.64171,0 -4.77213,2.05138 -4.77213,4.59508 0,2.5437 2.13042,4.59508 4.77213,4.59508 2.64172,0 4.77214,-2.05138 4.77214,-4.59508 0,-2.5437 -2.13042,-4.59508 -4.77214,-4.59508 z"
       id="path32476"
       style="fill:none;stroke:#000000;stroke-width:0.836;stroke-dasharray:none;stroke-opacity:1" />
    <path
       d="m 226.19874,260.0252 c -2.64172,0 -4.77214,2.05137 -4.77214,4.59508 0,2.5437 2.13042,4.59507 4.77214,4.59507 2.64172,0 4.77214,-2.05137 4.77214,-4.59507 0,-2.46165 -2.13042,-4.59508 -4.77214,-4.59508 z"
       id="path32474"
       style="fill:none;stroke:#000000;stroke-width:0.836;stroke-dasharray:none;stroke-opacity:1" />
    <path
       d="m 235.82823,253.05053 c -2.64171,0 -4.77213,2.05137 -4.77213,4.59508 0,2.5437 2.13042,4.59507 4.77213,4.59507 2.64172,0 4.77214,-2.05137 4.77214,-4.59507 0,-2.54371 -2.13042,-4.59508 -4.77214,-4.59508 z"
       id="path32472"
       style="fill:none;stroke:#000000;stroke-width:0.836;stroke-dasharray:none;stroke-opacity:1" />
    <path
       d="m 226.19874,245.8297 c -2.64172,0 -4.77214,2.05137 -4.77214,4.59507 0,2.5437 2.13042,4.59508 4.77214,4.59508 2.64172,0 4.77214,-2.05138 4.77214,-4.59508 0,-2.5437 -2.13042,-4.59507 -4.77214,-4.59507 z"
       id="path32470"
       style="fill:none;stroke:#000000;stroke-width:0.836;stroke-dasharray:none;stroke-opacity:1" />
    <path
       d="m 235.82823,238.77297 c -2.64171,0 -4.77213,2.05137 -4.77213,4.59508 0,2.5437 2.13042,4.59507 4.77213,4.59507 2.64172,0 4.77214,-2.05137 4.77214,-4.59507 0,-2.54371 -2.13042,-4.59508 -4.77214,-4.59508 z"
       id="path32468"
       style="fill:none;stroke:#000000;stroke-width:0.836;stroke-dasharray:none;stroke-opacity:1" />
    <path
       d="m 226.19874,231.55214 c -2.64172,0 -4.77214,2.05137 -4.77214,4.59507 0,2.54371 2.13042,4.59508 4.77214,4.59508 2.64172,0 4.77214,-2.05137 4.77214,-4.59508 0,-2.5437 -2.13042,-4.59507 -4.77214,-4.59507 z"
       id="path32466"
       style="fill:none;stroke:#000000;stroke-width:0.836;stroke-dasharray:none;stroke-opacity:1" />
    <path
       d="m 235.82823,224.49541 c -2.64171,0 -4.77213,2.05137 -4.77213,4.59508 0,2.5437 2.13042,4.59507 4.77213,4.59507 2.64172,0 4.77214,-2.05137 4.77214,-4.59507 0,-2.46165 -2.13042,-4.59508 -4.77214,-4.59508 z"
       id="path32464"
       style="fill:none;stroke:#000000;stroke-width:0.836;stroke-dasharray:none;stroke-opacity:1" />
    <path
       d="m 226.19874,217.35663 c -2.64172,0 -4.77214,2.05137 -4.77214,4.59508 0,2.5437 2.13042,4.59507 4.77214,4.59507 2.64172,0 4.77214,-2.05137 4.77214,-4.59507 0,-2.54371 -2.13042,-4.59508 -4.77214,-4.59508 z"
       id="path32462"
       style="fill:none;stroke:#000000;stroke-width:0.836;stroke-dasharray:none;stroke-opacity:1" />
    <path
       d="m 235.82823,210.29991 c -2.64171,0 -4.77213,2.05137 -4.77213,4.59507 0,2.54371 2.13042,4.59508 4.77213,4.59508 2.64172,0 4.77214,-2.05137 4.77214,-4.59508 0,-2.5437 -2.13042,-4.59507 -4.77214,-4.59507 z"
       id="path32460"
       style="fill:none;stroke:#000000;stroke-width:0.836;stroke-dasharray:none;stroke-opacity:1" />
    <path
       d="m 226.19874,203.07907 c -2.64172,0 -4.77214,2.05137 -4.77214,4.59508 0,2.5437 2.13042,4.59507 4.77214,4.59507 2.64172,0 4.77214,-2.05137 4.77214,-4.59507 0,-2.54371 -2.13042,-4.59508 -4.77214,-4.59508 z"
       id="path32458"
       style="fill:none;stroke:#000000;stroke-width:0.836;stroke-dasharray:none;stroke-opacity:1" />
    <path
       d="m 216.65447,309.99666 c -2.64172,0 -4.77214,2.05137 -4.77214,4.59508 0,2.5437 2.13042,4.59507 4.77214,4.59507 2.64172,0 4.77213,-2.05137 4.77213,-4.59507 0,-2.54371 -2.13041,-4.59508 -4.77213,-4.59508 z"
       id="path32424"
       style="fill:none;stroke:#000000;stroke-width:0.836;stroke-dasharray:none;stroke-opacity:1" />
    <path
       d="m 207.02497,302.77582 c -2.64171,0 -4.77213,2.05138 -4.77213,4.59508 0,2.5437 2.13042,4.59508 4.77213,4.59508 2.64172,0 4.77214,-2.05138 4.77214,-4.59508 0,-2.5437 -2.13042,-4.59508 -4.77214,-4.59508 z"
       id="path32422"
       style="fill:none;stroke:#000000;stroke-width:0.836;stroke-dasharray:none;stroke-opacity:1" />
    <path
       d="m 216.65447,295.7191 c -2.64172,0 -4.77214,2.05137 -4.77214,4.59508 0,2.5437 2.13042,4.59507 4.77214,4.59507 2.64172,0 4.77213,-2.05137 4.77213,-4.59507 0,-2.54371 -2.13041,-4.59508 -4.77213,-4.59508 z"
       id="path32420"
       style="fill:none;stroke:#000000;stroke-width:0.836;stroke-dasharray:none;stroke-opacity:1" />
    <path
       d="m 207.02497,288.49826 c -2.64171,0 -4.77213,2.05138 -4.77213,4.59508 0,2.5437 2.13042,4.59508 4.77213,4.59508 2.64172,0 4.77214,-2.05138 4.77214,-4.59508 0,-2.5437 -2.13042,-4.59508 -4.77214,-4.59508 z"
       id="path32418"
       style="fill:none;stroke:#000000;stroke-width:0.836;stroke-dasharray:none;stroke-opacity:1" />
    <path
       d="m 216.65447,281.52359 c -2.64172,0 -4.77214,2.05138 -4.77214,4.59508 0,2.5437 2.13042,4.59508 4.77214,4.59508 2.64172,0 4.77213,-2.05138 4.77213,-4.59508 0,-2.5437 -2.13041,-4.59508 -4.77213,-4.59508 z"
       id="path32416"
       style="fill:none;stroke:#000000;stroke-width:0.836;stroke-dasharray:none;stroke-opacity:1" />
    <path
       d="m 207.02497,274.30276 c -2.64171,0 -4.77213,2.05137 -4.77213,4.59508 0,2.5437 2.13042,4.59507 4.77213,4.59507 2.64172,0 4.77214,-2.05137 4.77214,-4.59507 0,-2.54371 -2.13042,-4.59508 -4.77214,-4.59508 z"
       id="path32414"
       style="fill:none;stroke:#000000;stroke-width:0.836;stroke-dasharray:none;stroke-opacity:1" />
    <path
       d="m 216.65447,267.24603 c -2.64172,0 -4.77214,2.05138 -4.77214,4.59508 0,2.5437 2.13042,4.59508 4.77214,4.59508 2.64172,0 4.77213,-2.05138 4.77213,-4.59508 0,-2.5437 -2.13041,-4.59508 -4.77213,-4.59508 z"
       id="path32412"
       style="fill:none;stroke:#000000;stroke-width:0.836;stroke-dasharray:none;stroke-opacity:1" />
    <path
       d="m 207.02497,260.0252 c -2.64171,0 -4.77213,2.05137 -4.77213,4.59508 0,2.5437 2.13042,4.59507 4.77213,4.59507 2.64172,0 4.77214,-2.05137 4.77214,-4.59507 0,-2.46165 -2.13042,-4.59508 -4.77214,-4.59508 z"
       id="path32410"
       style="fill:none;stroke:#000000;stroke-width:0.836;stroke-dasharray:none;stroke-opacity:1" />
    <path
       d="m 216.65447,253.05053 c -2.64172,0 -4.77214,2.05137 -4.77214,4.59508 0,2.5437 2.13042,4.59507 4.77214,4.59507 2.64172,0 4.77213,-2.05137 4.77213,-4.59507 0,-2.54371 -2.13041,-4.59508 -4.77213,-4.59508 z"
       id="path32408"
       style="fill:none;stroke:#000000;stroke-width:0.836;stroke-dasharray:none;stroke-opacity:1" />
    <path
       d="m 207.02497,245.8297 c -2.64171,0 -4.77213,2.05137 -4.77213,4.59507 0,2.5437 2.13042,4.59508 4.77213,4.59508 2.64172,0 4.77214,-2.05138 4.77214,-4.59508 0,-2.5437 -2.13042,-4.59507 -4.77214,-4.59507 z"
       id="path32406"
       style="fill:none;stroke:#000000;stroke-width:0.836;stroke-dasharray:none;stroke-opacity:1" />
    <path
       d="m 216.65447,238.77297 c -2.64172,0 -4.77214,2.05137 -4.77214,4.59508 0,2.5437 2.13042,4.59507 4.77214,4.59507 2.64172,0 4.77213,-2.05137 4.77213,-4.59507 0,-2.54371 -2.13041,-4.59508 -4.77213,-4.59508 z"
       id="path32404"
       style="fill:none;stroke:#000000;stroke-width:0.836;stroke-dasharray:none;stroke-opacity:1" />
    <path
       d="m 207.02497,231.55214 c -2.64171,0 -4.77213,2.05137 -4.77213,4.59507 0,2.54371 2.13042,4.59508 4.77213,4.59508 2.64172,0 4.77214,-2.05137 4.77214,-4.59508 0,-2.5437 -2.13042,-4.59507 -4.77214,-4.59507 z"
       id="path32402"
       style="fill:none;stroke:#000000;stroke-width:0.836;stroke-dasharray:none;stroke-opacity:1" />
    <path
       d="m 216.65447,224.49541 c -2.64172,0 -4.77214,2.05137 -4.77214,4.59508 0,2.5437 2.13042,4.59507 4.77214,4.59507 2.64172,0 4.77213,-2.05137 4.77213,-4.59507 0,-2.46165 -2.13041,-4.59508 -4.77213,-4.59508 z"
       id="path32400"
       style="fill:none;stroke:#000000;stroke-width:0.836;stroke-dasharray:none;stroke-opacity:1" />
    <path
       d="m 207.02497,217.35663 c -2.64171,0 -4.77213,2.05137 -4.77213,4.59508 0,2.5437 2.13042,4.59507 4.77213,4.59507 2.64172,0 4.77214,-2.05137 4.77214,-4.59507 0,-2.54371 -2.13042,-4.59508 -4.77214,-4.59508 z"
       id="path32398"
       style="fill:none;stroke:#000000;stroke-width:0.836;stroke-dasharray:none;stroke-opacity:1" />
    <path
       d="m 216.65447,210.29991 c -2.64172,0 -4.77214,2.05137 -4.77214,4.59507 0,2.54371 2.13042,4.59508 4.77214,4.59508 2.64172,0 4.77213,-2.05137 4.77213,-4.59508 0,-2.5437 -2.13041,-4.59507 -4.77213,-4.59507 z"
       id="path32396"
       style="fill:none;stroke:#000000;stroke-width:0.836;stroke-dasharray:none;stroke-opacity:1" />
    <path
       d="m 207.02497,203.07907 c -2.64171,0 -4.77213,2.05137 -4.77213,4.59508 0,2.5437 2.13042,4.59507 4.77213,4.59507 2.64172,0 4.77214,-2.05137 4.77214,-4.59507 0,-2.54371 -2.13042,-4.59508 -4.77214,-4.59508 z"
       id="path32394"
       style="fill:none;stroke:#000000;stroke-width:0.836;stroke-dasharray:none;stroke-opacity:1" />
    <path
       d="m 197.4807,309.99666 c -2.64172,0 -4.77214,2.05137 -4.77214,4.59508 0,2.5437 2.13042,4.59507 4.77214,4.59507 2.64172,0 4.77214,-2.05137 4.77214,-4.59507 0,-2.54371 -2.13042,-4.59508 -4.77214,-4.59508 z"
       id="path32360"
       style="fill:none;stroke:#000000;stroke-width:0.836;stroke-dasharray:none;stroke-opacity:1" />
    <path
       d="m 187.85121,302.77582 c -2.64172,0 -4.77214,2.05138 -4.77214,4.59508 0,2.5437 2.13042,4.59508 4.77214,4.59508 2.64172,0 4.77213,-2.05138 4.77213,-4.59508 0,-2.5437 -2.13041,-4.59508 -4.77213,-4.59508 z"
       id="path32358"
       style="fill:none;stroke:#000000;stroke-width:0.836;stroke-dasharray:none;stroke-opacity:1" />
    <path
       d="m 197.4807,295.7191 c -2.64172,0 -4.77214,2.05137 -4.77214,4.59508 0,2.5437 2.13042,4.59507 4.77214,4.59507 2.64172,0 4.77214,-2.05137 4.77214,-4.59507 0,-2.54371 -2.13042,-4.59508 -4.77214,-4.59508 z"
       id="path32356"
       style="fill:none;stroke:#000000;stroke-width:0.836;stroke-dasharray:none;stroke-opacity:1" />
    <path
       d="m 187.85121,288.49826 c -2.64172,0 -4.77214,2.05138 -4.77214,4.59508 0,2.5437 2.13042,4.59508 4.77214,4.59508 2.64172,0 4.77213,-2.05138 4.77213,-4.59508 0,-2.5437 -2.13041,-4.59508 -4.77213,-4.59508 z"
       id="path32354"
       style="fill:none;stroke:#000000;stroke-width:0.836;stroke-dasharray:none;stroke-opacity:1" />
    <path
       d="m 197.4807,281.52359 c -2.64172,0 -4.77214,2.05138 -4.77214,4.59508 0,2.5437 2.13042,4.59508 4.77214,4.59508 2.64172,0 4.77214,-2.05138 4.77214,-4.59508 0,-2.5437 -2.13042,-4.59508 -4.77214,-4.59508 z"
       id="path32352"
       style="fill:none;stroke:#000000;stroke-width:0.836;stroke-dasharray:none;stroke-opacity:1" />
    <path
       d="m 187.85121,274.30276 c -2.64172,0 -4.77214,2.05137 -4.77214,4.59508 0,2.5437 2.13042,4.59507 4.77214,4.59507 2.64172,0 4.77213,-2.05137 4.77213,-4.59507 0,-2.54371 -2.13041,-4.59508 -4.77213,-4.59508 z"
       id="path32350"
       style="fill:none;stroke:#000000;stroke-width:0.836;stroke-dasharray:none;stroke-opacity:1" />
    <path
       d="m 197.4807,267.24603 c -2.64172,0 -4.77214,2.05138 -4.77214,4.59508 0,2.5437 2.13042,4.59508 4.77214,4.59508 2.64172,0 4.77214,-2.05138 4.77214,-4.59508 0,-2.5437 -2.13042,-4.59508 -4.77214,-4.59508 z"
       id="path32348"
       style="fill:none;stroke:#000000;stroke-width:0.836;stroke-dasharray:none;stroke-opacity:1" />
    <path
       d="m 187.85121,260.0252 c -2.64172,0 -4.77214,2.05137 -4.77214,4.59508 0,2.5437 2.13042,4.59507 4.77214,4.59507 2.64172,0 4.77213,-2.05137 4.77213,-4.59507 0,-2.46165 -2.13041,-4.59508 -4.77213,-4.59508 z"
       id="path32346"
       style="fill:none;stroke:#000000;stroke-width:0.836;stroke-dasharray:none;stroke-opacity:1" />
    <path
       d="m 197.4807,253.05053 c -2.64172,0 -4.77214,2.05137 -4.77214,4.59508 0,2.5437 2.13042,4.59507 4.77214,4.59507 2.64172,0 4.77214,-2.05137 4.77214,-4.59507 0,-2.54371 -2.13042,-4.59508 -4.77214,-4.59508 z"
       id="path32344"
       style="fill:none;stroke:#000000;stroke-width:0.836;stroke-dasharray:none;stroke-opacity:1" />
    <path
       d="m 187.85121,245.8297 c -2.64172,0 -4.77214,2.05137 -4.77214,4.59507 0,2.5437 2.13042,4.59508 4.77214,4.59508 2.64172,0 4.77213,-2.05138 4.77213,-4.59508 0,-2.5437 -2.13041,-4.59507 -4.77213,-4.59507 z"
       id="path32342"
       style="fill:none;stroke:#000000;stroke-width:0.836;stroke-dasharray:none;stroke-opacity:1" />
    <path
       d="m 197.4807,238.77297 c -2.64172,0 -4.77214,2.05137 -4.77214,4.59508 0,2.5437 2.13042,4.59507 4.77214,4.59507 2.64172,0 4.77214,-2.05137 4.77214,-4.59507 0,-2.54371 -2.13042,-4.59508 -4.77214,-4.59508 z"
       id="path32340"
       style="fill:none;stroke:#000000;stroke-width:0.836;stroke-dasharray:none;stroke-opacity:1" />
    <path
       d="m 187.85121,231.55214 c -2.64172,0 -4.77214,2.05137 -4.77214,4.59507 0,2.54371 2.13042,4.59508 4.77214,4.59508 2.64172,0 4.77213,-2.05137 4.77213,-4.59508 0,-2.5437 -2.13041,-4.59507 -4.77213,-4.59507 z"
       id="path32338"
       style="fill:none;stroke:#000000;stroke-width:0.836;stroke-dasharray:none;stroke-opacity:1" />
    <path
       d="m 197.4807,224.49541 c -2.64172,0 -4.77214,2.05137 -4.77214,4.59508 0,2.5437 2.13042,4.59507 4.77214,4.59507 2.64172,0 4.77214,-2.05137 4.77214,-4.59507 0,-2.46165 -2.13042,-4.59508 -4.77214,-4.59508 z"
       id="path32336"
       style="fill:none;stroke:#000000;stroke-width:0.836;stroke-dasharray:none;stroke-opacity:1" />
    <path
       d="m 187.85121,217.35663 c -2.64172,0 -4.77214,2.05137 -4.77214,4.59508 0,2.5437 2.13042,4.59507 4.77214,4.59507 2.64172,0 4.77213,-2.05137 4.77213,-4.59507 0,-2.54371 -2.13041,-4.59508 -4.77213,-4.59508 z"
       id="path32334"
       style="fill:none;stroke:#000000;stroke-width:0.836;stroke-dasharray:none;stroke-opacity:1" />
    <path
       d="m 197.4807,210.29991 c -2.64172,0 -4.77214,2.05137 -4.77214,4.59507 0,2.54371 2.13042,4.59508 4.77214,4.59508 2.64172,0 4.77214,-2.05137 4.77214,-4.59508 0,-2.5437 -2.13042,-4.59507 -4.77214,-4.59507 z"
       id="path32332"
       style="fill:none;stroke:#000000;stroke-width:0.836;stroke-dasharray:none;stroke-opacity:1" />
    <path
       d="m 192.62334,207.67415 c 0,2.5437 -2.13041,4.59507 -4.77213,4.59507 -2.64172,0 -4.77214,-2.05137 -4.77214,-4.59507 0,-2.54371 2.13042,-4.59508 4.77214,-4.59508 2.64172,0 4.77213,2.05137 4.77213,4.59508 z"
       id="path16100"
       style="fill:none;stroke:#000000;stroke-width:0.836;stroke-dasharray:none;stroke-opacity:1" />
    <path
       id="rect4"
       style="fill:none;stroke:#000000"
       d="m 14.811199,-4.9209299 0.267684,9.9999064 h -1.49965 c 1.42e-4,4.6946066 -3.8056499,8.5003985 -8.5002565,8.5002565 v 1.49965 H -4.9209299 V 99.07907 H 12.806153 c 1.259083,0 2.27273,0.892008 2.27273,2 v 18 c 0,1.108 -1.013647,2 -2.27273,2 H -4.9209299 v 98 H 13.079005 c 1.107993,0 1.999878,0.892 1.999878,2 v 18 c 0,1.108 -0.973802,2 -1.999878,2 H -4.9209299 v 84.00001 h 9.9999064 v 1.50017 c 4.6944096,-1.4e-4 8.5001125,3.80532 8.5002565,8.49974 h 1.49965 v 9.99991 H 725.07896 v -9.99991 h 1.50016 c 1.4e-4,-4.69422 3.80553,-8.4996 8.49974,-8.49974 v -1.50017 l 10.00043,0.0605 v -84.06051 h -18.00046 c -1.10795,0 -1.99987,-0.892 -1.99987,-2 v -18 c 0,-1.108 0.98843,-2 1.99987,-2 h 18.00046 v -98 h -18.00046 c -1.10794,0 -1.99987,-0.892 -1.99987,-2 v -18 c 0,-1.107994 1.17482,-2 1.99987,-2 h 18.00046 V 15.265952 l -10.00043,-0.187069 v -1.49965 c -4.69442,-1.44e-4 -8.49988,-3.8058375 -8.49974,-8.5002565 h -1.50016 v -9.9999064 z"
       sodipodi:nodetypes="cccccccssssccssssccccccccccccccssssccsssscccccccc" />
  </g>
</svg>
