<?xml version="1.0" encoding="UTF-8" standalone="no"?>
<svg
   width="500mm"
   height="250mm"
   version="1.1"
   id="svg19"
   sodipodi:docname="tanklid-corner1.svg"
   inkscape:version="1.3.2 (091e20ef0f, 2023-11-25, custom)"
   xml:space="preserve"
   xmlns:inkscape="http://www.inkscape.org/namespaces/inkscape"
   xmlns:sodipodi="http://sodipodi.sourceforge.net/DTD/sodipodi-0.dtd"
   xmlns="http://www.w3.org/2000/svg"
   xmlns:svg="http://www.w3.org/2000/svg"><defs
     id="defs19" /><sodipodi:namedview
     id="namedview19"
     pagecolor="#ffffff"
     bordercolor="#666666"
     borderopacity="1.0"
     inkscape:showpageshadow="2"
     inkscape:pageopacity="0.0"
     inkscape:pagecheckerboard="0"
     inkscape:deskcolor="#d1d1d1"
     showgrid="false"
     inkscape:zoom="2.5186464"
     inkscape:cx="238.2232"
     inkscape:cy="172.91034"
     inkscape:window-width="1920"
     inkscape:window-height="1029"
     inkscape:window-x="0"
     inkscape:window-y="27"
     inkscape:window-maximized="1"
     inkscape:current-layer="svg19"
     inkscape:document-units="mm" /><g
     id="g1"
     transform="translate(-3.9999217,-583.28503)"><path
       style="fill:none;stroke:#000000;stroke-width:3.80985"
       d="M 49.35963,594.57338 C 46.602074,690.41102 2.4681214,689.83303 7.7794493,791.15905 9.4357975,844.54797 25.16941,894.87501 80.365866,913.30088 l 1.05052,0.29594 1.052981,0.2846 1.055362,0.27364 1.057666,0.26268 1.059894,0.25209 1.062055,0.24151 1.064149,0.23093 1.066179,0.22111 1.068151,0.2109 1.070066,0.20107 1.071928,0.19124 1.073738,0.18142 1.0755,0.17197 1.077217,0.1629 1.07889,0.15383 1.080521,0.14475 1.082114,0.13569 1.083668,0.12699 1.085185,0.11868 1.08667,0.11036 1.08812,0.10205 1.08955,0.0937 1.09093,0.0858 1.0923,0.0782 1.09362,0.0703 1.09493,0.0627 2.19367,0.10318 2.19857,0.0745 2.20328,0.0469 2.20779,0.0189 2.21212,-0.004 2.21625,-0.0302 2.22021,-0.054 2.22396,-0.0771 2.22753,-0.099 2.23091,-0.12019 2.2341,-0.1406 2.23708,-0.15987 c 64.46364,-5.13439 49.68327,-11.33914 133.64361,-12.77958 68.78411,2.63587 142.81913,-4.23665 211.65354,-3.77953"
       id="path1"
       sodipodi:nodetypes="ccccccccccccccccccccccccccccccccccccccccccc" /><path
       style="fill:none;stroke:#000000;stroke-width:4.53232"
       d="M 47.782677,594.62361 H 480.22039 v 306.14173"
       id="rect1"
       sodipodi:nodetypes="ccc" /></g><path
     d="m 62.238882,307.08662 0.47464,-0.0151 0.47276,-0.0446 0.46903,-0.0745 0.46343,-0.10355 0.45602,-0.13267 0.44679,-0.161 0.43582,-0.1886 0.42311,-0.21544 0.40875,-0.24188 0.39275,-0.26684 0.37522,-0.29102 0.35621,-0.31408 0.33578,-0.33562 0.31404,-0.35603 0.29105,-0.37531 0.26692,-0.39277 0.24172,-0.40872 0.21559,-0.42312 0.1886,-0.43581 0.16085,-0.44682 0.13249,-0.456 0.10359,-0.46344 0.0743,-0.46901 0.0447,-0.47278 0.0149,-0.47436 -0.0149,-0.47464 -0.0447,-0.47278 -0.0743,-0.469 -0.10359,-0.46345 -0.13249,-0.45599 -0.16085,-0.44682 -0.1886,-0.43582 -0.21558,-0.42312 -0.24173,-0.40871 -0.26692,-0.39277 -0.29105,-0.37531 -0.31404,-0.35603 -0.33578,-0.33562 -0.35621,-0.31408 -0.37522,-0.29102 -0.39275,-0.26684 -0.40875,-0.24189 -0.42311,-0.21543 -0.43581,-0.1886 -0.4468,-0.16101 -0.45602,-0.13266 -0.46343,-0.10356 -0.46903,-0.0745 -0.47276,-0.0446 -0.47463,-0.0148 -0.47464,0.0151 -0.47276,0.0446 -0.46903,0.0745 -0.46343,0.10356 -0.45602,0.13266 -0.4468,0.16101 -0.43581,0.1886 -0.42312,0.21543 -0.40874,0.24189 -0.39275,0.26684 -0.37522,0.29102 -0.35621,0.31408 -0.33578,0.33562 -0.31404,0.35603 -0.29105,0.37531 -0.26692,0.39277 -0.24173,0.40871 -0.21558,0.42312 -0.1886,0.43582 -0.16086,0.44682 -0.13248,0.456 -0.10359,0.46344 -0.0743,0.469 -0.0447,0.47278 -0.0149,0.47437 0.0149,0.47463 0.0447,0.47279 0.0743,0.469 0.10359,0.46344 0.13248,0.456 0.16086,0.44682 0.1886,0.43581 0.21558,0.42312 0.24173,0.40872 0.26692,0.39277 0.29105,0.37531 0.31404,0.35603 0.33578,0.33562 0.3562,0.31408 0.37523,0.29102 0.39275,0.26684 0.40874,0.24189 0.42312,0.21543 0.43581,0.1886 0.4468,0.161 0.45602,0.13267 0.46343,0.10355 0.46903,0.0745 0.47276,0.0446 0.47463,0.0148"
     id="path14"
     style="fill:none;stroke:#000000;stroke-width:3.69611" /><circle
     style="fill:none;stroke:#000001;stroke-width:13.9921;stroke-opacity:1"
     id="circle1"
     cx="238.48424"
     cy="172.48424"
     r="94.48819" /></svg>
