<?xml version="1.0" encoding="UTF-8" standalone="no"?>
<svg
   width="500mm"
   height="250mm"
   version="1.1"
   id="svg19"
   sodipodi:docname="tanklid.svg"
   inkscape:version="1.3.2 (091e20ef0f, 2023-11-25, custom)"
   xml:space="preserve"
   xmlns:inkscape="http://www.inkscape.org/namespaces/inkscape"
   xmlns:sodipodi="http://sodipodi.sourceforge.net/DTD/sodipodi-0.dtd"
   xmlns="http://www.w3.org/2000/svg"
   xmlns:svg="http://www.w3.org/2000/svg"><defs
     id="defs19" /><sodipodi:namedview
     id="namedview19"
     pagecolor="#ffffff"
     bordercolor="#666666"
     borderopacity="1.0"
     inkscape:showpageshadow="2"
     inkscape:pageopacity="0.0"
     inkscape:pagecheckerboard="0"
     inkscape:deskcolor="#d1d1d1"
     showgrid="false"
     inkscape:zoom="4.3616475"
     inkscape:cx="468.85953"
     inkscape:cy="215.62953"
     inkscape:window-width="2560"
     inkscape:window-height="1389"
     inkscape:window-x="0"
     inkscape:window-y="27"
     inkscape:window-maximized="1"
     inkscape:current-layer="svg19"
     inkscape:document-units="mm" /><g
     id="g1"
     transform="translate(0,-56)"><circle
       style="fill:none;stroke:#000001;stroke-width:0.797737;stroke-opacity:1"
       id="path7752"
       cx="225.17326"
       cy="253.70651"
       r="7.7480316" /><circle
       style="fill:none;stroke:#000001;stroke-width:0.797737;stroke-opacity:1"
       id="circle7754"
       cx="225.17326"
       cy="665.29706"
       r="7.7480316" /><circle
       style="fill:none;stroke:#000001;stroke-width:0.797737;stroke-opacity:1"
       id="circle7756"
       cx="1147"
       cy="253.70651"
       r="7.7480316" /><circle
       style="fill:none;stroke:#000001;stroke-width:0.797737;stroke-opacity:1"
       id="circle7758"
       cx="1147"
       cy="665.29706"
       r="7.7480316" /><path
       id="rect10022"
       style="fill:none;stroke:#000000;stroke-width:1.88976;stroke-dasharray:none"
       d="m 297.72853,245.95848 h 776.71627 c 80.2134,91.05957 0.095,-0.27046 80.3033,90.70866 v 245.11779 c -80.2767,91.46786 0.1088,-0.0918 -80.3033,91.26017 H 297.72853 c -80.3129,-91.30791 0.0179,-0.20009 -80.30329,-91.26017 V 336.66714 c 80.9278,-94.19503 -0.1653,-0.82116 80.30329,-90.70866 z"
       sodipodi:nodetypes="ccccccccc" /></g><circle
     style="fill:none;stroke:#000001;stroke-width:13.9921;stroke-opacity:1"
     id="circle1"
     cx="891.96851"
     cy="752.12598"
     r="94.48819" /><path
     d="m 46.155694,458.87565 c 0.227273,-181.03138 -0.62405,96.22474 -0.17771,-65.25364 l -0.682453,-1.98335 0.0254,-2.11942 0.03481,-2.12802 0.04512,-2.13669 0.05632,-2.14545 0.06797,-2.14745 0.07853,-2.13877 0.08783,-2.12986 0.198557,-4.23247 0.220997,-4.19524 0.471602,-8.27411 0.23238,-4.0762 0.218355,-4.03365 0.195844,-3.98944 0.0869,-1.9776 0.07821,-1.96587 0.06854,-1.95393 0.0579,-1.94173 0.04632,-1.92931 0.03383,-1.91665 0.02041,-1.90374 0.0061,-1.8906 -0.0091,-1.87723 -0.0251,-1.86364 -0.04193,-1.84984 -0.05957,-1.83583 -0.078,-1.82163 -0.0972,-1.80727 -0.117143,-1.79274 -0.13782,-1.7781 -0.159213,-1.76334 -0.1813,-1.74852 -0.20408,-1.73366 -0.227531,-1.71879 -0.251645,-1.70397 -0.276423,-1.68923 -0.303239,-1.68353 -0.331918,-1.69075 -0.359974,-1.69828 -0.387365,-1.70599 -0.41406,-1.71385 -0.440031,-1.72184 -0.465247,-1.72993 -0.489684,-1.73807 -0.513313,-1.74629 -0.536108,-1.75453 -0.558041,-1.76282 -0.579089,-1.77113 -0.599228,-1.77945 -0.61843,-1.7878 -0.636676,-1.79618 -0.653942,-1.80456 -0.670204,-1.81299 -0.685444,-1.82144 -0.699641,-1.82996 -0.712774,-1.83852 -12.244635,-30.54391 -1.51731,-3.92521 -1.496561,-3.9456 -0.739373,-1.98086 -0.732832,-1.98644 -0.725824,-1.99219 -0.718364,-1.99809 -0.710426,-2.00417 -0.702028,-2.01041 -0.693158,-2.01681 -0.683811,-2.02336 -0.673984,-2.03008 -0.663678,-2.03697 -0.652883,-2.044 -0.641601,-2.0512 -0.629828,-2.05855 -0.61756,-2.06605 -0.6047924,-2.0737 -0.5915226,-2.0815 -0.5777461,-2.08944 -0.5634633,-2.09752 -0.548674,-2.10574 -0.5333631,-2.11409 -0.5175421,-2.12257 -0.5011993,-2.13118 -0.4843351,-2.1399 -0.4669456,-2.14873 -0.4490381,-2.15768 -0.4305977,-2.16672 -0.4116284,-2.17586 -0.3921297,-2.1851 -0.3720945,-2.19441 -0.3515339,-2.2038 -0.3304441,-2.21327 -0.3088252,-2.2228 -0.2866771,-2.23238 -0.264,-2.24201 -0.2407559,-2.2517 -0.21702048,-2.2614 -0.19275591,-2.27115 -0.1679622,-2.28091 -0.14263937,-2.29069 -0.1167874,-2.30047 -0.0904441,-2.31026 L 0.0445989,144.14185 0.00831544,141.81204 4.7797251e-7,139.47249 0.02003197,137.12322 l 0.0488315,-2.35897 0.07812283,-2.36836 0.10756536,-2.37476 0.13697007,-2.37972 0.16626142,-2.38389 0.19551495,-2.38724 0.22473071,-2.38979 0.25394649,-2.39151 0.2830866,-2.39242 0.3122645,-2.39251 0.3414425,-2.39176 0.3706583,-2.39018 0.3998778,-2.38776 0.4291578,-2.3845 0.4584982,-2.38041 0.4879144,-2.375462 0.5174097,-2.369672 0.2698205,-1.182399 0.2772283,-1.180629 0.2846363,-1.178759 0.2920818,-1.176782 0.2995276,-1.174691 0.307011,-1.1725 0.3145323,-1.170202 0.3220157,-1.167794 0.3295748,-1.165281 0.3371339,-1.162661 0.3446929,-1.159937 0.3522898,-1.157098 0.3599244,-1.154161 0.367559,-1.151123 0.3752315,-1.147955 0.3829451,-1.144668 0.390679,-1.141341 0.398438,-1.137826 0.406227,-1.134236 0.414051,-1.13057 0.421909,-1.126714 0.4298,-1.122859 0.43773,-1.118778 0.445697,-1.114696 0.453702,-1.110386 0.461745,-1.106079 0.469836,-1.101618 0.477971,-1.097008 0.486149,-1.09232 0.494374,-1.087521 0.50265,-1.08257 0.510977,-1.077543 0.519357,-1.072402 0.527792,-1.06715 0.536281,-1.061706 0.544826,-1.056227 0.553436,-1.050594 0.562111,-1.04485 0.57084,-1.038916 0.579644,-1.032945 0.58851,-1.026822 0.597449,-1.020547 0.606459,-1.014123 0.615542,-1.007621 0.624699,-1.000932 0.633932,-0.994129 0.643246,-0.987212 0.652638,-0.980069 0.662113,-0.97285 0.671671,-0.965442 0.681313,-0.957883 0.691041,-0.950173 0.700856,-0.942311 0.710758,-0.934299 0.720749,-0.92606 0.73083,-0.917706 0.740999,-0.909128 0.751259,-0.900358 0.76161,-0.891477 0.772049,-0.88233 0.782577,-0.872995 0.793195,-0.863471 0.8039,-0.853757 0.81469,-0.843741 0.825566,-0.833613 0.836523,-0.82318 0.847559,-0.812523 0.858673,-0.801599 0.869506,-0.790186 0.87823,-0.776693 0.886451,-0.762859 0.8945,-0.749064 0.902373,-0.735269 0.910065,-0.721398 0.917576,-0.707603 0.924902,-0.69377 0.932043,-0.680012 0.938997,-0.666217 0.945765,-0.652498 0.952346,-0.638815 0.958741,-0.625134 0.964951,-0.611565 0.970978,-0.597997 0.976822,-0.584503 0.982487,-0.571125 0.987975,-0.557782 0.993288,-0.544516 0.99843,-0.531364 1.003404,-0.518324 1.008213,-0.505323 1.012862,-0.492472 1.017353,-0.479697 1.021691,-0.467074 1.025881,-0.454526 1.029926,-0.4421667 1.033831,-0.4298455 1.037601,-0.4176754 1.041238,-0.4056943 1.044749,-0.393751 1.048138,-0.3820345 1.05141,-0.3703936 1.054566,-0.359055 1.057616,-0.3477163 1.06056,-0.3363779 1.063404,-0.3254171 1.066152,-0.3144566 1.068807,-0.3034959 1.071377,-0.2929133 1.073861,-0.2823306 1.076266,-0.2721259 1.078594,-0.2619211 1.08085,-0.2520944 1.083037,-0.2418897 1.085158,-0.2324408 1.087216,-0.2226141 1.089216,-0.2131653 1.091158,-0.2037164 1.093047,-0.1946456 1.094884,-0.1855747 1.096674,-0.1768819 1.098417,-0.1678109 1.100116,-0.1591181 1.101774,-0.150803 1.103391,-0.1424882 1.104972,-0.1341731 1.106516,-0.1262362 1.10802,-0.11829918 1.1095,-0.11036216 1.11094,-0.10280311 1.11236,-0.0948661 2.22884,-0.16781095 2.23415,-0.13908656 2.23926,-0.11111806 2.24417,-0.08390548 2.24887,-0.05782675 2.25341,-0.03401573 2.25776,-0.0075590559 2.26193,0.0151181059 2.26593,0.03779526 2.26974,0.05933856 2.27338,0.0801259 2.27684,0.10015744 2.28011,0.11981097 2.28321,0.13833065 2.28611,0.15609443 2.28882,0.17310229 2.29133,0.18973213 2.29365,0.2052283 2.29575,0.2203463 2.29764,0.2343307 2.29932,0.2479369 2.30078,0.2607873 2.302,0.2728817 2.30299,0.2842204 2.30375,0.295181 2.30425,0.3053857 2.3045,0.3148345 2.30448,0.3239054 2.30421,0.3318424 4.60647,0.6858327 4.60196,0.7108911 4.59507,0.7309225 4.58574,0.7458895 9.13334,1.5167993 9.06465,1.5174798 4.49949,0.746872 4.47363,0.732586 4.44471,0.713461 4.41262,0.689726 4.37727,0.661228 4.33854,0.628157 2.15368,0.300094 2.14268,0.290268 2.13126,0.279685 2.11937,0.268724 2.10701,0.257008 2.0942,0.244913 2.08092,0.232063 2.06713,0.218835 2.05289,0.205228 2.0385,0.191244 2.02977,0.17726 2.02337,0.163653 2.01731,0.150803 2.01159,0.137953 2.00618,0.125858 2.00111,0.114142 1.99637,0.102425 1.99195,0.09146 1.98786,0.0805 1.98407,0.06992 1.98061,0.06009 1.97746,0.05027 1.97463,0.04082 1.97209,0.03024 1.96987,0.02268 1.96795,0.01512 1.96633,0.0076 1.965,-6.8e-4 3.9272,-0.02268 3.9254,-0.04838 3.92587,-0.07143 3.92855,-0.09147 3.93343,-0.108094 3.94045,-0.122079 7.91025,-0.273638 7.96289,-0.291779 8.03111,-0.283843 4.04584,-0.130771 4.06844,-0.119055 4.08382,-0.104315 4.08868,-0.0892 4.09307,-0.07484 4.09702,-0.06123 4.10056,-0.04876 4.10365,-0.03779 4.10629,-0.02646 4.1085,-0.01512 4.11027,-0.0076 4.11158,0.0022 8.22532,0.02646 8.22518,0.05102 8.22136,0.06916 8.21384,0.08088 16.39014,0.170834 8.16983,0.07748 8.16166,0.0669 8.15682,0.05669 8.15233,0.04687 8.14821,0.0378 8.1445,0.03024 16.2793,0.03402 16.26882,0.0076 16.26142,-0.01134 16.25692,-0.03024 16.25544,-0.04157 32.51819,-0.09978 16.26871,-0.048 16.27907,-0.04044 16.29229,-0.02646 16.30855,-0.0076"
     id="path10"
     style="fill:none;stroke:#000000;stroke-width:3.69611"
     sodipodi:nodetypes="cccccccccccccccccccccccccccccccccccccccccccccccccccccccccccccccccccccccccccccccccccccccccccccccccccccccccccccccccccccccccccccccccccccccccccccccccccccccccccccccccccccccccccccccccccccccccccccccccccccccccccccccccccccccccccccccccccccccccccccccccccccccccccccccccccccccccccccccccccccccccccccccccccccccccccccccccccccccccccccccccccccccccccccccccccccccccccccccccccccccccccc" /><path
     d="m 64.354019,28.137246 -0.474637,0.01512 -0.472764,0.0446 -0.469025,0.07446 -0.463435,0.103559 -0.456015,0.132662 -0.446798,0.161007 -0.435815,0.188599 -0.423114,0.215433 -0.408741,0.241889 -0.392757,0.266835 -0.37522,0.291023 -0.356206,0.314079 -0.335784,0.335622 -0.314037,0.356031 -0.29105,0.375307 -0.266918,0.392769 -0.241727,0.408717 -0.215588,0.423118 -0.188595,0.435818 -0.160857,0.446815 -0.132483,0.456 -0.10359,0.463445 -0.07429,0.469002 -0.04469,0.472781 -0.01492,0.474368 0.01493,0.474633 0.04469,0.472781 0.07429,0.469001 0.103589,0.463446 0.132484,0.455999 0.160857,0.446816 0.188594,0.435817 0.215588,0.423118 0.241728,0.408718 0.266917,0.392768 0.29105,0.375307 0.314038,0.356032 0.335784,0.335622 0.356205,0.314078 0.375221,0.291024 0.392756,0.266834 0.408742,0.24189 0.423114,0.215433 0.435815,0.188598 0.446797,0.161008 0.456016,0.132661 0.463435,0.103559 0.469025,0.07446 0.472764,0.0446 0.474631,0.01485 0.474637,-0.01512 0.472764,-0.0446 0.469025,-0.07446 0.463435,-0.103559 0.456015,-0.132662 0.446798,-0.161007 0.435815,-0.188599 0.423114,-0.215433 0.408741,-0.241889 0.392757,-0.266835 0.37522,-0.291023 0.356206,-0.314079 0.335784,-0.335622 0.314037,-0.356031 0.29105,-0.375307 0.266918,-0.392769 0.241727,-0.408717 0.215588,-0.423118 0.188595,-0.435818 0.160857,-0.446815 0.132483,-0.456 0.10359,-0.463445 0.07429,-0.469002 0.04469,-0.472781 0.01492,-0.474368 -0.01493,-0.474633 -0.04469,-0.472781 -0.07429,-0.469001 -0.103589,-0.463446 -0.132484,-0.455999 -0.160857,-0.446816 -0.188594,-0.435817 -0.215588,-0.423118 -0.241728,-0.408718 -0.266917,-0.392768 -0.29105,-0.375307 -0.314038,-0.356032 -0.335784,-0.335622 -0.356205,-0.314078 -0.375221,-0.291024 -0.392756,-0.266834 -0.408742,-0.24189 -0.423114,-0.215433 -0.435815,-0.188598 -0.446797,-0.161008 -0.456016,-0.132661 -0.463435,-0.103559 -0.469025,-0.07446 -0.472764,-0.0446 -0.474631,-0.01485"
     id="path14"
     style="fill:none;stroke:#000000;stroke-width:3.69611" /><path
     d="m 64.354019,356.95601 -0.474637,0.0147 -0.472764,0.0447 -0.469025,0.0743 -0.463435,0.1036 -0.456015,0.13247 -0.446798,0.16086 -0.435815,0.18859 -0.423114,0.21559 -0.408741,0.24174 -0.392757,0.26691 -0.37522,0.29106 -0.356206,0.31404 -0.335784,0.33577 -0.314037,0.35622 -0.29105,0.37523 -0.266918,0.39276 -0.241727,0.40875 -0.215588,0.42311 -0.188595,0.43581 -0.160857,0.4468 -0.132483,0.45601 -0.10359,0.46344 -0.07429,0.46903 -0.04469,0.47276 -0.01492,0.47482 0.01493,0.47464 0.04469,0.47276 0.07429,0.46903 0.103589,0.46343 0.132484,0.45602 0.160857,0.44679 0.188594,0.43582 0.215588,0.42311 0.241728,0.40874 0.266917,0.39276 0.29105,0.37523 0.314038,0.35622 0.335784,0.33578 0.356205,0.31404 0.375221,0.29106 0.392756,0.26691 0.408742,0.24174 0.423114,0.21558 0.435815,0.1886 0.446797,0.16086 0.456016,0.13247 0.463435,0.10359 0.469025,0.0743 0.472764,0.0447 0.474631,0.0149 0.474637,-0.0147 0.472764,-0.0447 0.469025,-0.0743 0.463435,-0.1036 0.456015,-0.13247 0.446798,-0.16086 0.435815,-0.18859 0.423114,-0.21559 0.408741,-0.24174 0.392757,-0.26691 0.37522,-0.29106 0.356206,-0.31404 0.335784,-0.33577 0.314037,-0.35622 0.29105,-0.37523 0.266918,-0.39276 0.241727,-0.40875 0.215588,-0.42311 0.188595,-0.43581 0.160857,-0.4468 0.132483,-0.45601 0.10359,-0.46344 0.07429,-0.46903 0.04469,-0.47276 0.01492,-0.47482 -0.01493,-0.47464 -0.04469,-0.47276 -0.07429,-0.46903 -0.103589,-0.46343 -0.132484,-0.45602 -0.160857,-0.44679 -0.188594,-0.43582 -0.215588,-0.42311 -0.241728,-0.40874 -0.266917,-0.39276 -0.29105,-0.37523 -0.314038,-0.35622 -0.335784,-0.33578 -0.356205,-0.31404 -0.375221,-0.29106 -0.392756,-0.26691 -0.408742,-0.24174 -0.423114,-0.21558 -0.435815,-0.1886 -0.446797,-0.16086 -0.456016,-0.13247 -0.463435,-0.10359 -0.469025,-0.0743 -0.472764,-0.0447 -0.474631,-0.0149"
     id="path15"
     style="fill:none;stroke:#000000;stroke-width:3.69611" /><path
     d="m 64.354019,413.6489 -0.474637,0.0147 -0.472764,0.0447 -0.469025,0.0743 -0.463435,0.1036 -0.456015,0.13247 -0.446798,0.16086 -0.435815,0.18859 -0.423114,0.21559 -0.408741,0.24174 -0.392757,0.26691 -0.37522,0.29106 -0.356206,0.31404 -0.335784,0.33577 -0.314037,0.35622 -0.29105,0.37523 -0.266918,0.39276 -0.241727,0.40875 -0.215588,0.42311 -0.188595,0.43581 -0.160857,0.4468 -0.132483,0.45601 -0.10359,0.46344 -0.07429,0.46903 -0.04469,0.47276 -0.01492,0.47482 0.01493,0.47464 0.04469,0.47276 0.07429,0.46902 0.103589,0.46344 0.132484,0.45602 0.160857,0.44679 0.188594,0.43582 0.215588,0.42311 0.241728,0.40874 0.266917,0.39276 0.29105,0.37522 0.314038,0.35621 0.335784,0.33578 0.356205,0.31404 0.375221,0.29105 0.392756,0.26692 0.408742,0.24173 0.423114,0.21559 0.435815,0.18859 0.446797,0.16086 0.456016,0.13248 0.463435,0.10359 0.469025,0.0743 0.472764,0.0447 0.474631,0.0149 0.474637,-0.0149 0.472764,-0.0447 0.469025,-0.0743 0.463435,-0.10359 0.456015,-0.13249 0.446798,-0.16085 0.435815,-0.1886 0.423114,-0.21558 0.408741,-0.24173 0.392757,-0.26692 0.37522,-0.29105 0.356206,-0.31404 0.335784,-0.33578 0.314037,-0.35621 0.29105,-0.37522 0.266918,-0.39276 0.241727,-0.40874 0.215588,-0.42312 0.188595,-0.43581 0.160857,-0.4468 0.132483,-0.45601 0.10359,-0.46344 0.07429,-0.46902 0.0447,-0.47275 0.01492,-0.47464 -0.01493,-0.47464 -0.04469,-0.47276 -0.07429,-0.46903 -0.103589,-0.46343 -0.132484,-0.45602 -0.160857,-0.44679 -0.188594,-0.43582 -0.215588,-0.42311 -0.241728,-0.40874 -0.266917,-0.39276 -0.29105,-0.37523 -0.314038,-0.35622 -0.335784,-0.33578 -0.356205,-0.31404 -0.375221,-0.29106 -0.392756,-0.26691 -0.408742,-0.24174 -0.423114,-0.21558 -0.435815,-0.1886 -0.446797,-0.16086 -0.456016,-0.13247 -0.463435,-0.10359 -0.469025,-0.0743 -0.472764,-0.0447 -0.474631,-0.0149"
     id="path16"
     style="fill:none;stroke:#000000;stroke-width:3.69611" /><path
     d="m 574.59023,23.433071 -0.47463,0.01512 -0.47278,0.0446 -0.469,0.07446 -0.46345,0.103559 -0.456,0.132662 -0.44682,0.161007 -0.43581,0.188599 -0.42312,0.215433 -0.40872,0.241889 -0.39277,0.266835 -0.3753,0.291023 -0.35604,0.314079 -0.336,0.335622 -0.31407,0.356031 -0.29103,0.375307 -0.26683,0.392769 -0.24189,0.408717 -0.21544,0.423118 -0.18859,0.435818 -0.16101,0.446815 -0.13266,0.456 -0.10356,0.463445 -0.0745,0.469002 -0.0446,0.472781 -0.0145,0.474368 0.0151,0.474633 0.0446,0.472781 0.0745,0.469001 0.10356,0.463446 0.13266,0.455999 0.16101,0.446816 0.1886,0.435817 0.21543,0.423118 0.24189,0.408718 0.26683,0.392768 0.29103,0.375307 0.31408,0.356032 0.336,0.335622 0.35603,0.314078 0.3753,0.291024 0.39277,0.266834 0.40872,0.24189 0.42312,0.215433 0.43582,0.188598 0.44681,0.161008 0.456,0.132661 0.46345,0.103559 0.469,0.07446 0.47278,0.0446 0.47399,0.01485 0.47463,-0.01512 0.47279,-0.0446 0.469,-0.07446 0.46344,-0.103559 0.456,-0.132662 0.44682,-0.161007 0.43582,-0.188599 0.42311,-0.215433 0.40872,-0.241889 0.39277,-0.266835 0.37531,-0.291023 0.35603,-0.314079 0.336,-0.335622 0.31408,-0.356031 0.29102,-0.375307 0.26684,-0.392769 0.24189,-0.408717 0.21543,-0.423118 0.1886,-0.435818 0.16101,-0.446815 0.13266,-0.456 0.10356,-0.463445 0.0744,-0.469002 0.0446,-0.472781 0.0145,-0.474368 -0.0151,-0.474633 -0.0446,-0.472781 -0.0745,-0.469001 -0.10356,-0.463446 -0.13266,-0.455999 -0.16101,-0.446816 -0.18859,-0.435817 -0.21544,-0.423118 -0.24189,-0.408718 -0.26683,-0.392768 -0.29102,-0.375307 -0.31408,-0.356032 -0.336,-0.335622 -0.35603,-0.314078 -0.37531,-0.291024 -0.39277,-0.266834 -0.40872,-0.24189 -0.42312,-0.215433 -0.43581,-0.188598 -0.44682,-0.161008 -0.456,-0.132661 -0.46345,-0.103559 -0.469,-0.07446 -0.47278,-0.0446 -0.47399,-0.01485"
     id="path17"
     style="fill:none;stroke:#000000;stroke-width:3.69611" /><path
     d="m 631.28314,23.433071 -0.47463,0.01512 -0.47278,0.0446 -0.469,0.07446 -0.46345,0.103559 -0.456,0.132662 -0.44681,0.161007 -0.43582,0.188599 -0.42312,0.215433 -0.40872,0.241889 -0.39277,0.266835 -0.3753,0.291023 -0.35603,0.314079 -0.336,0.335622 -0.31408,0.356031 -0.29103,0.375307 -0.26683,0.392769 -0.24189,0.408717 -0.21543,0.423118 -0.1886,0.435818 -0.16101,0.446815 -0.13266,0.456 -0.10356,0.463445 -0.0745,0.469002 -0.0446,0.472781 -0.0145,0.474368 0.0151,0.474633 0.0446,0.472781 0.0744,0.469001 0.10356,0.463446 0.13266,0.455999 0.16101,0.446816 0.1886,0.435817 0.21543,0.423118 0.24189,0.408718 0.26684,0.392768 0.29102,0.375307 0.31408,0.356032 0.336,0.335622 0.35603,0.314078 0.37531,0.291024 0.39277,0.266834 0.40871,0.24189 0.42312,0.215433 0.43582,0.188598 0.44682,0.161008 0.456,0.132661 0.46344,0.103559 0.469,0.07446 0.47278,0.0446 0.47399,0.01485 0.47464,-0.01512 0.47278,-0.0446 0.469,-0.07446 0.46345,-0.103559 0.456,-0.132662 0.44681,-0.161007 0.43582,-0.188599 0.42312,-0.215433 0.40871,-0.241889 0.39277,-0.266835 0.37531,-0.291023 0.35603,-0.314079 0.336,-0.335622 0.31408,-0.356031 0.29102,-0.375307 0.26684,-0.392769 0.24189,-0.408717 0.21543,-0.423118 0.1886,-0.435818 0.16101,-0.446815 0.13266,-0.456 0.10356,-0.463445 0.0745,-0.469002 0.0446,-0.472781 0.0145,-0.474368 -0.0151,-0.474633 -0.0446,-0.472781 -0.0744,-0.469001 -0.10356,-0.463446 -0.13266,-0.455999 -0.16101,-0.446816 -0.1886,-0.435817 -0.21543,-0.423118 -0.24189,-0.408718 -0.26684,-0.392768 -0.29102,-0.375307 -0.31408,-0.356032 -0.336,-0.335622 -0.35603,-0.314078 -0.37531,-0.291024 -0.39277,-0.266834 -0.40872,-0.24189 -0.42311,-0.215433 -0.43582,-0.188598 -0.44682,-0.161008 -0.456,-0.132661 -0.46344,-0.103559 -0.469,-0.07446 -0.47279,-0.0446 -0.47399,-0.01485"
     id="path18"
     style="fill:none;stroke:#000000;stroke-width:3.69611" /><path
     d="m 46.198675,458.59832 c 0.245612,21.18843 0.405958,42.78221 0.409607,63.9698 l 0.01056,2.18823 0.01857,2.19736 0.0275,2.20658 0.03736,2.2159 0.04818,2.22531 0.0599,2.23393 0.07138,2.22907 0.08151,2.2195 0.09031,2.20978 0.09781,2.19993 0.21295,4.3697 0.227685,4.32841 0.460588,8.52723 0.214092,4.19554 0.191208,4.14775 0.0843,2.05533 0.07534,2.04263 0.06534,2.02967 0.05433,2.01644 0.04232,2.00294 0.02935,1.98918 0.0154,1.97514 5.3e-4,1.96085 -0.01526,1.9463 -0.03191,1.9315 -0.04944,1.91646 -0.06781,1.90121 -0.087,1.88576 -0.106987,1.87012 -0.127758,1.85432 -0.14929,1.83841 -0.171569,1.8224 -0.194577,1.80633 -0.218304,1.79026 -0.242731,1.77421 -0.267863,1.75827 -0.294859,1.75042 -0.324032,1.75795 -0.352593,1.76608 -0.380449,1.77444 -0.407566,1.78294 -0.433914,1.7916 -0.45946,1.80035 -0.484177,1.80918 -0.508031,1.81806 -0.530997,1.827 -0.553042,1.83596 -0.574144,1.84496 -0.594271,1.85397 -0.613399,1.863 -0.631503,1.87207 -0.648559,1.88116 -0.664541,1.89028 -0.679428,1.89947 -0.693198,1.9087 -0.705832,1.91802 -0.717306,1.92742 -1.464314,3.88349 -3.013434,7.8856 -1.52873,4.0038 -1.524672,4.02697 -1.514069,4.045 -1.499772,4.06445 -1.481733,4.08533 -0.732926,2.05095 -0.726991,2.05671 -0.720578,2.06265 -0.713684,2.06878 -0.7063,2.0751 -0.698423,2.08158 -0.690054,2.08827 -0.681185,2.09512 -0.671815,2.10217 -0.661937,2.10939 -0.651558,2.11679 -0.640657,2.12437 -0.629243,2.13213 -0.617308,2.14006 -0.60485,2.14817 -0.591863,2.15643 -0.578346,2.16487 -0.564295,2.17347 -0.549702,2.18222 -0.534574,2.19114 -0.518901,2.20018 -0.5026762,2.20939 -0.4859073,2.21873 -0.4685801,2.22819 -0.4507014,2.23779 -0.4322679,2.2475 -0.4132722,2.25733 -0.3937217,2.26726 -0.373602,2.27729 -0.3529131,2.28741 -0.3316764,2.29761 -0.3098705,2.30789 -0.2875312,2.31823 -0.264587,2.32864 -0.2411093,2.33908 -0.2170623,2.34959 -0.1924463,2.36011 -0.1672611,2.37067 -0.1415423,2.38124 -0.11529,2.39181 -0.088504,2.4024 -0.061149,2.41297 -0.033438,2.42354 -0.00605,1.21572 0.00115,1.21835 0.00854,1.22098 0.015652,1.22361 0.023122,1.22622 0.030592,1.22883 0.037956,1.23142 0.045461,1.2333 0.052932,1.23479 0.060402,1.23619 0.067872,1.23747 0.075342,1.23863 0.082812,1.23968 0.090247,1.24062 0.097682,1.24144 0.1051162,1.24216 0.1125509,1.24275 0.1199854,1.24322 0.1273846,1.2436 0.1348191,1.24385 0.1422538,1.24398 0.1496527,1.24399 0.1570875,1.2439 0.164522,1.24368 0.1719211,1.24335 0.1793557,1.24291 0.1867903,1.24233 0.1942249,1.24165 0.2016951,1.24085 0.2091298,1.23992 0.2165999,1.23889 0.2240701,1.23773 0.2315403,1.23645 0.2390461,1.23506 0.2465162,1.23354 0.2540576,1.2319 0.2615633,1.23016 0.2691047,1.22828 0.2766816,1.22628 0.2842229,1.22418 0.2918354,1.22194 0.2994481,1.21959 0.30706,1.21712 0.314708,1.21452 0.322357,1.21182 0.330075,1.20898 0.33776,1.20603 0.345514,1.20295 0.353269,1.19977 0.361059,1.19646 0.368874,1.19297 0.376722,1.18947 0.384597,1.18579 0.392502,1.18194 0.400448,1.17809 0.40842,1.174 0.416431,1.16981 0.424481,1.16557 0.432571,1.16112 0.440702,1.15662 0.448869,1.15193 0.45709,1.14713 0.46535,1.14225 0.47366,1.1372 0.48202,1.13201 0.490432,1.12672 0.498898,1.12132 0.507418,1.11572 0.515995,1.11005 0.524635,1.10424 0.533332,1.09826 0.542097,1.09217 0.550927,1.08594 0.559819,1.07959 0.568791,1.07306 0.577827,1.06636 0.586939,1.05959 0.596129,1.05261 0.605398,1.0455 0.614743,1.03824 0.62417,1.03083 0.633686,1.02324 0.643284,1.01549 0.652968,1.00755 0.662742,0.9995 0.672607,0.99123 0.682562,0.98276 0.692611,0.97414 0.702752,0.96533 0.712988,0.9563 0.723319,0.94712 0.733745,0.93767 0.744266,0.92803 0.754882,0.9182 0.765593,0.90812 0.776397,0.89783 0.787293,0.88725 0.798282,0.87651 0.809358,0.86544 0.820521,0.85418 0.831769,0.84258 0.843096,0.83074 0.853627,0.81778 0.86218,0.80297 0.870487,0.78803 0.878609,0.77307 0.886543,0.75814 0.894285,0.74321 0.901834,0.72825 0.909187,0.71331 0.916343,0.69842 0.923302,0.68357 0.930063,0.66876 0.936626,0.65393 0.942995,0.63924 0.949167,0.62457 0.955148,0.61002 0.960937,0.59547 0.966539,0.58106 0.971957,0.56671 0.977192,0.55249 0.98225,0.53836 0.987134,0.52438 0.991847,0.51043 0.996396,0.49667 1.000783,0.48302 1.005014,0.46954 1.009093,0.45611 1.013024,0.44289 1.016814,0.42981 1.020467,0.41685 1.023987,0.40403 1.02738,0.39141 1.03065,0.3789 1.033803,0.36662 1.036843,0.35452 1.039776,0.34242 1.042606,0.33034 1.045336,0.31899 1.047973,0.30728 1.05052,0.29594 1.052981,0.2846 1.055362,0.27364 1.057666,0.26268 1.059894,0.25209 1.062055,0.24151 1.064149,0.23093 1.066179,0.22111 1.068151,0.2109 1.070066,0.20107 1.071928,0.19124 1.073738,0.18142 1.0755,0.17197 1.077217,0.1629 1.07889,0.15383 1.080521,0.14475 1.082114,0.13569 1.083668,0.12699 1.085185,0.11868 1.08667,0.11036 1.08812,0.10205 1.08955,0.0937 1.09093,0.0858 1.0923,0.0782 1.09362,0.0703 1.09493,0.0627 2.19367,0.10318 2.19857,0.0745 2.20328,0.0469 2.20779,0.0189 2.21212,-0.004 2.21625,-0.0302 2.22021,-0.054 2.22396,-0.0771 2.22753,-0.099 2.23091,-0.12019 2.2341,-0.1406 2.23708,-0.15987 2.23986,-0.1784 2.24243,-0.19616 2.24479,-0.21316 2.24694,-0.22942 2.24885,-0.24492 2.25054,-0.25927 2.25199,-0.27289 2.25321,-0.28611 2.25416,-0.29858 2.25487,-0.30993 2.25531,-0.3205 2.25547,-0.33071 2.25537,-0.34016 2.25496,-0.34848 4.50757,-0.72 4.50235,-0.74567 4.4946,-0.76566 4.48424,-0.78002 4.47119,-0.78879 8.89194,-1.58175 4.41481,-0.78206 4.38991,-0.76899 4.36181,-0.7505 4.33038,-0.7267 4.29554,-0.69763 2.13361,-0.33638 2.12357,-0.32693 2.11307,-0.3171 2.10211,-0.3069 2.09067,-0.29556 2.07877,-0.28384 2.06636,-0.27138 2.05348,-0.25852 2.04008,-0.24491 2.0262,-0.23093 2.01178,-0.21619 1.99698,-0.2007 1.9873,-0.18557 1.98074,-0.17122 1.97457,-0.15723 1.96873,-0.14362 1.96325,-0.13039 1.95811,-0.11755 1.95332,-0.10507 1.94886,-0.093 1.94477,-0.0813 1.94098,-0.0703 1.93754,-0.0593 1.93444,-0.0488 1.93165,-0.0389 1.92919,-0.0302 1.92706,-0.0189 1.92524,-0.0113 1.92374,-0.003 1.92256,0.004 3.84277,0.034 3.84168,0.0593 3.84298,0.0828 3.84662,0.10318 3.85253,0.11981 3.86069,0.13342 7.75455,0.29291 7.81288,0.30426 c 117.00819,2.56763 229.38337,6.61334 346.43579,6.80662"
     id="path13-9"
     style="fill:none;stroke:#000000;stroke-width:3.80985"
     sodipodi:nodetypes="ccccccccccccccccccccccccccccccccccccccccccccccccccccccccccccccccccccccccccccccccccccccccccccccccccccccccccccccccccccccccccccccccccccccccccccccccccccccccccccccccccccccccccccccccccccccccccccccccccccccccccccccccccccccccccccccccccccccccccccccccccccccccccccccccccccccccccccccccccccccccccccccccccccccccccccccccccccccccccccccccccccccccccccccccccccccccccccccc" /><path
     d="m 64.569278,504.35931 0.446721,-0.0147 0.444958,-0.0447 0.441439,-0.0743 0.436178,-0.1036 0.429195,-0.13248 0.420519,-0.16085 0.410182,-0.1886 0.398228,-0.21559 0.384702,-0.24174 0.369656,-0.26691 0.353152,-0.29106 0.335255,-0.31405 0.316035,-0.33577 0.295567,-0.35622 0.273932,-0.37524 0.251219,-0.39276 0.22751,-0.40874 0.202908,-0.42312 0.177502,-0.43582 0.151396,-0.4468 0.124692,-0.45601 0.0975,-0.46344 0.06992,-0.46903 0.04206,-0.47277 0.01405,-0.47482 -0.01405,-0.47464 -0.04206,-0.47277 -0.06992,-0.46902 -0.0975,-0.46344 -0.124691,-0.45602 -0.151396,-0.4468 -0.177503,-0.43582 -0.202908,-0.42311 -0.22751,-0.40875 -0.251219,-0.39276 -0.273931,-0.37522 -0.295567,-0.35621 -0.316036,-0.33579 -0.335255,-0.31404 -0.353151,-0.29105 -0.369657,-0.26692 -0.384701,-0.24173 -0.398228,-0.21559 -0.410183,-0.18859 -0.420518,-0.16086 -0.429196,-0.13249 -0.436177,-0.10359 -0.441439,-0.0743 -0.444958,-0.0447 -0.446716,-0.0149 -0.446721,0.0149 -0.444958,0.0447 -0.441439,0.0743 -0.436178,0.10359 -0.429195,0.13248 -0.420519,0.16086 -0.410182,0.1886 -0.398228,0.21558 -0.384702,0.24173 -0.369656,0.26692 -0.353152,0.29106 -0.335255,0.31404 -0.316035,0.33578 -0.295567,0.35621 -0.273932,0.37523 -0.251219,0.39276 -0.22751,0.40874 -0.202908,0.42312 -0.177502,0.43581 -0.151396,0.4468 -0.124692,0.45602 -0.0975,0.46344 -0.06992,0.46903 -0.04207,0.47275 -0.01404,0.47464 0.01405,0.47464 0.04206,0.47276 0.06992,0.46904 0.0975,0.46343 0.124691,0.45602 0.151396,0.4468 0.177503,0.43582 0.202908,0.42311 0.22751,0.40875 0.251219,0.39276 0.273931,0.37523 0.295567,0.35622 0.316036,0.33578 0.335255,0.31404 0.353151,0.29107 0.369657,0.26691 0.384701,0.24174 0.398228,0.21558 0.410183,0.1886 0.420518,0.16086 0.429196,0.13247 0.436177,0.1036 0.441439,0.0743 0.444958,0.0447 0.446716,0.0149"
     id="path14-3"
     style="fill:none;stroke:#000000;stroke-width:3.80985" /><path
     d="m 64.569278,561.05254 0.446721,-0.0147 0.444958,-0.0447 0.441439,-0.0743 0.436178,-0.1036 0.429195,-0.13247 0.420519,-0.16086 0.410182,-0.1886 0.398228,-0.21558 0.384702,-0.24174 0.369656,-0.26691 0.353152,-0.29107 0.335255,-0.31404 0.316035,-0.33578 0.295567,-0.35622 0.273932,-0.37523 0.251219,-0.39276 0.22751,-0.40875 0.202908,-0.42311 0.177502,-0.43582 0.151396,-0.4468 0.124692,-0.45602 0.0975,-0.46343 0.06992,-0.46904 0.04206,-0.47276 0.01405,-0.47482 -0.01405,-0.47464 -0.04206,-0.47277 -0.06992,-0.46903 -0.0975,-0.46344 -0.124691,-0.45601 -0.151396,-0.4468 -0.177503,-0.43582 -0.202908,-0.42312 -0.22751,-0.40874 -0.251219,-0.39276 -0.273931,-0.37524 -0.295567,-0.35622 -0.316036,-0.33577 -0.335255,-0.31405 -0.353151,-0.29106 -0.369657,-0.26691 -0.384701,-0.24174 -0.398228,-0.21559 -0.410183,-0.1886 -0.420518,-0.16085 -0.429196,-0.13248 -0.436177,-0.1036 -0.441439,-0.0743 -0.444958,-0.0447 -0.446716,-0.0149 -0.446721,0.0147 -0.444958,0.0447 -0.441439,0.0743 -0.436178,0.1036 -0.429195,0.13247 -0.420519,0.16086 -0.410182,0.1886 -0.398228,0.21558 -0.384702,0.24174 -0.369656,0.26691 -0.353152,0.29107 -0.335255,0.31404 -0.316035,0.33578 -0.295567,0.35622 -0.273932,0.37523 -0.251219,0.39276 -0.22751,0.40875 -0.202908,0.42311 -0.177502,0.43582 -0.151396,0.4468 -0.124692,0.45602 -0.0975,0.46343 -0.06992,0.46904 -0.04206,0.47276 -0.01405,0.47483 0.01405,0.47463 0.04206,0.47277 0.06992,0.46903 0.0975,0.46344 0.124691,0.45601 0.151396,0.4468 0.177503,0.43582 0.202908,0.42312 0.22751,0.40874 0.251219,0.39276 0.273931,0.37524 0.295567,0.35622 0.316036,0.33577 0.335255,0.31405 0.353151,0.29106 0.369657,0.26691 0.384701,0.24174 0.398228,0.21559 0.410183,0.1886 0.420518,0.16085 0.429196,0.13248 0.436177,0.1036 0.441439,0.0743 0.444958,0.0447 0.446716,0.0149"
     id="path15-1"
     style="fill:none;stroke:#000000;stroke-width:3.80985" /><path
     d="m 64.569278,889.87331 0.446721,-0.0151 0.444958,-0.0446 0.441439,-0.0745 0.436178,-0.10356 0.429195,-0.13266 0.420519,-0.16101 0.410182,-0.1886 0.398228,-0.21543 0.384702,-0.24189 0.369656,-0.26684 0.353152,-0.29102 0.335255,-0.31409 0.316035,-0.33562 0.295567,-0.35603 0.273932,-0.37531 0.251219,-0.39277 0.22751,-0.40872 0.202908,-0.42312 0.177502,-0.43582 0.151396,-0.44682 0.124692,-0.456 0.0975,-0.46345 0.06992,-0.46901 0.04206,-0.47278 0.01405,-0.47437 -0.01405,-0.47464 -0.04206,-0.47278 -0.06992,-0.46901 -0.0975,-0.46344 -0.124691,-0.45601 -0.151396,-0.44681 -0.177503,-0.43582 -0.202908,-0.42313 -0.22751,-0.40872 -0.251219,-0.39277 -0.273931,-0.37531 -0.295567,-0.35603 -0.316036,-0.33562 -0.335255,-0.31408 -0.353151,-0.29103 -0.369657,-0.26684 -0.384701,-0.24189 -0.398228,-0.21543 -0.410183,-0.1886 -0.420518,-0.16101 -0.429196,-0.13266 -0.436177,-0.10356 -0.441439,-0.0745 -0.444958,-0.0446 -0.446716,-0.0149 -0.446721,0.0151 -0.444958,0.0446 -0.441439,0.0744 -0.436178,0.10356 -0.429195,0.13267 -0.420519,0.161 -0.410182,0.1886 -0.398228,0.21544 -0.384702,0.24189 -0.369656,0.26684 -0.353152,0.29102 -0.335255,0.31408 -0.316035,0.33563 -0.295567,0.35603 -0.273932,0.37531 -0.251219,0.39277 -0.22751,0.40872 -0.202908,0.42312 -0.177502,0.43582 -0.151396,0.44682 -0.124692,0.456 -0.0975,0.46345 -0.06992,0.469 -0.04206,0.47279 -0.01405,0.47437 0.01405,0.47463 0.04206,0.47279 0.06992,0.469 0.0975,0.46345 0.124691,0.456 0.151396,0.44682 0.177503,0.43582 0.202908,0.42312 0.22751,0.40872 0.251219,0.39277 0.273931,0.37531 0.295567,0.35604 0.316036,0.33562 0.335255,0.31408 0.353151,0.29102 0.369657,0.26684 0.384701,0.24189 0.398228,0.21544 0.410183,0.1886 0.420518,0.161 0.429196,0.13267 0.436177,0.10356 0.441439,0.0744 0.444958,0.0446 0.446716,0.0149"
     id="path16-9"
     style="fill:none;stroke:#000000;stroke-width:3.80985" /><path
     d="m 637.28381,895.74843 0.44671,-0.0151 0.44498,-0.0446 0.44142,-0.0745 0.43618,-0.10356 0.42918,-0.13266 0.42054,-0.16101 0.41018,-0.1886 0.39824,-0.21543 0.38468,-0.24189 0.36966,-0.26684 0.35324,-0.29102 0.33509,-0.31409 0.31624,-0.33562 0.2956,-0.35603 0.27391,-0.37531 0.25114,-0.39277 0.22766,-0.40872 0.20277,-0.42312 0.1775,-0.43582 0.15154,-0.44682 0.12486,-0.456 0.0975,-0.46345 0.0701,-0.46901 0.042,-0.47278 0.0136,-0.47437 -0.0142,-0.47464 -0.042,-0.47278 -0.0701,-0.46901 -0.0975,-0.46344 -0.12486,-0.45601 -0.15153,-0.44681 -0.17751,-0.43582 -0.20276,-0.42313 -0.22766,-0.40872 -0.25115,-0.39277 -0.2739,-0.37531 -0.29561,-0.35603 -0.31624,-0.33562 -0.33509,-0.31408 -0.35323,-0.29103 -0.36967,-0.26684 -0.38468,-0.24189 -0.39823,-0.21543 -0.41018,-0.1886 -0.42054,-0.16101 -0.42918,-0.13266 -0.43619,-0.10356 -0.44142,-0.0745 -0.44497,-0.0446 -0.44672,-0.0151 -0.44671,0.0151 -0.44498,0.0446 -0.44142,0.0745 -0.43618,0.10356 -0.42918,0.13266 -0.42054,0.16101 -0.41019,0.1886 -0.39823,0.21543 -0.38468,0.24189 -0.36966,0.26684 -0.35324,0.29103 -0.33509,0.31408 -0.31624,0.33562 -0.2956,0.35603 -0.27391,0.37531 -0.25114,0.39277 -0.22766,0.40872 -0.20277,0.42313 -0.1775,0.43582 -0.15154,0.44681 -0.12486,0.45601 -0.0975,0.46344 -0.0701,0.46901 -0.042,0.47278 -0.013,0.47464 0.0142,0.47463 0.042,0.47279 0.0701,0.469 0.0975,0.46345 0.12486,0.456 0.15154,0.44682 0.1775,0.43582 0.20277,0.42312 0.22766,0.40872 0.25114,0.39277 0.27391,0.37531 0.2956,0.35604 0.31624,0.33562 0.33509,0.31408 0.35324,0.29102 0.36966,0.26684 0.38468,0.24189 0.39823,0.21544 0.41019,0.1886 0.42054,0.161 0.42918,0.13267 0.43618,0.10356 0.44142,0.0744 0.44497,0.0446 0.44612,0.0149"
     id="path17-4"
     style="fill:none;stroke:#000000;stroke-width:3.80985" /><path
     d="m 583.92531,895.74843 0.44672,-0.0151 0.44497,-0.0446 0.44142,-0.0745 0.43619,-0.10356 0.42918,-0.13266 0.42053,-0.16101 0.41019,-0.1886 0.39823,-0.21543 0.38468,-0.24189 0.36967,-0.26684 0.35323,-0.29102 0.33509,-0.31409 0.31624,-0.33562 0.29561,-0.35603 0.2739,-0.37531 0.25114,-0.39277 0.22767,-0.40872 0.20276,-0.42312 0.1775,-0.43582 0.15154,-0.44682 0.12486,-0.456 0.0975,-0.46345 0.0701,-0.46901 0.042,-0.47278 0.0136,-0.47437 -0.0142,-0.47464 -0.042,-0.47278 -0.0701,-0.46901 -0.0975,-0.46344 -0.12486,-0.45601 -0.15154,-0.44681 -0.17751,-0.43582 -0.20276,-0.42313 -0.22766,-0.40872 -0.25114,-0.39277 -0.27391,-0.37531 -0.2956,-0.35603 -0.31624,-0.33562 -0.33509,-0.31408 -0.35324,-0.29103 -0.36967,-0.26684 -0.38467,-0.24189 -0.39824,-0.21543 -0.41018,-0.1886 -0.42054,-0.16101 -0.42918,-0.13266 -0.43619,-0.10356 -0.44141,-0.0745 -0.44498,-0.0446 -0.44671,-0.0151 -0.44672,0.0151 -0.44498,0.0446 -0.44141,0.0745 -0.43619,0.10356 -0.42918,0.13266 -0.42054,0.16101 -0.41018,0.1886 -0.39823,0.21543 -0.38468,0.24189 -0.36967,0.26684 -0.35323,0.29103 -0.3351,0.31408 -0.31623,0.33562 -0.29561,0.35603 -0.27391,0.37531 -0.25114,0.39277 -0.22766,0.40872 -0.20276,0.42313 -0.17751,0.43582 -0.15154,0.44681 -0.12486,0.45601 -0.0975,0.46344 -0.0701,0.46901 -0.042,0.47278 -0.013,0.47464 0.0142,0.47463 0.042,0.47279 0.0701,0.469 0.0975,0.46345 0.12486,0.456 0.15154,0.44682 0.17751,0.43582 0.20276,0.42312 0.22766,0.40872 0.25114,0.39277 0.27391,0.37531 0.29561,0.35604 0.31623,0.33562 0.3351,0.31408 0.35323,0.29102 0.36967,0.26684 0.38468,0.24189 0.39823,0.21544 0.41018,0.1886 0.42054,0.161 0.42918,0.13267 0.43619,0.10356 0.44141,0.0744 0.44498,0.0446 0.44611,0.0149"
     id="path18-7"
     style="fill:none;stroke:#000000;stroke-width:3.80985" /><path
     d="m 1237.9445,899.36501 0.4746,-0.0151 0.4728,-0.0446 0.469,-0.0745 0.4635,-0.10356 0.456,-0.13266 0.4468,-0.16101 0.4358,-0.1886 0.4231,-0.21543 0.4088,-0.2419 0.3927,-0.26683 0.3752,-0.29102 0.3563,-0.31408 0.3357,-0.33563 0.3141,-0.35603 0.291,-0.37531 0.2669,-0.39277 0.2418,-0.40872 0.2156,-0.42312 0.1886,-0.43581 0.1608,-0.44682 0.1325,-0.456 0.1036,-0.46345 0.074,-0.469 0.045,-0.47278 0.015,-0.47437 -0.015,-0.47464 -0.045,-0.47278 -0.074,-0.469 -0.1036,-0.46345 -0.1325,-0.456 -0.1608,-0.44682 -0.1886,-0.43582 -0.2156,-0.42312 -0.2418,-0.40871 -0.2669,-0.39277 -0.291,-0.37531 -0.3141,-0.35603 -0.3358,-0.33563 -0.3562,-0.31408 -0.3752,-0.29102 -0.3927,-0.26684 -0.4088,-0.24189 -0.4231,-0.21543 -0.4358,-0.1886 -0.4468,-0.16101 -0.456,-0.13266 -0.4635,-0.10356 -0.469,-0.0745 -0.4728,-0.0446 -0.4746,-0.0149 -0.4746,0.0151 -0.4728,0.0446 -0.469,0.0745 -0.4635,0.10355 -0.456,0.13267 -0.4468,0.161 -0.4358,0.1886 -0.4231,0.21544 -0.4088,0.24189 -0.3927,0.26683 -0.3752,0.29103 -0.3563,0.31408 -0.3357,0.33562 -0.3141,0.35603 -0.291,0.37531 -0.2669,0.39277 -0.2418,0.40872 -0.2156,0.42312 -0.1886,0.43582 -0.1608,0.44681 -0.1325,0.456 -0.1036,0.46345 -0.074,0.469 -0.045,0.47279 -0.015,0.47437 0.015,0.47463 0.045,0.47278 0.074,0.46901 0.1036,0.46344 0.1325,0.456 0.1608,0.44682 0.1886,0.43582 0.2156,0.42312 0.2418,0.40872 0.2669,0.39277 0.291,0.3753 0.3141,0.35604 0.3358,0.33562 0.3562,0.31408 0.3752,0.29102 0.3927,0.26684 0.4088,0.24189 0.4231,0.21543 0.4358,0.1886 0.4468,0.16101 0.456,0.13266 0.4635,0.10356 0.469,0.0745 0.4728,0.0446 0.4746,0.0149"
     id="path14-9"
     style="fill:none;stroke:#000000;stroke-width:3.53895" /><path
     d="m 1237.9445,580.15757 0.4746,-0.0147 0.4728,-0.0447 0.469,-0.0743 0.4635,-0.10359 0.456,-0.13248 0.4468,-0.16085 0.4358,-0.1886 0.4231,-0.21559 0.4088,-0.24174 0.3927,-0.26691 0.3752,-0.29106 0.3563,-0.31404 0.3357,-0.33578 0.3141,-0.35622 0.291,-0.37523 0.2669,-0.39276 0.2418,-0.40874 0.2156,-0.42312 0.1886,-0.43581 0.1608,-0.4468 0.1325,-0.45602 0.1036,-0.46343 0.074,-0.46903 0.045,-0.47277 0.015,-0.47482 -0.015,-0.47464 -0.045,-0.47276 -0.074,-0.46903 -0.1036,-0.46344 -0.1325,-0.45601 -0.1608,-0.4468 -0.1886,-0.43582 -0.2156,-0.42311 -0.2418,-0.40875 -0.2669,-0.39275 -0.291,-0.37524 -0.3141,-0.35622 -0.3358,-0.33577 -0.3562,-0.31404 -0.3752,-0.29107 -0.3927,-0.26691 -0.4088,-0.24174 -0.4231,-0.21558 -0.4358,-0.1886 -0.4468,-0.16086 -0.456,-0.13247 -0.4635,-0.1036 -0.469,-0.0743 -0.4728,-0.0447 -0.4746,-0.0149 -0.4746,0.0147 -0.4728,0.0447 -0.469,0.0743 -0.4635,0.10359 -0.456,0.13248 -0.4468,0.16085 -0.4358,0.1886 -0.4231,0.21559 -0.4088,0.24174 -0.3927,0.26691 -0.3752,0.29106 -0.3563,0.31404 -0.3357,0.33578 -0.3141,0.35622 -0.291,0.37523 -0.2669,0.39276 -0.2418,0.40874 -0.2156,0.42312 -0.1886,0.43581 -0.1608,0.4468 -0.1325,0.45602 -0.1036,0.46343 -0.074,0.46903 -0.045,0.47277 -0.015,0.47482 0.015,0.47464 0.045,0.47276 0.074,0.46903 0.1036,0.46344 0.1325,0.45601 0.1608,0.4468 0.1886,0.43582 0.2156,0.42311 0.2418,0.40875 0.2669,0.39275 0.291,0.37524 0.3141,0.35622 0.3358,0.33577 0.3562,0.31404 0.3752,0.29107 0.3927,0.26691 0.4088,0.24174 0.4231,0.21558 0.4358,0.1886 0.4468,0.16086 0.456,0.13247 0.4635,0.1036 0.469,0.0743 0.4728,0.0447 0.4746,0.0149"
     id="path15-3"
     style="fill:none;stroke:#000000;stroke-width:3.53895" /><path
     d="m 1237.9445,519.6851 0.4746,-0.0147 0.4728,-0.0447 0.469,-0.0743 0.4635,-0.10359 0.456,-0.13248 0.4468,-0.16085 0.4358,-0.1886 0.4231,-0.21559 0.4088,-0.24174 0.3927,-0.26691 0.3752,-0.29106 0.3563,-0.31404 0.3357,-0.33577 0.3141,-0.35623 0.291,-0.37523 0.2669,-0.39276 0.2418,-0.40874 0.2156,-0.42311 0.1886,-0.43582 0.1608,-0.4468 0.1325,-0.45602 0.1036,-0.46343 0.074,-0.46903 0.045,-0.47276 0.015,-0.47483 -0.015,-0.47464 -0.045,-0.47276 -0.074,-0.46903 -0.1036,-0.46343 -0.1325,-0.45602 -0.1608,-0.4468 -0.1886,-0.43582 -0.2156,-0.42311 -0.2418,-0.40874 -0.2669,-0.39276 -0.291,-0.37523 -0.3141,-0.3562 -0.3358,-0.33579 -0.3562,-0.31403 -0.3752,-0.29106 -0.3927,-0.26692 -0.4088,-0.24173 -0.4231,-0.21558 -0.4358,-0.1886 -0.4468,-0.16086 -0.456,-0.13248 -0.4635,-0.10359 -0.469,-0.0743 -0.4728,-0.0447 -0.4746,-0.0149 -0.4746,0.0149 -0.4728,0.0447 -0.469,0.0743 -0.4635,0.10359 -0.456,0.13249 -0.4468,0.16085 -0.4358,0.1886 -0.4231,0.21559 -0.4088,0.24173 -0.3927,0.26691 -0.3752,0.29106 -0.3563,0.31404 -0.3357,0.33578 -0.3141,0.35621 -0.291,0.37522 -0.2669,0.39276 -0.2418,0.40874 -0.2156,0.42312 -0.1886,0.43581 -0.1608,0.4468 -0.1325,0.45602 -0.1036,0.46344 -0.074,0.46902 -0.045,0.47275 -0.015,0.47464 0.015,0.47464 0.045,0.47276 0.074,0.46903 0.1036,0.46344 0.1325,0.45601 0.1608,0.4468 0.1886,0.43582 0.2156,0.42311 0.2418,0.40875 0.2669,0.39276 0.291,0.37523 0.3141,0.35622 0.3358,0.33577 0.3562,0.31405 0.3752,0.29106 0.3927,0.26691 0.4088,0.24174 0.4231,0.21558 0.4358,0.1886 0.4468,0.16086 0.456,0.13247 0.4635,0.1036 0.469,0.0743 0.4728,0.0447 0.4746,0.0149"
     id="path16-7"
     style="fill:none;stroke:#000000;stroke-width:3.53895" /><path
     d="m 756.05237,893.85889 0.47464,-0.0151 0.47278,-0.0446 0.469,-0.0745 0.46345,-0.10356 0.45601,-0.13266 0.44681,-0.16101 0.43582,-0.1886 0.42312,-0.21543 0.40872,-0.2419 0.39277,-0.26683 0.37531,-0.29102 0.35604,-0.31408 0.33562,-0.33563 0.31408,-0.35603 0.29102,-0.37531 0.26684,-0.39277 0.24189,-0.40872 0.21544,-0.42312 0.18859,-0.43581 0.16101,-0.44682 0.13267,-0.456 0.10356,-0.46345 0.0744,-0.469 0.0446,-0.47278 0.0151,-0.47464 -0.0151,-0.47463 -0.0446,-0.47278 -0.0744,-0.46901 -0.10356,-0.46344 -0.13267,-0.45601 -0.16101,-0.44681 -0.18859,-0.43582 -0.21544,-0.42312 -0.24189,-0.40872 -0.26684,-0.39277 -0.29102,-0.37531 -0.31408,-0.35603 -0.33562,-0.33562 -0.35604,-0.31408 -0.37531,-0.29103 -0.39277,-0.26683 -0.40872,-0.24189 -0.42312,-0.21544 -0.43582,-0.18859 -0.44681,-0.16101 -0.45601,-0.13266 -0.46345,-0.10356 -0.469,-0.0745 -0.47278,-0.0446 -0.47464,-0.0151 -0.47463,0.0151 -0.47279,0.0446 -0.469,0.0745 -0.46345,0.10356 -0.456,0.13266 -0.44682,0.16101 -0.43582,0.18859 -0.42312,0.21544 -0.40872,0.24189 -0.39277,0.26683 -0.37531,0.29103 -0.35603,0.31408 -0.336,0.33562 -0.31408,0.35603 -0.29103,0.37531 -0.26683,0.39277 -0.24189,0.40872 -0.21544,0.42312 -0.1886,0.43582 -0.16101,0.44681 -0.13266,0.45601 -0.10356,0.46344 -0.0745,0.46901 -0.0446,0.47278 -0.0151,0.47463 0.0151,0.47464 0.0446,0.47278 0.0745,0.469 0.10356,0.46345 0.13266,0.456 0.16101,0.44682 0.1886,0.43581 0.21544,0.42312 0.24189,0.40872 0.26683,0.39277 0.29103,0.37531 0.31408,0.35603 0.336,0.33563 0.35603,0.31408 0.37531,0.29102 0.39277,0.26683 0.40872,0.2419 0.42312,0.21543 0.43582,0.1886 0.44682,0.16101 0.456,0.13266 0.46345,0.10356 0.469,0.0745 0.47279,0.0446 0.47463,0.0151"
     id="path17-45"
     style="fill:none;stroke:#000000;stroke-width:3.53895" /><path
     d="m 699.35918,893.85889 0.47464,-0.0151 0.47278,-0.0446 0.469,-0.0745 0.46345,-0.10356 0.456,-0.13266 0.44682,-0.16101 0.43582,-0.1886 0.42312,-0.21543 0.40872,-0.2419 0.39277,-0.26683 0.37531,-0.29102 0.35603,-0.31408 0.33601,-0.33563 0.31408,-0.35603 0.29102,-0.37531 0.26684,-0.39277 0.24189,-0.40872 0.21543,-0.42312 0.1886,-0.43581 0.16101,-0.44682 0.13266,-0.456 0.10356,-0.46345 0.0745,-0.469 0.0446,-0.47278 0.0151,-0.47464 -0.0151,-0.47463 -0.0446,-0.47278 -0.0745,-0.46901 -0.10356,-0.46344 -0.13266,-0.45601 -0.16101,-0.44681 -0.1886,-0.43582 -0.21543,-0.42312 -0.24189,-0.40872 -0.26684,-0.39277 -0.29102,-0.37531 -0.31408,-0.35603 -0.33601,-0.33562 -0.35603,-0.31408 -0.37531,-0.29103 -0.39277,-0.26683 -0.40872,-0.24189 -0.42312,-0.21544 -0.43582,-0.18859 -0.44682,-0.16101 -0.456,-0.13266 -0.46345,-0.10356 -0.469,-0.0745 -0.47278,-0.0446 -0.47464,-0.0151 -0.47463,0.0151 -0.47279,0.0446 -0.469,0.0745 -0.46345,0.10356 -0.456,0.13266 -0.44682,0.16101 -0.43582,0.18859 -0.42312,0.21544 -0.40872,0.24189 -0.39277,0.26683 -0.37531,0.29103 -0.35603,0.31408 -0.336,0.33562 -0.31408,0.35603 -0.29103,0.37531 -0.26684,0.39277 -0.24189,0.40872 -0.21543,0.42312 -0.1886,0.43582 -0.16101,0.44681 -0.13266,0.45601 -0.10356,0.46344 -0.0745,0.46901 -0.0446,0.47278 -0.0151,0.47463 0.0151,0.47464 0.0446,0.47278 0.0745,0.469 0.10356,0.46345 0.13266,0.456 0.16101,0.44682 0.1886,0.43581 0.21543,0.42312 0.24189,0.40872 0.26684,0.39277 0.29103,0.37531 0.31408,0.35603 0.336,0.33563 0.35603,0.31408 0.37531,0.29102 0.39277,0.26683 0.40872,0.2419 0.42312,0.21543 0.43582,0.1886 0.44682,0.16101 0.456,0.13266 0.46345,0.10356 0.469,0.0745 0.47279,0.0446 0.47463,0.0151"
     id="path18-2"
     style="fill:none;stroke:#000000;stroke-width:3.53895" /><path
     d="m 1256.8544,468.50646 -0.058,-31.99852 0.015,-7.92701 0.02,-3.95132 0.029,-3.94347 0.1614,-15.99814 0.023,-4.07147 v -4.10195 l -0.022,-4.13321 -0.023,-2.07854 -0.031,-2.08662 -0.041,-2.09478 -0.051,-2.10301 -0.062,-2.10945 -0.073,-2.10336 -0.083,-2.09482 -0.091,-2.08617 -0.202,-4.14588 -0.2213,-4.10975 -0.2316,-4.0725 -0.4598,-8.02825 -0.2116,-3.95293 -0.1886,-3.91008 -0.083,-1.93845 -0.075,-1.9271 -0.065,-1.91553 -0.055,-1.90374 -0.043,-1.89172 -0.031,-1.87948 -0.018,-1.86701 v -1.85433 l 0.011,-1.84142 0.026,-1.82831 0.042,-1.81499 0.059,-1.80149 0.077,-1.78781 0.096,-1.77396 0.1149,-1.75999 0.1348,-1.74587 0.1554,-1.73169 0.1766,-1.71741 0.1985,-1.70312 0.221,-1.6888 0.2442,-1.67454 0.268,-1.66035 0.2934,-1.65257 0.3211,-1.65907 0.3482,-1.6663 0.3748,-1.67372 0.4007,-1.68128 0.4259,-1.68896 0.4503,-1.69674 0.4742,-1.70458 0.4971,-1.71248 0.5194,-1.72042 0.5408,-1.7284 0.5614,-1.7364 0.5811,-1.74441 0.6,-1.75244 0.618,-1.7605 0.635,-1.76857 0.6511,-1.77668 0.6663,-1.78481 0.6804,-1.79298 0.6936,-1.80121 1.4226,-3.62736 1.4628,-3.66116 1.4945,-3.69581 3.0488,-7.49998 1.5327,-3.7961 1.5241,-3.81169 1.5123,-3.82844 1.4972,-3.84638 1.4785,-3.86553 1.4567,-3.88592 0.719,-1.95098 0.7122,-1.95654 0.705,-1.96225 0.6974,-1.96811 0.6892,-1.97414 0.6807,-1.9803 0.6717,-1.98663 0.6622,-1.99311 0.6523,-1.99974 0.642,-2.00652 0.6311,-2.01344 0.6199,-2.02052 0.608,-2.02774 0.5958,-2.0351 0.5831,-2.0426 0.57,-2.05024 0.5562,-2.05801 0.5421,-2.06591 0.5274,-2.07393 0.5124,-2.08209 0.4967,-2.09036 0.4806,-2.09874 0.4639,-2.10723 0.4469,-2.11583 0.4293,-2.12452 0.4112,-2.13331 0.3925,-2.14218 0.3735,-2.15114 0.3538,-2.16018 0.3338,-2.16927 0.3131,-2.17844 0.292,-2.18767 0.2703,-2.19694 0.2483,-2.20626 0.2256,-2.21561 0.2024,-2.225 0.1789,-2.2344 0.1547,-2.24383 0.1301,-2.25328 0.105,-2.26271 0.079,-2.27216 0.053,-2.28158 0.027,-2.29101 -2e-4,-2.3004 -0.028,-2.30978 -0.056,-2.31913 -0.084,-2.32765 -0.1124,-2.33321 -0.1407,-2.33781 -0.1689,-2.34165 -0.1971,-2.34474 -0.2253,-2.34705 -0.2535,-2.34858 -0.2815,-2.34935 -0.3097,-2.34932 -0.3378,-2.34852 -0.366,-2.34692 -0.3942,-2.34453 -0.4224,-2.34135 -0.4506,-2.33737 -0.4791,-2.332601 -0.5075,-2.32701 -0.536,-2.320626 -0.5646,-2.313434 -0.5934,-2.305441 -0.3076,-1.149471 -0.3147,-1.147167 -0.3221,-1.144766 -0.3293,-1.14226 -0.3366,-1.139653 -0.344,-1.13695 -0.3512,-1.134138 -0.3587,-1.131247 -0.366,-1.128189 -0.3735,-1.125127 -0.3809,-1.121878 -0.3883,-1.118589 -0.3959,-1.11515 -0.4034,-1.111634 -0.411,-1.107969 -0.4185,-1.104303 -0.4262,-1.100447 -0.4339,-1.096479 -0.4415,-1.092472 -0.4493,-1.088316 -0.4571,-1.084082 -0.4648,-1.079697 -0.4728,-1.075276 -0.4806,-1.070665 -0.4886,-1.066016 -0.4966,-1.061216 -0.5047,-1.056302 -0.5127,-1.051314 -0.5209,-1.046173 -0.5291,-1.040958 -0.5373,-1.035628 -0.5457,-1.030148 -0.554,-1.024555 -0.5625,-1.018885 -0.571,-1.013065 -0.5795,-1.007093 -0.5882,-1.001046 -0.5968,-0.994885 -0.6057,-0.988535 -0.6145,-0.982111 -0.6234,-0.975534 -0.6323,-0.968844 -0.6415,-0.961966 -0.6506,-0.954973 -0.6598,-0.94783 -0.6691,-0.940573 -0.6785,-0.933128 -0.6879,-0.925569 -0.6975,-0.91782 -0.7071,-0.909922 -0.7169,-0.901833 -0.7266,-0.893631 -0.7366,-0.885204 -0.7465,-0.876624 -0.7565,-0.867855 -0.7667,-0.858898 -0.7769,-0.849789 -0.7873,-0.840378 -0.7976,-0.830853 -0.8081,-0.821103 -0.8186,-0.811087 -0.8293,-0.800919 -0.84,-0.790489 -0.8506,-0.779716 -0.8597,-0.767207 -0.8676,-0.753902 -0.8754,-0.740599 -0.883,-0.727294 -0.8906,-0.713953 -0.8979,-0.700611 -0.905,-0.687307 -0.912,-0.674004 -0.9188,-0.660699 -0.9254,-0.647471 -0.9318,-0.634243 -0.9381,-0.621052 -0.9442,-0.607899 -0.9501,-0.594822 -0.9558,-0.581783 -0.9614,-0.568819 -0.9668,-0.555931 -0.972,-0.54308 -0.9771,-0.530343 -0.982,-0.517682 -0.9867,-0.505134 -0.9914,-0.492662 -0.9957,-0.480264 -1.0001,-0.468019 -1.0042,-0.455811 -1.0083,-0.4437926 -1.0121,-0.4318489 -1.0158,-0.420019 -1.0195,-0.4083402 -1.0229,-0.3967371 -1.0263,-0.3853229 -1.0296,-0.3737953 -1.0327,-0.3628347 -1.0358,-0.351874 -1.0387,-0.3409135 -1.0415,-0.3299528 -1.0443,-0.3193701 -1.0469,-0.3087875 -1.0494,-0.2985827 -1.052,-0.288 -1.0544,-0.2781733 -1.0567,-0.2679685 -1.0589,-0.2581418 -1.0611,-0.2486929 -1.0633,-0.2388662 -1.0652,-0.2294174 -1.0673,-0.2203465 -1.0693,-0.2112756 -1.0711,-0.2022047 -1.0729,-0.1931339 -1.0747,-0.184441 -1.0765,-0.175748 -1.0781,-0.1674331 -1.0799,-0.1591182 -1.0814,-0.1508031 -1.083,-0.1424883 -1.0845,-0.1345512 -1.086,-0.1266141 -1.0875,-0.11905518 -1.0889,-0.11149608 -2.1821,-0.20069295 -2.1874,-0.17159057 -2.1926,-0.14362207 -2.1976,-0.11640946 -2.2023,-0.0899528 -2.207,-0.06462993 -2.2113,-0.040063 -2.2156,-0.015118113849 -2.2197,0.00755905385 -2.2236,0.03023623 -2.2274,0.04951182 -2.2309,0.07029922 -2.2343,0.0899528 -2.2376,0.10885041 -2.2406,0.12737009 -2.2435,0.14475593 -2.2462,0.1617638 -2.2487,0.17763782 -2.251,0.19313388 -2.2531,0.2078741 -2.2551,0.2222362 -2.2569,0.2354646 -2.2583,0.248315 -2.2597,0.2604095 -2.2607,0.272126 -2.2616,0.2827087 -2.2623,0.2929134 -2.2627,0.3027402 -2.2628,0.3118111 -2.2627,0.320126 -2.2624,0.3276851 -4.5227,0.676271 -4.5181,0.6999686 -4.5112,0.7188284 -4.5021,0.7329639 -4.4904,0.7424127 -8.9363,1.4943499 -8.8591,1.4764728 -4.3937,0.720113 -4.366,0.701972 -4.3353,0.679446 -4.3014,0.65246 -4.2644,0.621052 -2.1174,0.297449 -2.1068,0.288 -2.096,0.278173 -2.0846,0.267591 -2.0729,0.25663 -2.0606,0.244913 -2.048,0.232819 -2.035,0.220346 -2.0213,0.207496 -2.0073,0.19389 -1.9958,0.180284 -1.9894,0.167055 -1.9835,0.154583 -1.9777,0.14211 -1.9724,0.130016 -1.9674,0.118299 -1.9626,0.10696 -1.9582,0.096 -1.954,0.08542 -1.9503,0.07521 -1.9467,0.06501 -1.9435,0.05556 -1.9405,0.04611 -1.938,0.03779 -1.9356,0.03024 -1.9335,0.0189 -3.8621,0.0189 -3.8572,-0.01134 -3.8547,-0.03779 -3.8542,-0.06085 -3.85597,-0.08126 -3.85973,-0.09902 -3.86558,-0.113764 -3.87342,-0.12548 -7.77822,-0.274772 -7.83266,-0.286488 -7.90173,-0.274016 -3.98115,-0.124347 -4.00277,-0.111874 -4.01211,-0.09676 -4.01658,-0.08239 -4.02064,-0.06879 -4.02428,-0.05594 -4.02751,-0.04422 -4.03031,-0.03402 -4.03269,-0.02268 -4.03463,-0.01134 -4.03617,-0.0038 -4.03725,0.0038 -8.07605,0.03024 -8.07518,0.05178 -8.07079,0.06803 -32.16806,0.315968 -8.00938,0.06198 -8.00455,0.0514 -8.00016,0.0412 -7.99615,0.03024 -7.99264,0.02268 -7.98962,0.01512 -15.97171,0.01134 -127.81843,-0.258898"
     id="path13-64"
     style="fill:none;stroke:#000000;stroke-width:3.53895" /><path
     d="m 1237.9441,404.40945 -0.4746,0.0147 -0.4728,0.0447 -0.469,0.0743 -0.4635,0.1036 -0.456,0.13247 -0.4468,0.16086 -0.4358,0.1886 -0.4231,0.21558 -0.4088,0.24174 -0.3927,0.26691 -0.3752,0.29106 -0.3562,0.31404 -0.3358,0.33578 -0.3141,0.35622 -0.291,0.37523 -0.2669,0.39276 -0.2418,0.40874 -0.2156,0.42311 -0.1886,0.43582 -0.1608,0.4468 -0.1325,0.45601 -0.1036,0.46344 -0.074,0.46902 -0.045,0.47277 -0.015,0.47482 0.015,0.47464 0.045,0.47276 0.074,0.46902 0.1036,0.46344 0.1325,0.45602 0.1608,0.44679 0.1886,0.43582 0.2156,0.42311 0.2418,0.40874 0.2669,0.39276 0.291,0.37522 0.3141,0.35621 0.3358,0.33578 0.3562,0.31404 0.3752,0.29106 0.3927,0.26691 0.4088,0.24173 0.4231,0.21559 0.4358,0.18859 0.4468,0.16086 0.456,0.13248 0.4635,0.10359 0.469,0.0743 0.4728,0.0447 0.4746,0.0149 0.4746,-0.0149 0.4728,-0.0447 0.469,-0.0743 0.4635,-0.10359 0.456,-0.13248 0.4468,-0.16086 0.4358,-0.18859 0.4231,-0.21559 0.4088,-0.24173 0.3927,-0.26692 0.3752,-0.29105 0.3562,-0.31404 0.3358,-0.33578 0.3141,-0.35621 0.291,-0.37522 0.2669,-0.39276 0.2418,-0.40874 0.2156,-0.42311 0.1886,-0.43582 0.1608,-0.4468 0.1325,-0.45601 0.1036,-0.46344 0.074,-0.46902 0.045,-0.47275 0.015,-0.47464 -0.015,-0.47464 -0.045,-0.47276 -0.074,-0.46903 -0.1036,-0.46343 -0.1325,-0.45602 -0.1608,-0.44679 -0.1886,-0.43582 -0.2156,-0.42311 -0.2418,-0.40875 -0.2669,-0.39275 -0.291,-0.37524 -0.3141,-0.35622 -0.3358,-0.33577 -0.3562,-0.31404 -0.3752,-0.29106 -0.3927,-0.26691 -0.4088,-0.24174 -0.4231,-0.21559 -0.4358,-0.18859 -0.4468,-0.16086 -0.456,-0.13247 -0.4635,-0.1036 -0.469,-0.0743 -0.4728,-0.0447 -0.4746,-0.0149"
     id="path14-95"
     style="fill:none;stroke:#000000;stroke-width:3.53895" /><path
     d="m 1237.9441,347.71654 -0.4746,0.0147 -0.4728,0.0447 -0.469,0.0743 -0.4635,0.1036 -0.456,0.13247 -0.4468,0.16086 -0.4358,0.1886 -0.4231,0.21558 -0.4088,0.24174 -0.3927,0.26691 -0.3752,0.29106 -0.3562,0.31404 -0.3358,0.33578 -0.3141,0.35622 -0.291,0.37523 -0.2669,0.39276 -0.2418,0.40874 -0.2156,0.42311 -0.1886,0.43582 -0.1608,0.4468 -0.1325,0.45601 -0.1036,0.46344 -0.074,0.46902 -0.045,0.47277 -0.015,0.47482 0.015,0.47463 0.045,0.47277 0.074,0.46902 0.1036,0.46344 0.1325,0.45601 0.1608,0.4468 0.1886,0.43582 0.2156,0.42311 0.2418,0.40874 0.2669,0.39276 0.291,0.37523 0.3141,0.35622 0.3358,0.33578 0.3562,0.31404 0.3752,0.29106 0.3927,0.26691 0.4088,0.24174 0.4231,0.21558 0.4358,0.1886 0.4468,0.16086 0.456,0.13247 0.4635,0.1036 0.469,0.0743 0.4728,0.0447 0.4746,0.0149 0.4746,-0.0147 0.4728,-0.0447 0.469,-0.0743 0.4635,-0.1036 0.456,-0.13247 0.4468,-0.16085 0.4358,-0.1886 0.4231,-0.21559 0.4088,-0.24174 0.3927,-0.26691 0.3752,-0.29106 0.3562,-0.31404 0.3358,-0.33577 0.3141,-0.35622 0.291,-0.37523 0.2669,-0.39276 0.2418,-0.40875 0.2156,-0.42311 0.1886,-0.43581 0.1608,-0.4468 0.1325,-0.45602 0.1036,-0.46343 0.074,-0.46903 0.045,-0.47276 0.015,-0.47482 -0.015,-0.47464 -0.045,-0.47276 -0.074,-0.46903 -0.1036,-0.46343 -0.1325,-0.45602 -0.1608,-0.4468 -0.1886,-0.43581 -0.2156,-0.42311 -0.2418,-0.40875 -0.2669,-0.39276 -0.291,-0.37523 -0.3141,-0.35622 -0.3358,-0.33577 -0.3562,-0.31404 -0.3752,-0.29106 -0.3927,-0.26691 -0.4088,-0.24174 -0.4231,-0.21559 -0.4358,-0.1886 -0.4468,-0.16085 -0.456,-0.13247 -0.4635,-0.1036 -0.469,-0.0743 -0.4728,-0.0447 -0.4746,-0.0149"
     id="path15-0"
     style="fill:none;stroke:#000000;stroke-width:3.53895" /><path
     d="m 1237.9441,18.897639 -0.4746,0.01512 -0.4728,0.0446 -0.469,0.07446 -0.4635,0.103559 -0.456,0.132661 -0.4468,0.161008 -0.4358,0.188599 -0.4231,0.215433 -0.4088,0.24189 -0.3927,0.266834 -0.3752,0.291024 -0.3562,0.314079 -0.3358,0.335622 -0.3141,0.356031 -0.291,0.375308 -0.2669,0.392768 -0.2418,0.408718 -0.2156,0.423118 -0.1886,0.435818 -0.1608,0.446816 -0.1325,0.456 -0.1036,0.463445 -0.074,0.469002 -0.045,0.472781 -0.015,0.474369 0.015,0.474633 0.045,0.472781 0.074,0.469002 0.1036,0.463445 0.1325,0.456001 0.1608,0.446815 0.1886,0.435818 0.2156,0.423118 0.2418,0.408718 0.2669,0.392769 0.291,0.375307 0.3141,0.356031 0.3358,0.335622 0.3562,0.314079 0.3752,0.291024 0.3927,0.266835 0.4088,0.241889 0.4231,0.215433 0.4358,0.188599 0.4468,0.161008 0.456,0.132661 0.4635,0.103559 0.469,0.07446 0.4728,0.0446 0.4746,0.01485 0.4746,-0.01512 0.4728,-0.0446 0.469,-0.07446 0.4635,-0.103559 0.456,-0.132662 0.4468,-0.161008 0.4358,-0.188598 0.4231,-0.215433 0.4088,-0.24189 0.3927,-0.266835 0.3752,-0.291023 0.3562,-0.314079 0.3358,-0.335622 0.3141,-0.356032 0.291,-0.375307 0.2669,-0.392768 0.2418,-0.408719 0.2156,-0.423118 0.1886,-0.435817 0.1608,-0.446816 0.1325,-0.456 0.1036,-0.463446 0.074,-0.469001 0.045,-0.472782 0.015,-0.474368 -0.015,-0.474633 -0.045,-0.472782 -0.074,-0.469001 -0.1036,-0.463446 -0.1325,-0.456 -0.1608,-0.446816 -0.1886,-0.435817 -0.2156,-0.423118 -0.2418,-0.408718 -0.2669,-0.392769 -0.291,-0.375307 -0.3141,-0.356032 -0.3358,-0.335622 -0.3562,-0.314079 -0.3752,-0.291023 -0.3927,-0.266835 -0.4088,-0.24189 -0.4231,-0.215433 -0.4358,-0.188598 -0.4468,-0.161008 -0.456,-0.132662 -0.4635,-0.103559 -0.469,-0.07446 -0.4728,-0.0446 -0.4746,-0.01485"
     id="path16-4"
     style="fill:none;stroke:#000000;stroke-width:3.53895" /><path
     d="m 756.05225,23.433071 -0.47463,0.01512 -0.47279,0.0446 -0.469,0.07446 -0.46345,0.103559 -0.456,0.132661 -0.44682,0.161008 -0.43582,0.188599 -0.42312,0.215433 -0.40872,0.24189 -0.39277,0.266834 -0.3753,0.291024 -0.35604,0.314079 -0.336,0.335622 -0.31408,0.356031 -0.29102,0.375308 -0.26684,0.392768 -0.24189,0.408718 -0.21543,0.423118 -0.1886,0.435818 -0.16101,0.446816 -0.13266,0.456 -0.10356,0.463445 -0.0745,0.469002 -0.0446,0.472781 -0.0151,0.474633 0.0151,0.474634 0.0446,0.472781 0.0745,0.469001 0.10356,0.463446 0.13266,0.456 0.16101,0.446816 0.1886,0.435817 0.21543,0.423118 0.24189,0.408719 0.26684,0.392768 0.29102,0.375307 0.31408,0.356032 0.336,0.335622 0.35604,0.314079 0.3753,0.291023 0.39277,0.266835 0.40872,0.24189 0.42312,0.215433 0.43582,0.188598 0.44682,0.161008 0.456,0.132662 0.46345,0.103559 0.469,0.07446 0.47279,0.0446 0.47463,0.01512 0.47464,-0.01512 0.47278,-0.0446 0.469,-0.07446 0.46345,-0.103559 0.456,-0.132662 0.44682,-0.161008 0.43582,-0.188598 0.42312,-0.215433 0.40872,-0.24189 0.39277,-0.266835 0.37531,-0.291023 0.35603,-0.314079 0.33563,-0.335622 0.31408,-0.356032 0.29102,-0.375307 0.26684,-0.392768 0.24189,-0.408719 0.21543,-0.423118 0.1886,-0.435817 0.16101,-0.446816 0.13266,-0.456 0.10356,-0.463446 0.0745,-0.469001 0.0446,-0.472781 0.0151,-0.474634 -0.0151,-0.474633 -0.0446,-0.472781 -0.0745,-0.469002 -0.10356,-0.463445 -0.13266,-0.456 -0.16101,-0.446816 -0.1886,-0.435818 -0.21543,-0.423118 -0.24189,-0.408718 -0.26684,-0.392768 -0.29102,-0.375308 -0.31408,-0.356031 -0.33563,-0.335622 -0.35603,-0.314079 -0.37531,-0.291024 -0.39277,-0.266834 -0.40872,-0.24189 -0.42312,-0.215433 -0.43582,-0.188599 -0.44682,-0.161008 -0.456,-0.132661 -0.46345,-0.103559 -0.469,-0.07446 -0.47278,-0.0446 -0.47464,-0.01512"
     id="path17-8"
     style="fill:none;stroke:#000000;stroke-width:3.53895" /><path
     d="m 699.35909,23.433071 -0.47463,0.01512 -0.47278,0.0446 -0.46901,0.07446 -0.46345,0.103559 -0.456,0.132661 -0.44681,0.161008 -0.43582,0.188599 -0.42312,0.215433 -0.40872,0.24189 -0.39277,0.266834 -0.37531,0.291024 -0.35604,0.314079 -0.336,0.335622 -0.31408,0.356031 -0.29102,0.375308 -0.26684,0.392768 -0.24189,0.408718 -0.21543,0.423118 -0.1886,0.435818 -0.16101,0.446816 -0.13266,0.456 -0.10356,0.463445 -0.0745,0.469002 -0.0446,0.472781 -0.0151,0.474633 0.0151,0.474634 0.0446,0.472781 0.0745,0.469001 0.10356,0.463446 0.13266,0.456 0.16101,0.446816 0.1886,0.435817 0.21543,0.423118 0.24189,0.408719 0.26684,0.392768 0.29102,0.375307 0.31408,0.356032 0.336,0.335622 0.35604,0.314079 0.37531,0.291023 0.39277,0.266835 0.40872,0.24189 0.42312,0.215433 0.43582,0.188598 0.44681,0.161008 0.456,0.132662 0.46345,0.103559 0.46901,0.07446 0.47278,0.0446 0.47463,0.01512 0.47464,-0.01512 0.47278,-0.0446 0.46901,-0.07446 0.46344,-0.103559 0.45601,-0.132662 0.44681,-0.161008 0.43582,-0.188598 0.42312,-0.215433 0.40872,-0.24189 0.39277,-0.266835 0.37531,-0.291023 0.35603,-0.314079 0.33601,-0.335622 0.31408,-0.356032 0.29102,-0.375307 0.26684,-0.392768 0.24189,-0.408719 0.21543,-0.423118 0.1886,-0.435817 0.16101,-0.446816 0.13266,-0.456 0.10356,-0.463446 0.0745,-0.469001 0.0446,-0.472781 0.0151,-0.474634 -0.0151,-0.474633 -0.0446,-0.472781 -0.0745,-0.469002 -0.10356,-0.463445 -0.13266,-0.456 -0.16101,-0.446816 -0.1886,-0.435818 -0.21543,-0.423118 -0.24189,-0.408718 -0.26684,-0.392768 -0.29102,-0.375308 -0.31408,-0.356031 -0.33601,-0.335622 -0.35603,-0.314079 -0.37531,-0.291024 -0.39277,-0.266834 -0.40872,-0.24189 -0.42312,-0.215433 -0.43582,-0.188599 -0.44681,-0.161008 -0.45601,-0.132661 -0.46344,-0.103559 -0.46901,-0.07446 -0.47278,-0.0446 -0.47464,-0.01512"
     id="path18-71"
     style="fill:none;stroke:#000000;stroke-width:3.53895" /><path
     d="m 1256.8548,459.00474 -0.058,31.99859 0.015,7.92703 0.02,3.95133 0.03,3.94348 0.1614,15.99818 0.023,4.07148 v 4.10196 l -0.022,4.13322 -0.023,2.07855 -0.031,2.08662 -0.041,2.09479 -0.051,2.10301 -0.063,2.10946 -0.073,2.10336 -0.083,2.09483 -0.091,2.08617 -0.202,4.14589 -0.2213,4.10976 -0.2316,4.07252 -0.4598,8.02826 -0.2116,3.95294 -0.1886,3.91009 -0.083,1.93845 -0.075,1.92711 -0.065,1.91553 -0.055,1.90374 -0.043,1.89173 -0.031,1.87949 -0.018,1.86702 v 1.85432 l 0.011,1.84143 0.026,1.82831 0.042,1.815 0.059,1.80149 0.077,1.78781 0.096,1.77397 0.1149,1.75999 0.1348,1.74588 0.1554,1.73169 0.1766,1.71742 0.1985,1.70312 0.221,1.68881 0.2442,1.67454 0.268,1.66035 0.2934,1.65258 0.3211,1.65907 0.3483,1.6663 0.3747,1.67373 0.4007,1.68128 0.4259,1.68897 0.4503,1.69674 0.4742,1.70458 0.4971,1.71249 0.5194,1.72043 0.5408,1.7284 0.5614,1.7364 0.5811,1.74442 0.6,1.75244 0.618,1.76051 0.635,1.76858 0.6511,1.77668 0.6663,1.78481 0.6804,1.79299 0.6936,1.80121 1.4226,3.62737 1.4628,3.66117 1.4945,3.69582 3.0488,7.49999 1.5327,3.79611 1.5242,3.8117 1.5123,3.82844 1.4971,3.84639 1.4786,3.86555 1.4566,3.88592 0.719,1.95099 0.7122,1.95655 0.705,1.96225 0.6974,1.96812 0.6892,1.97414 0.6807,1.98031 0.6717,1.98663 0.6623,1.99312 0.6523,1.99974 0.6419,2.00652 0.6312,2.01345 0.6198,2.02053 0.608,2.02774 0.5959,2.0351 0.5831,2.04261 0.5699,2.05024 0.5562,2.05802 0.5421,2.06591 0.5275,2.07394 0.5123,2.0821 0.4967,2.09036 0.4806,2.09874 0.464,2.10724 0.4469,2.11583 0.4292,2.12453 0.4112,2.13331 0.3926,2.14219 0.3734,2.15115 0.3539,2.16018 0.3337,2.16928 0.3131,2.17845 0.292,2.18766 0.2704,2.19695 0.2482,2.20626 0.2256,2.21562 0.2025,2.225 0.1788,2.23441 0.1548,2.24384 0.13,2.25328 0.105,2.26272 0.08,2.27216 0.053,2.28159 0.027,2.29101 -2e-4,2.30041 -0.028,2.30979 -0.056,2.31913 -0.084,2.32765 -0.1124,2.33322 -0.1406,2.33782 -0.169,2.34166 -0.1971,2.34474 -0.2253,2.34705 -0.2534,2.34859 -0.2816,2.34935 -0.3097,2.34933 -0.3378,2.34852 -0.366,2.34693 -0.3941,2.34454 -0.4224,2.34136 -0.4507,2.33738 -0.479,2.3326 -0.5075,2.32701 -0.536,2.32064 -0.5647,2.31343 -0.5934,2.30545 -0.3076,1.14948 -0.3147,1.14716 -0.3221,1.14477 -0.3293,1.14227 -0.3366,1.13965 -0.3439,1.13695 -0.3513,1.13415 -0.3586,1.13124 -0.3661,1.1282 -0.3734,1.12513 -0.3809,1.12188 -0.3884,1.11859 -0.3959,1.11515 -0.4034,1.11164 -0.4109,1.10797 -0.4186,1.10431 -0.4262,1.10045 -0.4338,1.09648 -0.4416,1.09247 -0.4493,1.08832 -0.457,1.08408 -0.4649,1.0797 -0.4728,1.07528 -0.4806,1.07067 -0.4886,1.06602 -0.4966,1.06122 -0.5046,1.0563 -0.5128,1.05132 -0.5208,1.04617 -0.5291,1.04096 -0.5374,1.03564 -0.5456,1.03015 -0.5541,1.02455 -0.5625,1.01889 -0.5709,1.01307 -0.5796,1.00709 -0.5881,1.00105 -0.5969,0.99489 -0.6057,0.98854 -0.6144,0.98211 -0.6234,0.97554 -0.6324,0.96884 -0.6415,0.96197 -0.6505,0.95498 -0.6598,0.94783 -0.6692,0.94057 -0.6784,0.93313 -0.688,0.92557 -0.6975,0.91783 -0.7071,0.90992 -0.7169,0.90184 -0.7266,0.89363 -0.7365,0.88521 -0.7465,0.87662 -0.7566,0.86786 -0.7667,0.8589 -0.7769,0.84979 -0.7873,0.84038 -0.7976,0.83086 -0.8081,0.8211 -0.8186,0.81109 -0.8293,0.80092 -0.84,0.79049 -0.8506,0.77972 -0.8596,0.76721 -0.8676,0.7539 -0.8755,0.7406 -0.883,0.7273 -0.8906,0.71395 -0.8979,0.70062 -0.905,0.6873 -0.912,0.67401 -0.9188,0.6607 -0.9254,0.64747 -0.9318,0.63425 -0.9381,0.62105 -0.9442,0.6079 -0.9501,0.59483 -0.9558,0.58178 -0.9614,0.56882 -0.9668,0.55593 -0.972,0.54308 -0.9771,0.53035 -0.982,0.51768 -0.9867,0.50514 -0.9914,0.49266 -0.9957,0.48026 -1.0001,0.46803 -1.0042,0.45581 -1.0083,0.44379 -1.0121,0.43185 -1.0158,0.42002 -1.0195,0.40834 -1.0229,0.39674 -1.0263,0.38532 -1.0296,0.3738 -1.0327,0.36284 -1.0358,0.35187 -1.0387,0.34091 -1.0415,0.32996 -1.0443,0.31937 -1.0469,0.30879 -1.0495,0.29858 -1.0519,0.288 -1.0544,0.27818 -1.0567,0.26796 -1.0589,0.25815 -1.0611,0.24869 -1.0633,0.23887 -1.0653,0.22941 -1.0672,0.22035 -1.0693,0.21128 -1.0711,0.2022 -1.0729,0.19314 -1.0747,0.18444 -1.0765,0.17575 -1.0782,0.16743 -1.0798,0.15912 -1.0814,0.1508 -1.083,0.14249 -1.0845,0.13455 -1.086,0.12662 -1.0875,0.11905 -1.0889,0.1115 -2.1821,0.20069 -2.1874,0.17159 -2.1926,0.14363 -2.1976,0.11641 -2.2023,0.09 -2.207,0.0646 -2.2114,0.0401 -2.2156,0.0151 -2.2197,-0.008 -2.2236,-0.0302 -2.2273,-0.0495 -2.2309,-0.0703 -2.2344,-0.0899 -2.2375,-0.10885 -2.2406,-0.12737 -2.2435,-0.14476 -2.2462,-0.16176 -2.2487,-0.17764 -2.251,-0.19313 -2.2532,-0.20788 -2.2551,-0.22223 -2.2568,-0.23547 -2.2584,-0.24832 -2.2596,-0.26041 -2.2608,-0.27212 -2.2616,-0.28271 -2.2623,-0.29292 -2.2626,-0.30274 -2.2629,-0.31181 -2.2627,-0.32013 -2.2624,-0.32768 -4.5227,-0.67627 -4.5181,-0.69997 -4.5112,-0.71883 -4.502,-0.73297 -4.4905,-0.74241 -8.9362,-1.49436 -8.8592,-1.47647 -4.3937,-0.72012 -4.366,-0.70197 -4.3353,-0.67945 -4.3014,-0.65246 -4.2644,-0.62106 -2.1174,-0.29744 -2.1068,-0.28801 -2.096,-0.27817 -2.0846,-0.26759 -2.0729,-0.25663 -2.0606,-0.24492 -2.0481,-0.23281 -2.0349,-0.22035 -2.0213,-0.2075 -2.0073,-0.19389 -1.9958,-0.18028 -1.9895,-0.16706 -1.9834,-0.15458 -1.9777,-0.14211 -1.9724,-0.13002 -1.9674,-0.1183 -1.9626,-0.10696 -1.9582,-0.096 -1.954,-0.0854 -1.9503,-0.0752 -1.9467,-0.065 -1.9435,-0.0556 -1.9406,-0.0461 -1.9379,-0.0378 -1.9356,-0.0302 -1.9335,-0.0189 -3.8621,-0.0189 -3.8573,0.0113 -3.8546,0.0378 -3.8543,0.0609 -3.85591,0.0813 -3.85973,0.099 C 883.89556,912.56622 773.505,907.0078 664.29039,907.22901"
     id="path10-7"
     style="fill:none;stroke:#000000;stroke-width:3.53895"
     sodipodi:nodetypes="cccccccccccccccccccccccccccccccccccccccccccccccccccccccccccccccccccccccccccccccccccccccccccccccccccccccccccccccccccccccccccccccccccccccccccccccccccccccccccccccccccccccccccccccccccccccccccccccccccccccccccccccccccccccccccccccccccccccccccccccccccccccccccccccccccccccccccccccccccccccccccccccccccccccccccccccccccccccccccccccccccccccccccccccccccc" /><circle
     style="fill:none;stroke:#000001;stroke-width:13.9921;stroke-opacity:1"
     id="circle2"
     cx="582.04724"
     cy="827.71655"
     r="94.48819" /><rect
     style="fill:none;stroke:#000001;stroke-width:1.88976378;stroke-dasharray:none"
     id="rect2"
     width="188.97638"
     height="132.28346"
     x="377.95276"
     y="0"
     rx="15.118111"
     ry="13.228347" /><circle
     style="fill:none;stroke:#000001;stroke-width:2.9238"
     id="path2"
     cx="283.54004"
     cy="844.50397"
     r="9.4488192" /><circle
     style="fill:none;stroke:#000001;stroke-width:2.9238"
     id="circle3"
     cx="343.54004"
     cy="844.50397"
     r="9.4488192" /><rect
     style="fill:none;stroke:#000001;stroke-width:1.87389"
     id="rect3"
     width="18.897638"
     height="65.000534"
     x="274.07947"
     y="844.50055" /><rect
     style="fill:none;stroke:#000001;stroke-width:1.87389"
     id="rect4"
     width="18.897638"
     height="65.000534"
     x="334.07947"
     y="844.50055" /><path
     d="m 393.07084,117.61173 -0.94928,0.0302 -0.94552,0.0892 -0.93806,0.14892 -0.92686,0.20712 -0.91204,0.26532 -0.8936,0.32201 -0.87162,0.3772 -0.84622,0.43087 -0.8175,0.48378 -0.7855,0.53367 -0.75044,0.58204 -0.71241,0.62816 -0.67157,0.67124 -0.62807,0.71207 -0.5821,0.75061 -0.53383,0.78554 -0.48346,0.81743 -0.43117,0.84624 -0.37719,0.87163 -0.32172,0.89363 -0.26496,0.912 -0.20718,0.92689 -0.14858,0.93801 -0.0894,0.94556 -0.0298,0.94873 0.0299,0.94927 0.0894,0.94556 0.14858,0.938 0.20718,0.9269 0.26496,0.91199 0.32172,0.89364 0.37718,0.87163 0.43118,0.84624 0.48346,0.81743 0.53383,0.78554 0.5821,0.75061 0.62807,0.71207 0.67157,0.67124 0.71241,0.62816 0.75044,0.58204 0.7855,0.53367 0.8175,0.48378 0.84622,0.43087 0.87162,0.37719 0.8936,0.32202 0.91204,0.26532 0.92686,0.20712 0.93806,0.14892 0.94552,0.0892 0.94926,0.0297 0.94928,-0.0302 0.94552,-0.0892 0.93806,-0.14892 0.92686,-0.20712 0.91204,-0.26532 0.8936,-0.32202 0.87162,-0.37719 0.84624,-0.43087 0.81748,-0.48378 0.7855,-0.53367 0.75044,-0.58204 0.71242,-0.62816 0.67156,-0.67125 0.62808,-0.71206 0.58209,-0.75061 0.53384,-0.78554 0.48346,-0.81743 0.43116,-0.84624 0.3772,-0.87164 0.32172,-0.89363 0.26496,-0.912 0.20718,-0.92689 0.1486,-0.938 0.0894,-0.94556 0.0298,-0.94874 -0.0298,-0.94926 -0.0894,-0.94557 -0.1486,-0.938 -0.20718,-0.92689 -0.26496,-0.912 -0.32172,-0.89363 -0.37718,-0.87163 -0.43118,-0.84624 -0.48346,-0.81743 -0.53384,-0.78554 -0.58209,-0.75061 -0.62808,-0.71207 -0.67156,-0.67124 -0.7124,-0.62816 -0.75046,-0.58205 -0.7855,-0.53366 -0.81748,-0.48378 -0.84624,-0.43087 -0.87162,-0.3772 -0.8936,-0.32201 -0.91204,-0.26532 -0.92686,-0.20712 -0.93806,-0.14892 -0.94552,-0.0892 -0.94926,-0.0297"
     id="path4"
     style="fill:none;stroke:#000000;stroke-width:1.88976;stroke-dasharray:none" /><path
     style="fill:none;stroke:#000000;stroke-width:1px;stroke-linecap:butt;stroke-linejoin:miter;stroke-opacity:1"
     d="m 377.95276,118.0569 v 13.16041"
     id="path5" /></svg>
