<?xml version="1.0" encoding="UTF-8" standalone="no"?>
<svg
   width="500mm"
   height="250mm"
   version="1.1"
   id="svg19"
   sodipodi:docname="tanklid-corner2.svg"
   inkscape:version="1.3.2 (091e20ef0f, 2023-11-25, custom)"
   xml:space="preserve"
   xmlns:inkscape="http://www.inkscape.org/namespaces/inkscape"
   xmlns:sodipodi="http://sodipodi.sourceforge.net/DTD/sodipodi-0.dtd"
   xmlns="http://www.w3.org/2000/svg"
   xmlns:svg="http://www.w3.org/2000/svg"><defs
     id="defs19" /><sodipodi:namedview
     id="namedview19"
     pagecolor="#ffffff"
     bordercolor="#666666"
     borderopacity="1.0"
     inkscape:showpageshadow="2"
     inkscape:pageopacity="0.0"
     inkscape:pagecheckerboard="0"
     inkscape:deskcolor="#d1d1d1"
     showgrid="false"
     inkscape:zoom="2.6219247"
     inkscape:cx="254.77467"
     inkscape:cy="155.42018"
     inkscape:window-width="1920"
     inkscape:window-height="1029"
     inkscape:window-x="0"
     inkscape:window-y="27"
     inkscape:window-maximized="1"
     inkscape:current-layer="svg19"
     inkscape:document-units="mm" /><path
     d="M 56.66869,309.92124 C 51.279068,221.05156 10.628687,237.98091 9.4488189,144.14183 9.1752845,122.38667 2.86627,24.4799 83.49625,4.0932 L 84.57484,3.83128 85.65569,3.57919 86.73873,3.3373 87.82389,3.10486 88.9111,2.88224 90.00032,2.66908 91.09148,2.46536 92.18453,2.27072 93.27941,2.08514 94.37608,1.90826 95.4745,1.74045 l 1.10012,-0.15912 1.10177,-0.1508 1.10339,-0.14249 1.10497,-0.13417 1.10652,-0.12624 1.10802,-0.1183 1.1095,-0.11036 1.11094,-0.1028 1.11236,-0.0949 2.22884,-0.16781 2.23415,-0.13909 2.23926,-0.11112 2.24417,-0.0839 2.24887,-0.0578 2.25341,-0.034 c 56.26722,-0.18839 71.90919,21.36357 179.67769,18.89008 80.57936,-2.31884 119.7496,-0.20873 200.33916,0"
     id="path10"
     style="fill:none;stroke:#000000;stroke-width:3.69611"
     sodipodi:nodetypes="csccccccccccccccccccccccccccccc" /><path
     style="fill:none;stroke:#000000;stroke-width:5.78276"
     d="m 498.89764,272.13228 v 37.78896 H 56.66869"
     id="path2"
     sodipodi:nodetypes="ccc" /><path
     d="m 66.897643,37.79526 -0.47464,0.0151 -0.47276,0.0446 -0.46903,0.0745 -0.46343,0.10355 -0.45602,0.13267 -0.44679,0.161 -0.43582,0.1886 -0.42311,0.21544 -0.40875,0.24188 -0.39275,0.26684 -0.37522,0.29102 -0.35621,0.31408 -0.33578,0.33562 -0.31404,0.35603 -0.29105,0.37531 -0.26692,0.39277 -0.24172,0.40872 -0.21559,0.42312 -0.1886,0.43581 -0.16085,0.44682 -0.13249,0.456 -0.10359,0.46344 -0.0743,0.46901 -0.0447,0.47278 -0.0149,0.47436 0.0149,0.47464 0.0447,0.47278 0.0743,0.469 0.10359,0.46345 0.13249,0.45599 0.16085,0.44682 0.1886,0.43582 0.21558,0.42312 0.24173,0.40871 0.26692,0.39277 0.29105,0.37531 0.31404,0.35603 0.33578,0.33562 0.35621,0.31408 0.37522,0.29102 0.39275,0.26684 0.40875,0.24189 0.42311,0.21543 0.43581,0.1886 0.4468,0.16101 0.45602,0.13266 0.46343,0.10356 0.46903,0.0745 0.47276,0.0446 0.47463,0.0148 0.47464,-0.0151 0.47276,-0.0446 0.46903,-0.0745 0.46343,-0.10356 0.45602,-0.13266 0.4468,-0.16101 0.43581,-0.1886 0.42312,-0.21543 0.40874,-0.24189 0.39275,-0.26684 0.37522,-0.29102 0.35621,-0.31408 0.33578,-0.33562 0.31404,-0.35603 0.29105,-0.37531 0.26692,-0.39277 0.24173,-0.40871 0.21558,-0.42312 0.1886,-0.43582 0.16086,-0.44682 0.13248,-0.456 0.10359,-0.46344 0.0743,-0.469 0.0447,-0.47278 0.0149,-0.47437 -0.0149,-0.47463 -0.0447,-0.47279 -0.0743,-0.469 -0.10359,-0.46344 -0.13248,-0.456 -0.16086,-0.44682 -0.1886,-0.43581 -0.21558,-0.42312 -0.24173,-0.40872 -0.26692,-0.39277 -0.29105,-0.37531 -0.31404,-0.35603 -0.33578,-0.33562 -0.3562,-0.31408 -0.37523,-0.29102 -0.39275,-0.26684 -0.40874,-0.24189 -0.42312,-0.21543 -0.43581,-0.1886 -0.4468,-0.161 -0.45602,-0.13267 -0.46343,-0.10355 -0.46903,-0.0745 -0.47276,-0.0446 -0.47463,-0.0148"
     id="path14"
     style="fill:none;stroke:#000000;stroke-width:3.69611" /><path
     id="path4"
     style="fill:none;stroke:#000000;stroke-width:1px;stroke-linecap:butt;stroke-linejoin:miter;stroke-opacity:1"
     d="M 498.89764,83.15591 H 410.9707 m 87.92694,188.97637 H 410.9707 m 0.002,1e-5 c -52.18439,0 -94.48819,-42.30381 -94.48819,-94.48819 0,-52.18439 42.3038,-94.48819 94.48819,-94.48819 m 87.92494,-64.25829 v 64.25829"
     sodipodi:nodetypes="cccccsccc" /></svg>
