<?xml version="1.0" encoding="UTF-8" standalone="no"?>
<svg
   width="500mm"
   height="250mm"
   version="1.1"
   id="svg19"
   sodipodi:docname="tanklid.svg"
   inkscape:version="1.3.2 (091e20ef0f, 2023-11-25, custom)"
   xml:space="preserve"
   xmlns:inkscape="http://www.inkscape.org/namespaces/inkscape"
   xmlns:sodipodi="http://sodipodi.sourceforge.net/DTD/sodipodi-0.dtd"
   xmlns="http://www.w3.org/2000/svg"
   xmlns:svg="http://www.w3.org/2000/svg"><defs
     id="defs19" /><sodipodi:namedview
     id="namedview19"
     pagecolor="#ffffff"
     bordercolor="#666666"
     borderopacity="1.0"
     inkscape:showpageshadow="2"
     inkscape:pageopacity="0.0"
     inkscape:pagecheckerboard="0"
     inkscape:deskcolor="#d1d1d1"
     showgrid="false"
     inkscape:zoom="1.1321849"
     inkscape:cx="686.28368"
     inkscape:cy="459.73058"
     inkscape:window-width="2560"
     inkscape:window-height="1389"
     inkscape:window-x="0"
     inkscape:window-y="27"
     inkscape:window-maximized="1"
     inkscape:current-layer="svg19"
     inkscape:document-units="mm" /><path
     d="m 64.354019,28.137246 -0.474637,0.01512 -0.472764,0.0446 -0.469025,0.07446 -0.463435,0.103559 -0.456015,0.132662 -0.446798,0.161007 -0.435815,0.188599 -0.423114,0.215433 -0.408741,0.241889 -0.392757,0.266835 -0.37522,0.291023 -0.356206,0.314079 -0.335784,0.335622 -0.314037,0.356031 -0.29105,0.375307 -0.266918,0.392769 -0.241727,0.408717 -0.215588,0.423118 -0.188595,0.435818 -0.160857,0.446815 -0.132483,0.456 -0.10359,0.463445 -0.07429,0.469002 -0.04469,0.472781 -0.01492,0.474368 0.01493,0.474633 0.04469,0.472781 0.07429,0.469001 0.103589,0.463446 0.132484,0.455999 0.160857,0.446816 0.188594,0.435817 0.215588,0.423118 0.241728,0.408718 0.266917,0.392768 0.29105,0.375307 0.314038,0.356032 0.335784,0.335622 0.356205,0.314078 0.375221,0.291024 0.392756,0.266834 0.408742,0.24189 0.423114,0.215433 0.435815,0.188598 0.446797,0.161008 0.456016,0.132661 0.463435,0.103559 0.469025,0.07446 0.472764,0.0446 0.474631,0.01485 0.474637,-0.01512 0.472764,-0.0446 0.469025,-0.07446 0.463435,-0.103559 0.456015,-0.132662 0.446798,-0.161007 0.435815,-0.188599 0.423114,-0.215433 0.408741,-0.241889 0.392757,-0.266835 0.37522,-0.291023 0.356206,-0.314079 0.335784,-0.335622 0.314037,-0.356031 0.29105,-0.375307 0.266918,-0.392769 0.241727,-0.408717 0.215588,-0.423118 0.188595,-0.435818 0.160857,-0.446815 0.132483,-0.456 0.10359,-0.463445 0.07429,-0.469002 0.04469,-0.472781 0.01492,-0.474368 -0.01493,-0.474633 -0.04469,-0.472781 -0.07429,-0.469001 -0.103589,-0.463446 -0.132484,-0.455999 -0.160857,-0.446816 -0.188594,-0.435817 -0.215588,-0.423118 -0.241728,-0.408718 -0.266917,-0.392768 -0.29105,-0.375307 -0.314038,-0.356032 -0.335784,-0.335622 -0.356205,-0.314078 -0.375221,-0.291024 -0.392756,-0.266834 -0.408742,-0.24189 -0.423114,-0.215433 -0.435815,-0.188598 -0.446797,-0.161008 -0.456016,-0.132661 -0.463435,-0.103559 -0.469025,-0.07446 -0.472764,-0.0446 -0.474631,-0.01485"
     id="path14"
     style="fill:none;stroke:#000000;stroke-width:3.69611" /><path
     d="m 64.354019,356.95601 -0.474637,0.0147 -0.472764,0.0447 -0.469025,0.0743 -0.463435,0.1036 -0.456015,0.13247 -0.446798,0.16086 -0.435815,0.18859 -0.423114,0.21559 -0.408741,0.24174 -0.392757,0.26691 -0.37522,0.29106 -0.356206,0.31404 -0.335784,0.33577 -0.314037,0.35622 -0.29105,0.37523 -0.266918,0.39276 -0.241727,0.40875 -0.215588,0.42311 -0.188595,0.43581 -0.160857,0.4468 -0.132483,0.45601 -0.10359,0.46344 -0.07429,0.46903 -0.04469,0.47276 -0.01492,0.47482 0.01493,0.47464 0.04469,0.47276 0.07429,0.46903 0.103589,0.46343 0.132484,0.45602 0.160857,0.44679 0.188594,0.43582 0.215588,0.42311 0.241728,0.40874 0.266917,0.39276 0.29105,0.37523 0.314038,0.35622 0.335784,0.33578 0.356205,0.31404 0.375221,0.29106 0.392756,0.26691 0.408742,0.24174 0.423114,0.21558 0.435815,0.1886 0.446797,0.16086 0.456016,0.13247 0.463435,0.10359 0.469025,0.0743 0.472764,0.0447 0.474631,0.0149 0.474637,-0.0147 0.472764,-0.0447 0.469025,-0.0743 0.463435,-0.1036 0.456015,-0.13247 0.446798,-0.16086 0.435815,-0.18859 0.423114,-0.21559 0.408741,-0.24174 0.392757,-0.26691 0.37522,-0.29106 0.356206,-0.31404 0.335784,-0.33577 0.314037,-0.35622 0.29105,-0.37523 0.266918,-0.39276 0.241727,-0.40875 0.215588,-0.42311 0.188595,-0.43581 0.160857,-0.4468 0.132483,-0.45601 0.10359,-0.46344 0.07429,-0.46903 0.04469,-0.47276 0.01492,-0.47482 -0.01493,-0.47464 -0.04469,-0.47276 -0.07429,-0.46903 -0.103589,-0.46343 -0.132484,-0.45602 -0.160857,-0.44679 -0.188594,-0.43582 -0.215588,-0.42311 -0.241728,-0.40874 -0.266917,-0.39276 -0.29105,-0.37523 -0.314038,-0.35622 -0.335784,-0.33578 -0.356205,-0.31404 -0.375221,-0.29106 -0.392756,-0.26691 -0.408742,-0.24174 -0.423114,-0.21558 -0.435815,-0.1886 -0.446797,-0.16086 -0.456016,-0.13247 -0.463435,-0.10359 -0.469025,-0.0743 -0.472764,-0.0447 -0.474631,-0.0149"
     id="path15"
     style="fill:none;stroke:#000000;stroke-width:3.69611" /><path
     d="m 64.354019,413.6489 -0.474637,0.0147 -0.472764,0.0447 -0.469025,0.0743 -0.463435,0.1036 -0.456015,0.13247 -0.446798,0.16086 -0.435815,0.18859 -0.423114,0.21559 -0.408741,0.24174 -0.392757,0.26691 -0.37522,0.29106 -0.356206,0.31404 -0.335784,0.33577 -0.314037,0.35622 -0.29105,0.37523 -0.266918,0.39276 -0.241727,0.40875 -0.215588,0.42311 -0.188595,0.43581 -0.160857,0.4468 -0.132483,0.45601 -0.10359,0.46344 -0.07429,0.46903 -0.04469,0.47276 -0.01492,0.47482 0.01493,0.47464 0.04469,0.47276 0.07429,0.46902 0.103589,0.46344 0.132484,0.45602 0.160857,0.44679 0.188594,0.43582 0.215588,0.42311 0.241728,0.40874 0.266917,0.39276 0.29105,0.37522 0.314038,0.35621 0.335784,0.33578 0.356205,0.31404 0.375221,0.29105 0.392756,0.26692 0.408742,0.24173 0.423114,0.21559 0.435815,0.18859 0.446797,0.16086 0.456016,0.13248 0.463435,0.10359 0.469025,0.0743 0.472764,0.0447 0.474631,0.0149 0.474637,-0.0149 0.472764,-0.0447 0.469025,-0.0743 0.463435,-0.10359 0.456015,-0.13249 0.446798,-0.16085 0.435815,-0.1886 0.423114,-0.21558 0.408741,-0.24173 0.392757,-0.26692 0.37522,-0.29105 0.356206,-0.31404 0.335784,-0.33578 0.314037,-0.35621 0.29105,-0.37522 0.266918,-0.39276 0.241727,-0.40874 0.215588,-0.42312 0.188595,-0.43581 0.160857,-0.4468 0.132483,-0.45601 0.10359,-0.46344 0.07429,-0.46902 0.0447,-0.47275 0.01492,-0.47464 -0.01493,-0.47464 -0.04469,-0.47276 -0.07429,-0.46903 -0.103589,-0.46343 -0.132484,-0.45602 -0.160857,-0.44679 -0.188594,-0.43582 -0.215588,-0.42311 -0.241728,-0.40874 -0.266917,-0.39276 -0.29105,-0.37523 -0.314038,-0.35622 -0.335784,-0.33578 -0.356205,-0.31404 -0.375221,-0.29106 -0.392756,-0.26691 -0.408742,-0.24174 -0.423114,-0.21558 -0.435815,-0.1886 -0.446797,-0.16086 -0.456016,-0.13247 -0.463435,-0.10359 -0.469025,-0.0743 -0.472764,-0.0447 -0.474631,-0.0149"
     id="path16"
     style="fill:none;stroke:#000000;stroke-width:3.69611" /><path
     d="m 574.59023,28.137246 -0.47463,0.01512 -0.47278,0.0446 -0.469,0.07446 -0.46345,0.103559 -0.456,0.132662 -0.44682,0.161007 -0.43581,0.188599 -0.42312,0.215433 -0.40872,0.241889 -0.39277,0.266835 -0.3753,0.291023 -0.35604,0.314079 -0.336,0.335622 -0.31407,0.356031 -0.29103,0.375307 -0.26683,0.392769 -0.24189,0.408717 -0.21544,0.423118 -0.18859,0.435818 -0.16101,0.446815 -0.13266,0.456 -0.10356,0.463445 -0.0745,0.469002 -0.0446,0.472781 -0.0145,0.474368 0.0151,0.474633 0.0446,0.472781 0.0745,0.469001 0.10356,0.463446 0.13266,0.455999 0.16101,0.446816 0.1886,0.435817 0.21543,0.423118 0.24189,0.408718 0.26683,0.392768 0.29103,0.375307 0.31408,0.356032 0.336,0.335622 0.35603,0.314078 0.3753,0.291024 0.39277,0.266834 0.40872,0.24189 0.42312,0.215433 0.43582,0.188598 0.44681,0.161008 0.456,0.132661 0.46345,0.103559 0.469,0.07446 0.47278,0.0446 0.47399,0.01485 0.47463,-0.01512 0.47279,-0.0446 0.469,-0.07446 0.46344,-0.103559 0.456,-0.132662 0.44682,-0.161007 0.43582,-0.188599 0.42311,-0.215433 0.40872,-0.241889 0.39277,-0.266835 0.37531,-0.291023 0.35603,-0.314079 0.336,-0.335622 0.31408,-0.356031 0.29102,-0.375307 0.26684,-0.392769 0.24189,-0.408717 0.21543,-0.423118 0.1886,-0.435818 0.16101,-0.446815 0.13266,-0.456 0.10356,-0.463445 0.0744,-0.469002 0.0446,-0.472781 0.0145,-0.474368 -0.0151,-0.474633 -0.0446,-0.472781 -0.0745,-0.469001 -0.10356,-0.463446 -0.13266,-0.455999 -0.16101,-0.446816 -0.18859,-0.435817 -0.21544,-0.423118 -0.24189,-0.408718 -0.26683,-0.392768 -0.29102,-0.375307 -0.31408,-0.356032 -0.336,-0.335622 -0.35603,-0.314078 -0.37531,-0.291024 -0.39277,-0.266834 -0.40872,-0.24189 -0.42312,-0.215433 -0.43581,-0.188598 -0.44682,-0.161008 -0.456,-0.132661 -0.46345,-0.103559 -0.469,-0.07446 -0.47278,-0.0446 -0.47399,-0.01485"
     id="path17"
     style="fill:none;stroke:#000000;stroke-width:3.69611" /><path
     d="m 631.28314,28.137246 -0.47463,0.01512 -0.47278,0.0446 -0.469,0.07446 -0.46345,0.103559 -0.456,0.132662 -0.44681,0.161007 -0.43582,0.188599 -0.42312,0.215433 -0.40872,0.241889 -0.39277,0.266835 -0.3753,0.291023 -0.35603,0.314079 -0.336,0.335622 -0.31408,0.356031 -0.29103,0.375307 -0.26683,0.392769 -0.24189,0.408717 -0.21543,0.423118 -0.1886,0.435818 -0.16101,0.446815 -0.13266,0.456 -0.10356,0.463445 -0.0745,0.469002 -0.0446,0.472781 -0.0145,0.474368 0.0151,0.474633 0.0446,0.472781 0.0744,0.469001 0.10356,0.463446 0.13266,0.455999 0.16101,0.446816 0.1886,0.435817 0.21543,0.423118 0.24189,0.408718 0.26684,0.392768 0.29102,0.375307 0.31408,0.356032 0.336,0.335622 0.35603,0.314078 0.37531,0.291024 0.39277,0.266834 0.40871,0.24189 0.42312,0.215433 0.43582,0.188598 0.44682,0.161008 0.456,0.132661 0.46344,0.103559 0.469,0.07446 0.47278,0.0446 0.47399,0.01485 0.47464,-0.01512 0.47278,-0.0446 0.469,-0.07446 0.46345,-0.103559 0.456,-0.132662 0.44681,-0.161007 0.43582,-0.188599 0.42312,-0.215433 0.40871,-0.241889 0.39277,-0.266835 0.37531,-0.291023 0.35603,-0.314079 0.336,-0.335622 0.31408,-0.356031 0.29102,-0.375307 0.26684,-0.392769 0.24189,-0.408717 0.21543,-0.423118 0.1886,-0.435818 0.16101,-0.446815 0.13266,-0.456 0.10356,-0.463445 0.0745,-0.469002 0.0446,-0.472781 0.0145,-0.474368 -0.0151,-0.474633 -0.0446,-0.472781 -0.0744,-0.469001 -0.10356,-0.463446 -0.13266,-0.455999 -0.16101,-0.446816 -0.1886,-0.435817 -0.21543,-0.423118 -0.24189,-0.408718 -0.26684,-0.392768 -0.29102,-0.375307 -0.31408,-0.356032 -0.336,-0.335622 -0.35603,-0.314078 -0.37531,-0.291024 -0.39277,-0.266834 -0.40872,-0.24189 -0.42311,-0.215433 -0.43582,-0.188598 -0.44682,-0.161008 -0.456,-0.132661 -0.46344,-0.103559 -0.469,-0.07446 -0.47279,-0.0446 -0.47399,-0.01485"
     id="path18"
     style="fill:none;stroke:#000000;stroke-width:3.69611" /><path
     d="m 1307.8186,890.86596 0.4746,-0.0151 0.4728,-0.0446 0.469,-0.0745 0.4635,-0.10356 0.456,-0.13266 0.4468,-0.16101 0.4358,-0.1886 0.4231,-0.21543 0.4087,-0.24189 0.3928,-0.26683 0.3752,-0.29103 0.3562,-0.31407 0.3358,-0.33563 0.314,-0.35603 0.2911,-0.37531 0.2669,-0.39276 0.2417,-0.40872 0.2156,-0.42312 0.1886,-0.43582 0.1609,-0.44681 0.1325,-0.456 0.1036,-0.46345 0.074,-0.469 0.045,-0.47278 0.015,-0.47437 -0.015,-0.47463 -0.045,-0.47278 -0.074,-0.469 -0.1036,-0.46345 -0.1325,-0.456 -0.1609,-0.44681 -0.1886,-0.43582 -0.2156,-0.42312 -0.2417,-0.40872 -0.2669,-0.39277 -0.2911,-0.3753 -0.314,-0.35603 -0.3358,-0.33563 -0.3562,-0.31407 -0.3752,-0.29103 -0.3928,-0.26683 -0.4087,-0.24189 -0.4231,-0.21543 -0.4358,-0.1886 -0.4468,-0.16101 -0.456,-0.13266 -0.4635,-0.10356 -0.469,-0.0745 -0.4728,-0.0446 -0.4746,-0.0149 -0.4746,0.0151 -0.4728,0.0446 -0.469,0.0744 -0.4635,0.10356 -0.456,0.13266 -0.4468,0.16101 -0.4358,0.1886 -0.4231,0.21543 -0.4087,0.24189 -0.3928,0.26684 -0.3752,0.29102 -0.3562,0.31408 -0.3358,0.33562 -0.314,0.35603 -0.2911,0.37531 -0.2669,0.39277 -0.2417,0.40872 -0.2156,0.42311 -0.1886,0.43582 -0.1609,0.44682 -0.1325,0.456 -0.1036,0.46344 -0.074,0.469 -0.045,0.47278 -0.015,0.47437 0.015,0.47463 0.045,0.47279 0.074,0.469 0.1036,0.46344 0.1325,0.456 0.1609,0.44682 0.1886,0.43582 0.2156,0.42311 0.2417,0.40872 0.2669,0.39277 0.2911,0.37531 0.314,0.35603 0.3358,0.33562 0.3562,0.31408 0.3752,0.29102 0.3928,0.26684 0.4087,0.24189 0.4231,0.21543 0.4358,0.1886 0.4468,0.16101 0.456,0.13266 0.4635,0.10356 0.469,0.0744 0.4728,0.0446 0.4746,0.0149"
     id="path50"
     style="fill:none;stroke:#000000;stroke-width:3.69611" /><path
     d="m 1307.8186,562.0472 0.4746,-0.0147 0.4728,-0.0447 0.469,-0.0743 0.4635,-0.1036 0.456,-0.13247 0.4468,-0.16086 0.4358,-0.18859 0.4231,-0.21559 0.4087,-0.24174 0.3928,-0.26691 0.3752,-0.29106 0.3562,-0.31404 0.3358,-0.33577 0.314,-0.35622 0.2911,-0.37523 0.2669,-0.39276 0.2417,-0.40875 0.2156,-0.42311 0.1886,-0.43581 0.1609,-0.4468 0.1325,-0.45601 0.1036,-0.46344 0.074,-0.46903 0.045,-0.47276 0.015,-0.47482 -0.015,-0.47464 -0.045,-0.47276 -0.074,-0.46903 -0.1036,-0.46343 -0.1325,-0.45602 -0.1609,-0.44679 -0.1886,-0.43582 -0.2156,-0.42311 -0.2417,-0.40874 -0.2669,-0.39276 -0.2911,-0.37523 -0.314,-0.35622 -0.3358,-0.33578 -0.3562,-0.31404 -0.3752,-0.29106 -0.3928,-0.26691 -0.4087,-0.24174 -0.4231,-0.21558 -0.4358,-0.1886 -0.4468,-0.16086 -0.456,-0.13247 -0.4635,-0.10359 -0.469,-0.0743 -0.4728,-0.0447 -0.4746,-0.0149 -0.4746,0.0147 -0.4728,0.0447 -0.469,0.0743 -0.4635,0.1036 -0.456,0.13247 -0.4468,0.16086 -0.4358,0.18859 -0.4231,0.21559 -0.4087,0.24174 -0.3928,0.26691 -0.3752,0.29106 -0.3562,0.31404 -0.3358,0.33577 -0.314,0.35622 -0.2911,0.37523 -0.2669,0.39276 -0.2417,0.40875 -0.2156,0.42311 -0.1886,0.43581 -0.1609,0.4468 -0.1325,0.45601 -0.1036,0.46344 -0.074,0.46903 -0.045,0.47276 -0.015,0.47482 0.015,0.47464 0.045,0.47276 0.074,0.46903 0.1036,0.46343 0.1325,0.45602 0.1609,0.44679 0.1886,0.43582 0.2156,0.42311 0.2417,0.40874 0.2669,0.39276 0.2911,0.37523 0.314,0.35622 0.3358,0.33578 0.3562,0.31404 0.3752,0.29106 0.3928,0.26691 0.4087,0.24174 0.4231,0.21558 0.4358,0.1886 0.4468,0.16086 0.456,0.13247 0.4635,0.10359 0.469,0.0743 0.4728,0.0447 0.4746,0.0149"
     id="path51"
     style="fill:none;stroke:#000000;stroke-width:3.69611" /><path
     d="m 1307.8186,505.35431 0.4746,-0.0147 0.4728,-0.0447 0.469,-0.0743 0.4635,-0.1036 0.456,-0.13247 0.4468,-0.16086 0.4358,-0.18859 0.4231,-0.21559 0.4087,-0.24174 0.3928,-0.26691 0.3752,-0.29106 0.3562,-0.31404 0.3358,-0.33577 0.314,-0.35622 0.2911,-0.37523 0.2669,-0.39276 0.2417,-0.40875 0.2156,-0.42311 0.1886,-0.43581 0.1609,-0.4468 0.1325,-0.45601 0.1036,-0.46344 0.074,-0.46903 0.045,-0.47276 0.015,-0.47482 -0.015,-0.47464 -0.045,-0.47276 -0.074,-0.46902 -0.1036,-0.46344 -0.1325,-0.45602 -0.1609,-0.44679 -0.1886,-0.43582 -0.2156,-0.42311 -0.2417,-0.40874 -0.2669,-0.39276 -0.2911,-0.37522 -0.314,-0.35621 -0.3358,-0.33578 -0.3562,-0.31404 -0.3752,-0.29105 -0.3928,-0.26692 -0.4087,-0.24173 -0.4231,-0.21559 -0.4358,-0.18859 -0.4468,-0.16086 -0.456,-0.13248 -0.4635,-0.10359 -0.469,-0.0743 -0.4728,-0.0447 -0.4746,-0.0149 -0.4746,0.0149 -0.4728,0.0447 -0.469,0.0743 -0.4635,0.10359 -0.456,0.13249 -0.4468,0.16085 -0.4358,0.1886 -0.4231,0.21558 -0.4087,0.24173 -0.3928,0.26692 -0.3752,0.29105 -0.3562,0.31404 -0.3358,0.33578 -0.314,0.35621 -0.2911,0.37522 -0.2669,0.39276 -0.2417,0.40874 -0.2156,0.42312 -0.1886,0.43581 -0.1609,0.4468 -0.1325,0.45601 -0.1036,0.46344 -0.074,0.46902 -0.045,0.47275 -0.015,0.47464 0.015,0.47464 0.045,0.47276 0.074,0.46903 0.1036,0.46343 0.1325,0.45602 0.1609,0.44679 0.1886,0.43582 0.2156,0.42311 0.2417,0.40874 0.2669,0.39276 0.2911,0.37523 0.314,0.35622 0.3358,0.33578 0.3562,0.31404 0.3752,0.29106 0.3928,0.26691 0.4087,0.24174 0.4231,0.21558 0.4358,0.1886 0.4468,0.16086 0.456,0.13247 0.4635,0.10359 0.469,0.0743 0.4728,0.0447 0.4746,0.0149"
     id="path52"
     style="fill:none;stroke:#000000;stroke-width:3.69611" /><path
     d="m 797.58239,890.86596 0.47463,-0.0151 0.47278,-0.0446 0.469,-0.0745 0.46345,-0.10356 0.456,-0.13266 0.44681,-0.16101 0.43582,-0.1886 0.42312,-0.21543 0.40872,-0.24189 0.39277,-0.26683 0.3753,-0.29103 0.35604,-0.31407 0.336,-0.33563 0.31407,-0.35603 0.29103,-0.37531 0.26683,-0.39276 0.24189,-0.40872 0.21544,-0.42312 0.18859,-0.43582 0.16101,-0.44681 0.13266,-0.456 0.10356,-0.46345 0.0745,-0.469 0.0446,-0.47278 0.0145,-0.47437 -0.0151,-0.47463 -0.0446,-0.47278 -0.0745,-0.469 -0.10356,-0.46345 -0.13266,-0.456 -0.16101,-0.44681 -0.1886,-0.43582 -0.21543,-0.42312 -0.24189,-0.40872 -0.26683,-0.39277 -0.29103,-0.3753 -0.31408,-0.35603 -0.336,-0.33563 -0.35603,-0.31407 -0.37531,-0.29103 -0.39276,-0.26683 -0.40872,-0.24189 -0.42312,-0.21543 -0.43582,-0.1886 -0.44681,-0.16101 -0.456,-0.13266 -0.46345,-0.10356 -0.469,-0.0745 -0.47278,-0.0446 -0.47399,-0.0149 -0.47464,0.0151 -0.47278,0.0446 -0.469,0.0744 -0.46344,0.10356 -0.456,0.13266 -0.44682,0.16101 -0.43582,0.1886 -0.42312,0.21543 -0.40871,0.24189 -0.39277,0.26684 -0.37531,0.29102 -0.35603,0.31408 -0.336,0.33562 -0.31408,0.35603 -0.29102,0.37531 -0.26684,0.39277 -0.24189,0.40872 -0.21543,0.42311 -0.1886,0.43582 -0.16101,0.44682 -0.13266,0.456 -0.10356,0.46344 -0.0745,0.469 -0.0446,0.47278 -0.0145,0.47437 0.0151,0.47463 0.0446,0.47279 0.0745,0.469 0.10355,0.46344 0.13267,0.456 0.161,0.44682 0.1886,0.43582 0.21544,0.42311 0.24189,0.40872 0.26683,0.39277 0.29102,0.37531 0.31408,0.35603 0.336,0.33562 0.35603,0.31408 0.37531,0.29102 0.39277,0.26684 0.40872,0.24189 0.42312,0.21543 0.43581,0.1886 0.44682,0.16101 0.456,0.13266 0.46344,0.10356 0.46901,0.0744 0.47278,0.0446 0.47399,0.0149"
     id="path53"
     style="fill:none;stroke:#000000;stroke-width:3.69611" /><path
     d="m 740.88948,890.86596 0.47463,-0.0151 0.47278,-0.0446 0.469,-0.0745 0.46345,-0.10356 0.456,-0.13266 0.44681,-0.16101 0.43582,-0.1886 0.42312,-0.21543 0.40872,-0.24189 0.39276,-0.26683 0.37531,-0.29103 0.35603,-0.31407 0.336,-0.33563 0.31408,-0.35603 0.29103,-0.37531 0.26683,-0.39276 0.24189,-0.40872 0.21543,-0.42312 0.1886,-0.43582 0.16101,-0.44681 0.13266,-0.456 0.10356,-0.46345 0.0745,-0.469 0.0446,-0.47278 0.0145,-0.47437 -0.0151,-0.47463 -0.0446,-0.47278 -0.0745,-0.469 -0.10356,-0.46345 -0.13266,-0.456 -0.16101,-0.44681 -0.1886,-0.43582 -0.21543,-0.42312 -0.24189,-0.40872 -0.26684,-0.39277 -0.29102,-0.3753 -0.31408,-0.35603 -0.336,-0.33563 -0.35603,-0.31407 -0.37531,-0.29103 -0.39277,-0.26683 -0.40871,-0.24189 -0.42312,-0.21543 -0.43582,-0.1886 -0.44682,-0.16101 -0.456,-0.13266 -0.46344,-0.10356 -0.469,-0.0745 -0.47278,-0.0446 -0.47399,-0.0149 -0.47464,0.0151 -0.47278,0.0446 -0.469,0.0744 -0.46345,0.10356 -0.456,0.13266 -0.44681,0.16101 -0.43582,0.1886 -0.42312,0.21543 -0.40872,0.24189 -0.39276,0.26684 -0.37531,0.29102 -0.35603,0.31408 -0.336,0.33562 -0.31408,0.35603 -0.29103,0.37531 -0.26683,0.39277 -0.24189,0.40872 -0.21543,0.42311 -0.1886,0.43582 -0.16101,0.44682 -0.13266,0.456 -0.10356,0.46344 -0.0745,0.469 -0.0446,0.47278 -0.0145,0.47437 0.0151,0.47463 0.0446,0.47279 0.0745,0.469 0.10356,0.46344 0.13266,0.456 0.16101,0.44682 0.1886,0.43582 0.21543,0.42311 0.24189,0.40872 0.26684,0.39277 0.29102,0.37531 0.31408,0.35603 0.336,0.33562 0.35603,0.31408 0.37531,0.29102 0.39277,0.26684 0.40871,0.24189 0.42312,0.21543 0.43582,0.1886 0.44682,0.16101 0.456,0.13266 0.46344,0.10356 0.469,0.0744 0.47278,0.0446 0.474,0.0149"
     id="path54"
     style="fill:none;stroke:#000000;stroke-width:3.69611" /><path
     d="m 1307.8183,413.64673 -0.4746,0.0147 -0.4728,0.0447 -0.469,0.0743 -0.4635,0.10359 -0.456,0.13248 -0.4468,0.16085 -0.4358,0.1886 -0.4231,0.21558 -0.4087,0.24174 -0.3928,0.26691 -0.3752,0.29106 -0.3562,0.31404 -0.3358,0.33577 -0.314,0.35622 -0.2911,0.37523 -0.2669,0.39276 -0.2417,0.40874 -0.2156,0.42311 -0.1886,0.43582 -0.1609,0.4468 -0.1325,0.45601 -0.1036,0.46343 -0.074,0.46903 -0.045,0.47276 -0.015,0.47482 0.015,0.47464 0.045,0.47276 0.074,0.46902 0.1035,0.46344 0.1325,0.45601 0.1609,0.4468 0.1886,0.43581 0.2156,0.42311 0.2417,0.40874 0.2669,0.39276 0.2911,0.37522 0.314,0.35621 0.3358,0.33578 0.3562,0.31404 0.3752,0.29105 0.3928,0.26692 0.4087,0.24173 0.4231,0.21558 0.4358,0.1886 0.4468,0.16085 0.456,0.13249 0.4635,0.10359 0.469,0.0743 0.4728,0.0447 0.4746,0.0149 0.4746,-0.0149 0.4728,-0.0447 0.469,-0.0743 0.4635,-0.10359 0.456,-0.13248 0.4468,-0.16086 0.4358,-0.18859 0.4231,-0.21559 0.4087,-0.24172 0.3928,-0.26692 0.3752,-0.29105 0.3562,-0.31404 0.3358,-0.33579 0.314,-0.3562 0.2911,-0.37522 0.2669,-0.39276 0.2417,-0.40874 0.2156,-0.42311 0.1886,-0.43582 0.1609,-0.44679 0.1325,-0.45602 0.1036,-0.46343 0.074,-0.46902 0.045,-0.47275 0.015,-0.47464 -0.015,-0.47463 -0.045,-0.47277 -0.074,-0.46902 -0.1035,-0.46344 -0.1325,-0.45601 -0.1609,-0.4468 -0.1886,-0.43581 -0.2156,-0.42311 -0.2417,-0.40874 -0.2669,-0.39276 -0.2911,-0.37523 -0.314,-0.35622 -0.3358,-0.33577 -0.3562,-0.31404 -0.3752,-0.29106 -0.3928,-0.26691 -0.4087,-0.24174 -0.4231,-0.21559 -0.4358,-0.18859 -0.4468,-0.16086 -0.456,-0.13247 -0.4635,-0.1036 -0.469,-0.0743 -0.4728,-0.0447 -0.4746,-0.0149"
     id="path14-7"
     style="fill:none;stroke:#000000;stroke-width:3.92707" /><path
     d="m 1307.8183,356.95396 -0.4746,0.0147 -0.4728,0.0447 -0.469,0.0743 -0.4635,0.10359 -0.456,0.13248 -0.4468,0.16085 -0.4358,0.1886 -0.4231,0.21558 -0.4087,0.24174 -0.3928,0.26691 -0.3752,0.29106 -0.3562,0.31404 -0.3358,0.33578 -0.314,0.35622 -0.2911,0.37523 -0.2669,0.39275 -0.2417,0.40875 -0.2156,0.4231 -0.1886,0.43582 -0.1609,0.4468 -0.1325,0.45601 -0.1036,0.46343 -0.074,0.46903 -0.045,0.47276 -0.015,0.47482 0.015,0.47464 0.045,0.47276 0.074,0.46903 0.1035,0.46343 0.1325,0.45601 0.1609,0.4468 0.1886,0.43581 0.2156,0.42311 0.2417,0.40875 0.2669,0.39275 0.2911,0.37523 0.314,0.35622 0.3358,0.33578 0.3562,0.31404 0.3752,0.29106 0.3928,0.26691 0.4087,0.24173 0.4231,0.21559 0.4358,0.1886 0.4468,0.16085 0.456,0.13247 0.4635,0.1036 0.469,0.0743 0.4728,0.0447 0.4746,0.0149 0.4746,-0.0147 0.4728,-0.0447 0.469,-0.0743 0.4635,-0.1036 0.456,-0.13247 0.4468,-0.16086 0.4358,-0.1886 0.4231,-0.21558 0.4087,-0.24174 0.3928,-0.26691 0.3752,-0.29106 0.3562,-0.31404 0.3358,-0.33577 0.314,-0.35622 0.2911,-0.37523 0.2669,-0.39276 0.2417,-0.40874 0.2156,-0.42311 0.1886,-0.43582 0.1609,-0.44679 0.1325,-0.45602 0.1036,-0.46343 0.074,-0.46903 0.045,-0.47276 0.015,-0.47482 -0.015,-0.47463 -0.045,-0.47276 -0.074,-0.46903 -0.1035,-0.46343 -0.1325,-0.45602 -0.1609,-0.44679 -0.1886,-0.43582 -0.2156,-0.42311 -0.2417,-0.40874 -0.2669,-0.39276 -0.2911,-0.37523 -0.314,-0.35622 -0.3358,-0.33577 -0.3562,-0.31404 -0.3752,-0.29106 -0.3928,-0.26691 -0.4087,-0.24174 -0.4231,-0.21558 -0.4358,-0.1886 -0.4468,-0.16086 -0.456,-0.13247 -0.4635,-0.1036 -0.469,-0.0743 -0.4728,-0.0447 -0.4746,-0.0149"
     id="path15-9"
     style="fill:none;stroke:#000000;stroke-width:3.92707" /><path
     d="m 1307.8183,28.135899 -0.4746,0.01512 -0.4728,0.0446 -0.469,0.07446 -0.4635,0.103559 -0.456,0.132661 -0.4468,0.161008 -0.4358,0.188598 -0.4231,0.215432 -0.4087,0.241889 -0.3928,0.266834 -0.3752,0.291023 -0.3562,0.314078 -0.3358,0.335621 -0.314,0.356031 -0.2911,0.375306 -0.2669,0.392767 -0.2417,0.408717 -0.2156,0.423118 -0.1886,0.435816 -0.1609,0.446814 -0.1325,0.455999 -0.1036,0.463445 -0.074,0.469 -0.045,0.47278 -0.015,0.474367 0.015,0.474632 0.045,0.47278 0.074,0.469 0.1035,0.463445 0.1325,0.455999 0.1609,0.446814 0.1886,0.435816 0.2156,0.423117 0.2417,0.408718 0.2669,0.392767 0.2911,0.375306 0.314,0.356031 0.3358,0.335621 0.3562,0.314078 0.3752,0.291023 0.3928,0.266834 0.4087,0.241889 0.4231,0.215432 0.4358,0.188598 0.4468,0.161008 0.456,0.132661 0.4635,0.103559 0.469,0.07446 0.4728,0.0446 0.4746,0.01485 0.4746,-0.01512 0.4728,-0.0446 0.469,-0.07446 0.4635,-0.103559 0.456,-0.132661 0.4468,-0.161007 0.4358,-0.188598 0.4231,-0.215433 0.4087,-0.241889 0.3928,-0.266834 0.3752,-0.291023 0.3562,-0.314078 0.3358,-0.335621 0.314,-0.35603 0.2911,-0.375307 0.2669,-0.392767 0.2417,-0.408717 0.2156,-0.423117 0.1886,-0.435816 0.1609,-0.446815 0.1325,-0.455999 0.1036,-0.463444 0.074,-0.469001 0.045,-0.47278 0.015,-0.474367 -0.015,-0.474632 -0.045,-0.47278 -0.074,-0.469 -0.1035,-0.463444 -0.1325,-0.455999 -0.1609,-0.446815 -0.1886,-0.435816 -0.2156,-0.423117 -0.2417,-0.408717 -0.2669,-0.392768 -0.2911,-0.375306 -0.314,-0.35603 -0.3358,-0.335622 -0.3562,-0.314077 -0.3752,-0.291023 -0.3928,-0.266834 -0.4087,-0.241889 -0.4231,-0.215433 -0.4358,-0.188598 -0.4468,-0.161007 -0.456,-0.132661 -0.4635,-0.103559 -0.469,-0.07446 -0.4728,-0.0446 -0.4746,-0.01485"
     id="path16-2"
     style="fill:none;stroke:#000000;stroke-width:3.92707" /><path
     d="m 699.31461,28.135899 -0.47463,0.01512 -0.47278,0.0446 -0.469,0.07446 -0.46345,0.103559 -0.456,0.132661 -0.44681,0.161008 -0.43582,0.188598 -0.42312,0.215432 -0.40872,0.241889 -0.39276,0.266834 -0.37531,0.291023 -0.35603,0.314078 -0.336,0.335621 -0.31408,0.356031 -0.29102,0.375306 -0.26684,0.392767 -0.24189,0.408717 -0.21543,0.423118 -0.1886,0.435816 -0.16101,0.446814 -0.13266,0.455999 -0.10356,0.463445 -0.0744,0.469 -0.0446,0.47278 -0.0145,0.474367 0.0151,0.474632 0.0446,0.47278 0.0745,0.469 0.10355,0.463445 0.13267,0.455999 0.161,0.446814 0.1886,0.435816 0.21543,0.423117 0.24189,0.408718 0.26684,0.392767 0.29102,0.375306 0.31408,0.356031 0.336,0.335621 0.35603,0.314078 0.37531,0.291023 0.39277,0.266834 0.40872,0.241889 0.42311,0.215432 0.43582,0.188598 0.44682,0.161008 0.456,0.132661 0.46344,0.103559 0.469,0.07446 0.47278,0.0446 0.47464,0.01512 0.47463,-0.01512 0.47278,-0.0446 0.469,-0.07446 0.46345,-0.103559 0.456,-0.132661 0.44681,-0.161008 0.43582,-0.188598 0.42312,-0.215432 0.40872,-0.241889 0.39276,-0.266834 0.37531,-0.291023 0.35603,-0.314078 0.336,-0.335621 0.31408,-0.356031 0.29102,-0.375306 0.26684,-0.392767 0.24189,-0.408718 0.21543,-0.423117 0.1886,-0.435816 0.16101,-0.446814 0.13266,-0.455999 0.10356,-0.463445 0.0745,-0.469 0.0446,-0.47278 0.0138,-0.474632 -0.0151,-0.474632 -0.0446,-0.47278 -0.0745,-0.469 -0.10356,-0.463444 -0.13266,-0.455999 -0.16101,-0.446815 -0.18859,-0.435816 -0.21544,-0.423117 -0.24189,-0.408717 -0.26683,-0.392768 -0.29102,-0.375306 -0.31408,-0.35603 -0.336,-0.335622 -0.35603,-0.314077 -0.37531,-0.291023 -0.39277,-0.266834 -0.40872,-0.241889 -0.42312,-0.215433 -0.43581,-0.188598 -0.44682,-0.161007 -0.456,-0.132661 -0.46344,-0.103559 -0.469,-0.07446 -0.47279,-0.0446 -0.47399,-0.01485"
     id="path17-0"
     style="fill:none;stroke:#000000;stroke-width:3.92707" /><path
     d="m 756.0075,28.135899 -0.47463,0.01512 -0.47278,0.0446 -0.469,0.07446 -0.46345,0.103559 -0.456,0.132661 -0.44681,0.161008 -0.43582,0.188598 -0.42312,0.215432 -0.40872,0.241889 -0.39276,0.266834 -0.37531,0.291023 -0.35603,0.314078 -0.336,0.335621 -0.31408,0.356031 -0.29102,0.375306 -0.26684,0.392767 -0.24189,0.408717 -0.21543,0.423118 -0.1886,0.435816 -0.16101,0.446814 -0.13266,0.455999 -0.10356,0.463445 -0.0745,0.469 -0.0446,0.47278 -0.0145,0.474367 0.0151,0.474632 0.0446,0.47278 0.0745,0.469 0.10355,0.463445 0.13267,0.455999 0.161,0.446814 0.1886,0.435816 0.21543,0.423117 0.24189,0.408718 0.26684,0.392767 0.29102,0.375306 0.31408,0.356031 0.336,0.335621 0.35603,0.314078 0.37531,0.291023 0.39277,0.266834 0.40872,0.241889 0.42311,0.215432 0.43582,0.188598 0.44682,0.161008 0.456,0.132661 0.46344,0.103559 0.469,0.07446 0.47278,0.0446 0.47464,0.01512 0.47463,-0.01512 0.47278,-0.0446 0.469,-0.07446 0.46345,-0.103559 0.456,-0.132661 0.44681,-0.161008 0.43582,-0.188598 0.42312,-0.215432 0.40872,-0.241889 0.39276,-0.266834 0.37531,-0.291023 0.35603,-0.314078 0.336,-0.335621 0.31408,-0.356031 0.29102,-0.375306 0.26684,-0.392767 0.24189,-0.408718 0.21543,-0.423117 0.1886,-0.435816 0.16101,-0.446814 0.13266,-0.455999 0.10356,-0.463445 0.0744,-0.469 0.0446,-0.47278 0.0138,-0.474632 -0.0151,-0.474632 -0.0446,-0.47278 -0.0745,-0.469 -0.10356,-0.463444 -0.13266,-0.455999 -0.16101,-0.446815 -0.18859,-0.435816 -0.21544,-0.423117 -0.24189,-0.408717 -0.26683,-0.392768 -0.29102,-0.375306 -0.31408,-0.35603 -0.336,-0.335622 -0.35603,-0.314077 -0.37531,-0.291023 -0.39277,-0.266834 -0.40872,-0.241889 -0.42312,-0.215433 -0.43581,-0.188598 -0.44682,-0.161007 -0.456,-0.132661 -0.46344,-0.103559 -0.469,-0.07446 -0.47279,-0.0446 -0.47399,-0.01485"
     id="path18-2"
     style="fill:none;stroke:#000000;stroke-width:3.92707" /><path
     id="path67"
     style="fill:none;stroke:#000000;stroke-width:3.92707"
     d="m 45.456646,459.00472 0.011,8.5141 0.02018,8.47325 0.01043,8.42937 -0.0043,4.19727 -0.01372,4.18513 -0.02547,4.17272 -0.03776,4.18443 -0.0886,8.46244 -0.03659,4.28027 -0.02166,4.31439 7.96e-4,4.3495 0.01123,2.18822 0.01973,2.19734 0.02922,2.20656 0.0397,2.21588 0.05119,2.2253 0.06364,2.23391 0.07584,2.22905 0.08661,2.21948 0.09596,2.20976 0.103918,2.19991 0.226258,4.36966 0.241912,4.32839 0.48937,8.52715 0.227471,4.19551 0.203157,4.14771 0.08956,2.05531 0.08005,2.04262 0.06943,2.02966 0.05772,2.01642 0.04496,2.00292 0.03118,1.98916 0.01637,1.97513 5.63e-4,1.96083 -0.01621,1.94628 -0.0339,1.93149 -0.05253,1.91645 -0.07204,1.90119 -0.09243,1.88574 -0.113673,1.8701 -0.135742,1.85432 -0.158619,1.83839 -0.18229,1.82238 -0.206737,1.80632 -0.231945,1.79024 -0.2579,1.7742 -0.284602,1.75825 -0.313285,1.75041 -0.344281,1.75793 -0.374626,1.76607 -0.404224,1.77442 -0.433035,1.78293 -0.461029,1.79159 -0.488172,1.80033 -0.514433,1.80916 -0.539779,1.81805 -0.564178,1.82698 -0.587603,1.83595 -0.610022,1.84495 -0.631407,1.85395 -0.651731,1.86299 -0.670966,1.87205 -0.689087,1.88114 -0.706068,1.89027 -0.721886,1.89945 -0.736517,1.90869 -0.749939,1.918 -0.762131,1.9274 -1.55582,3.88346 -3.201744,7.88554 -1.624261,4.00376 -1.61995,4.02695 -1.608683,4.04496 -1.593494,4.06442 -1.574327,4.08529 -0.778726,2.05093 -0.772422,2.05669 -0.765607,2.06264 -0.758283,2.06877 -0.750436,2.07507 -0.742068,2.08157 -0.733175,2.08825 -0.723753,2.09511 -0.713798,2.10215 -0.703301,2.10937 -0.692273,2.11677 -0.680693,2.12436 -0.668564,2.13211 -0.655884,2.14004 -0.642648,2.14815 -0.628849,2.15641 -0.614486,2.16486 -0.599558,2.17345 -0.584054,2.18221 -0.56798,2.19111 -0.551327,2.20017 -0.534088,2.20937 -0.516272,2.21871 -0.497862,2.22817 -0.478866,2.23777 -0.45928,2.24749 -0.439098,2.25731 -0.418326,2.26724 -0.396948,2.27727 -0.374967,2.28739 -0.352403,2.29759 -0.329234,2.30787 -0.305499,2.31821 -0.281122,2.32862 -0.256176,2.33907 -0.230627,2.34956 -0.204472,2.3601 -0.177713,2.37064 -0.150388,2.38122 -0.122494,2.3918 -0.09403,2.40238 -0.06497,2.41295 -0.03553,2.42352 -0.0064,1.21571 0.0012,1.21834 0.0091,1.22097 0.01663,1.22359 0.02457,1.22622 0.0325,1.22882 0.04033,1.23141 0.0483,1.23328 0.05624,1.23479 0.06418,1.23618 0.07211,1.23746 0.08005,1.23862 0.08799,1.23967 0.09589,1.24061 0.103786,1.24143 0.111685,1.24215 0.119584,1.24273 0.127484,1.24322 0.135344,1.24359 0.143244,1.24383 0.151144,1.24397 0.159004,1.24399 0.166904,1.24389 0.174803,1.24367 0.182665,1.24334 0.190563,1.24289 0.198463,1.24232 0.206362,1.24164 0.2143,1.24084 0.222198,1.23992 0.230135,1.23887 0.238073,1.23772 0.246009,1.23644 0.253984,1.23505 0.261921,1.23353 0.269934,1.2319 0.277909,1.23014 0.285921,1.22827 0.293971,1.22628 0.301984,1.22416 0.310073,1.22193 0.31816,1.21958 0.326249,1.21711 0.334374,1.21452 0.342501,1.2118 0.350702,1.20897 0.358866,1.20602 0.367106,1.20295 0.375344,1.19975 0.383622,1.19645 0.391926,1.19297 0.400263,1.18945 0.408631,1.18578 0.417029,1.18193 0.425473,1.17808 0.433942,1.17399 0.442454,1.1698 0.451007,1.16557 0.459602,1.1611 0.468241,1.15661 0.47692,1.15192 0.485654,1.14713 0.49443,1.14224 0.503259,1.13718 0.512141,1.13201 0.521079,1.12671 0.530075,1.12131 0.539127,1.11571 0.548239,1.11004 0.55742,1.10423 0.56666,1.09825 0.575973,1.09217 0.585354,1.08593 0.594803,1.07958 0.604335,1.07304 0.613935,1.06636 0.623618,1.05958 0.633381,1.0526 0.64323,1.04549 0.653158,1.03823 0.663175,1.03083 0.673285,1.02323 0.683483,1.01548 0.693772,1.00754 0.704158,0.9995 0.714638,0.99121 0.725216,0.98275 0.735892,0.97414 0.746667,0.96532 0.757543,0.9563 0.76852,0.94711 0.779596,0.93766 0.790776,0.92802 0.802055,0.91819 0.813435,0.90811 0.824914,0.89782 0.836492,0.88725 0.848166,0.8765 0.859936,0.86544 0.871796,0.85417 0.883746,0.84257 0.895781,0.83073 0.906971,0.81778 0.916058,0.80296 0.924884,0.78803 0.933513,0.77306 0.941944,0.75813 0.95017,0.74321 0.95819,0.72824 0.966002,0.7133 0.973606,0.69842 0.980999,0.68356 0.988182,0.66875 0.995157,0.65393 1.001923,0.63923 1.008481,0.62457 1.014835,0.61001 1.020987,0.59547 1.026939,0.58106 1.032694,0.5667 1.038257,0.55249 1.043631,0.53836 1.04882,0.52437 1.053829,0.51042 1.058661,0.49667 1.063323,0.48302 1.067817,0.46953 1.072151,0.45611 1.076329,0.44288 1.080355,0.42981 1.084236,0.41684 1.087976,0.40403 1.091582,0.39141 1.095055,0.3789 1.098407,0.36661 1.101636,0.35452 1.104752,0.34242 1.107758,0.33033 1.110661,0.319 1.11346,0.30727 1.11617,0.29594 1.11878,0.28459 1.12131,0.27364 1.12376,0.26268 1.12613,0.25209 1.12842,0.24151 1.13065,0.23093 1.13281,0.2211 1.1349,0.2109 1.13693,0.20107 1.13891,0.19124 1.14084,0.18142 1.14271,0.17197 1.14453,0.1629 1.14631,0.15382 1.14804,0.14476 1.149742,0.13568 1.15139,0.12699 1.153,0.11868 1.15458,0.11036 1.15612,0.10205 1.15763,0.0937 1.1591,0.0858 1.16056,0.0782 1.16196,0.0703 1.16336,0.0627 2.33075,0.10318 2.33596,0.0745 2.34096,0.0469 2.34576,0.0189 2.35035,-0.004 2.35475,-0.0302 2.35894,-0.054 2.36294,-0.0771 2.36674,-0.099 2.37032,-0.12019 2.3737,-0.1406 2.37688,-0.15988 2.37983,-0.17839 2.38256,-0.19616 2.38507,-0.21316 2.38735,-0.22942 2.38938,-0.24491 2.39118,-0.25927 2.39272,-0.27289 2.39401,-0.28611 2.39502,-0.29858 2.39578,-0.30992 2.39624,-0.3205 2.39642,-0.33071 2.39631,-0.34016 2.39588,-0.34847 4.78924,-0.71999 4.78371,-0.74567 4.77547,-0.76565 4.76446,-0.78002 4.75059,-0.78878 9.4476,-1.58173 4.6907,-0.78206 4.66424,-0.76898 4.63437,-0.7505 4.601,-0.72669 4.56397,-0.69762 2.26694,-0.33638 2.25627,-0.32693 2.24512,-0.3171 2.23347,-0.30689 2.22132,-0.29556 2.20866,-0.28384 2.19549,-0.27137 2.1818,-0.25852 2.16758,-0.24492 2.15281,-0.23092 2.1375,-0.21619 2.12177,-0.20069 2.11148,-0.18558 2.10453,-0.17121 2.09796,-0.15723 2.09175,-0.14362 2.08593,-0.13039 2.08048,-0.11755 2.07538,-0.10507 2.07065,-0.093 2.06629,-0.0813 2.06228,-0.0703 2.05862,-0.0593 2.05532,-0.0488 2.05236,-0.0389 2.04975,-0.0302 2.04748,-0.0189 2.04555,-0.0113 2.04396,-0.003 2.04269,0.004 4.08291,0.034 4.08175,0.0593 4.08313,0.0828 4.08699,0.10318 4.09328,0.11981 4.10194,0.13342 8.23915,0.29291 8.3011,0.30425 4.17922,0.14702 4.20113,0.13909 4.22508,0.12699 4.24458,0.1115 4.25042,0.0952 4.25528,0.0797 4.25965,0.065 4.26355,0.0514 4.26697,0.0385 4.26991,0.0265 4.27235,0.0151 4.27432,0.008 4.27578,-0.003 4.27676,-0.0113 8.55445,-0.0446 8.55235,-0.0669 8.54618,-0.082 17.05745,-0.18217 8.50336,-0.0862 8.49362,-0.0763 8.48858,-0.0661 8.48394,-0.0563 8.47956,-0.0476 8.47555,-0.0389 16.94025,-0.054 16.92785,-0.0264 16.91799,-0.002 16.91066,0.0189 16.90586,0.034 33.80714,0.0975 33.81776,0.11074 16.91909,0.0499 c 17.18489,0.0501 30.08162,0.80023 50.82775,0.81002 m 619.84214,-441.83132 -0.011,-9.62617 -0.02,-8.47325 -0.01,-8.42937 v -4.19727 l 0.014,-4.18513 0.025,-4.17272 0.038,-4.18443 0.089,-8.46244 0.037,-4.28027 0.022,-4.31439 -8e-4,-4.3495 -0.011,-2.18822 -0.02,-2.19734 -0.029,-2.20656 -0.04,-2.21588 -0.051,-2.2253 -0.064,-2.23391 -0.076,-2.22905 -0.087,-2.21948 -0.096,-2.20976 -0.1039,-2.19991 -0.2263,-4.36966 -0.2419,-4.32839 -0.4893,-8.52715 -0.2275,-4.19551 -0.2032,-4.14771 -0.09,-2.05531 -0.08,-2.04262 -0.069,-2.02966 -0.058,-2.01642 -0.045,-2.00292 -0.031,-1.98916 -0.016,-1.97513 -6e-4,-1.96083 0.016,-1.94628 0.034,-1.93149 0.053,-1.91645 0.072,-1.90119 0.092,-1.88574 0.1137,-1.8701 0.1357,-1.85432 0.1586,-1.83839 0.1823,-1.82238 0.2068,-1.80632 0.2319,-1.79024 0.2579,-1.7742 0.2846,-1.75825 0.3133,-1.75041 0.3443,-1.75793 0.3746,-1.76607 0.4042,-1.77442 0.4331,-1.78293 0.461,-1.79159 0.4882,-1.80033 0.5144,-1.80916 0.5398,-1.81805 0.5642,-1.82698 0.5876,-1.83595 0.61,-1.84495 0.6314,-1.85395 0.6517,-1.86299 0.671,-1.87205 0.6891,-1.88114 0.706,-1.89027 0.7219,-1.89945 0.7365,-1.90869 0.75,-1.918 0.7621,-1.9274 1.5558,-3.88346 3.2018,-7.88554 1.6242,-4.00376 1.62,-4.02695 1.6087,-4.04496 1.5935,-4.06442 1.5743,-4.08529 0.7787,-2.05093 0.7724,-2.05669 0.7657,-2.06264 0.7582,-2.06877 0.7505,-2.07507 0.742,-2.08157 0.7332,-2.08825 0.7238,-2.09511 0.7138,-2.10215 0.7033,-2.10937 0.6922,-2.11677 0.6807,-2.12436 0.6686,-2.13211 0.6559,-2.14004 0.6426,-2.14815 0.6289,-2.15641 0.6145,-2.16486 0.5995,-2.17345 0.5841,-2.18221 0.568,-2.19111 0.5513,-2.20017 0.5341,-2.20937 0.5162,-2.21871 0.4979,-2.22817 0.4789,-2.23777 0.4593,-2.24749 0.4391,-2.25731 0.4183,-2.26724 0.3969,-2.27727 0.375,-2.28739 0.3524,-2.29759 0.3292,-2.30787 0.3055,-2.31821 0.2811,-2.32862 0.2562,-2.33907 0.2307,-2.34956 0.2044,-2.3601 0.1777,-2.37064 0.1504,-2.38122 0.1225,-2.3918 0.094,-2.40238 0.065,-2.41295 0.036,-2.42352 0.01,-1.21571 v -1.21834 l -0.01,-1.22097 -0.017,-1.22359 -0.025,-1.22622 -0.033,-1.22882 -0.04,-1.23141 -0.048,-1.23328 -0.056,-1.23479 -0.064,-1.23618 -0.072,-1.23746 -0.08,-1.23862 -0.088,-1.23967 -0.096,-1.24061 -0.1038,-1.24143 -0.1117,-1.24215 -0.1196,-1.24273 -0.1274,-1.24322 -0.1354,-1.24359 -0.1432,-1.24383 -0.1512,-1.24397 -0.159,-1.24399 -0.1669,-1.24389 -0.1748,-1.24367 -0.1826,-1.24334 -0.1906,-1.24289 -0.1985,-1.24232 -0.2063,-1.24164 -0.2143,-1.24084 -0.2222,-1.23992 -0.2302,-1.23887 -0.238,-1.23772 -0.2461,-1.23644 -0.2539,-1.23505 -0.262,-1.23353 -0.2699,-1.2319 -0.2779,-1.23014 -0.2859,-1.22827 -0.294,-1.22628 -0.302,-1.22416 -0.31,-1.22193 -0.3182,-1.21958 -0.3263,-1.21711 -0.3343,-1.21452 -0.3425,-1.2118 -0.3507,-1.20897 -0.3589,-1.20602 -0.3671,-1.20295 -0.3754,-1.19975 -0.3836,-1.19645 -0.3919,-1.192966 -0.4003,-1.189452 -0.4086,-1.185786 -0.417,-1.181931 -0.4255,-1.178076 -0.4339,-1.173994 -0.4425,-1.169798 -0.451,-1.165566 -0.4596,-1.161105 -0.4682,-1.156608 -0.477,-1.151922 -0.4856,-1.147121 -0.4944,-1.142246 -0.5033,-1.137182 -0.5121,-1.132003 -0.5211,-1.126712 -0.5301,-1.121307 -0.5391,-1.115714 -0.5483,-1.110045 -0.5574,-1.104224 -0.5666,-1.098252 -0.576,-1.092167 -0.5854,-1.085931 -0.5948,-1.079582 -0.6043,-1.073043 -0.6139,-1.066353 -0.6237,-1.059588 -0.6333,-1.052595 -0.6433,-1.045491 -0.6531,-1.038233 -0.6632,-1.030826 -0.6733,-1.023229 -0.6835,-1.015481 -0.6937,-1.007544 -0.7042,-0.999493 -0.7146,-0.991216 -0.7253,-0.982751 -0.7359,-0.974133 -0.7466,-0.965326 -0.7576,-0.956294 -0.7685,-0.947109 -0.7796,-0.937661 -0.7908,-0.928023 -0.802,-0.918196 -0.8134,-0.908105 -0.825,-0.897824 -0.8365,-0.887242 -0.8481,-0.876508 -0.86,-0.865434 -0.8717,-0.854171 -0.8838,-0.842568 -0.8958,-0.830738 -0.9069,-0.817774 -0.9161,-0.802959 -0.9249,-0.788029 -0.9335,-0.773063 -0.9419,-0.758133 -0.9502,-0.743205 -0.9582,-0.728237 -0.966,-0.713309 -0.9736,-0.698417 -0.981,-0.683563 -0.9882,-0.668748 -0.9952,-0.653932 -1.0019,-0.63923 -1.0085,-0.624566 -1.0148,-0.610014 -1.021,-0.595463 -1.0269,-0.581063 -1.0327,-0.566701 -1.0383,-0.55249 -1.0436,-0.538354 -1.0488,-0.524371 -1.0538,-0.510423 -1.0587,-0.496667 -1.0633,-0.483022 -1.0678,-0.46953 -1.0722,-0.456112 -1.0763,-0.442884 -1.0804,-0.429807 -1.0842,-0.416843 -1.088,-0.40403 -1.0916,-0.391407 -1.095,-0.378897 -1.0984,-0.366613 -1.1017,-0.354519 -1.1047,-0.342424 -1.1078,-0.33033 -1.1106,-0.318991 -1.1135,-0.307275 -1.1162,-0.295936 -1.1188,-0.284598 -1.1213,-0.273637 -1.1237,-0.262677 -1.1262,-0.252094 -1.1284,-0.241511 -1.1306,-0.230928 -1.1328,-0.221102 -1.1349,-0.210897 -1.137,-0.201071 -1.1389,-0.191243 -1.1408,-0.181417 -1.1427,-0.171968 -1.1446,-0.162897 -1.1463,-0.153827 -1.148,-0.144755 -1.1497,-0.135685 -1.1514,-0.126992 -1.153,-0.118676 -1.1546,-0.110362 -1.1561,-0.102047 -1.1577,-0.09373 -1.1591,-0.0858 -1.1605,-0.07824 -1.162,-0.0703 -1.1633,-0.06274 -2.3308,-0.103181 -2.336,-0.07446 -2.3409,-0.04687 -2.3458,-0.0189 -2.3503,0.0038 -2.3548,0.03024 -2.3589,0.05405 -2.363,0.0771 -2.3667,0.09902 -2.3703,0.120189 -2.3737,0.140598 -2.3769,0.159873 -2.3798,0.178393 -2.3826,0.196157 -2.3851,0.213165 -2.3873,0.229417 -2.3894,0.244913 -2.3912,0.259275 -2.3927,0.272881 -2.394,0.286109 -2.395,0.298582 -2.3958,0.309921 -2.3962,0.320503 -2.3965,0.330708 -2.3963,0.340156 -2.3958,0.348472 -4.7893,0.719998 -4.7837,0.745661 -4.7755,0.765655 -4.7644,0.780017 -4.7506,0.788785 -9.4476,1.581728 -4.6907,0.782058 -4.6643,0.768981 -4.6343,0.750499 -4.601,0.726688 -4.564,0.697623 -2.2669,0.336377 -2.2563,0.326928 -2.2451,0.317102 -2.2335,0.306897 -2.2213,0.295558 -2.2087,0.283842 -2.1955,0.271369 -2.1818,0.258519 -2.1675,0.244913 -2.1529,0.230929 -2.1375,0.216188 -2.1217,0.200692 -2.1115,0.185575 -2.1045,0.171212 -2.098,0.157228 -2.0917,0.143622 -2.086,0.130393 -2.0805,0.117543 -2.0753,0.105071 -2.0707,0.09298 -2.0663,0.08126 -2.0623,0.0703 -2.0586,0.05934 -2.0553,0.04876 -2.0524,0.03893 -2.0497,0.03024 -2.0475,0.0189 -2.0455,0.01134 -2.044,0.0029 -2.0427,-0.0038 -4.0829,-0.03402 -4.0817,-0.05934 -4.0832,-0.08277 -4.087,-0.103181 -4.0932,-0.119811 -4.102,-0.133417 -8.2391,-0.292912 -8.3011,-0.304252 -4.1793,-0.147023 -4.2011,-0.139086 -4.2251,-0.126992 -4.2445,-0.111496 -4.2505,-0.09524 -4.2552,-0.07975 -4.2597,-0.06501 -4.2635,-0.0514 -4.267,-0.03855 -4.26986,-0.02646 -4.2724,-0.01512 -4.2743,-0.0076 -4.2758,0.0034 -4.27673,0.01134 -8.55445,0.0446 -8.55235,0.0669 -8.54619,0.08201 -17.05745,0.182173 -8.50335,0.08617 -8.49362,0.07635 -8.48859,0.06614 -8.48394,0.05631 -8.47955,0.04762 -8.47555,0.03893 -16.94025,0.05405 -16.92786,0.02646 -16.91799,0.0021 -16.91066,-0.0189 -16.90585,-0.03402 -33.80715,-0.09751 -33.81776,-0.110739 -16.91908,-0.04989 -16.92922,-0.04082 -16.9418,-0.02646 -16.95673,-0.0078 M 45.456381,459.00321 l 0.01028,-8.18838 0.01946,-8.15071 0.01176,-8.11034 -0.0022,-4.03919 -0.01036,-4.02806 -0.02056,-4.01658 -0.03235,-4.01501 -0.08443,-8.11221 -0.03956,-4.10078 -0.02918,-4.13184 -0.01217,-4.16385 0.0116,-4.19669 0.01686,-2.11091 0.0254,-2.11942 0.03481,-2.12802 0.04512,-2.13669 0.05632,-2.14545 0.06797,-2.14745 0.07853,-2.13877 0.08783,-2.12986 0.198557,-4.23247 0.220997,-4.19524 0.471602,-8.27411 0.23238,-4.0762 0.218355,-4.03365 0.195844,-3.98944 0.0869,-1.9776 0.07821,-1.96587 0.06854,-1.95393 0.0579,-1.94173 0.04632,-1.92931 0.03383,-1.91665 0.02041,-1.90374 0.0061,-1.8906 -0.0091,-1.87723 -0.0251,-1.86364 -0.04193,-1.84984 -0.05957,-1.83583 -0.078,-1.82163 -0.0972,-1.80727 -0.117143,-1.79274 -0.13782,-1.7781 -0.159213,-1.76334 -0.1813,-1.74852 -0.20408,-1.73366 -0.227531,-1.71879 -0.251645,-1.70397 -0.276423,-1.68923 -0.303239,-1.68353 -0.331918,-1.69075 -0.359974,-1.69828 -0.387365,-1.70599 -0.41406,-1.71385 -0.440031,-1.72184 -0.465247,-1.72993 -0.489684,-1.73807 -0.513313,-1.74629 -0.536108,-1.75453 -0.558041,-1.76282 -0.579089,-1.77113 -0.599228,-1.77945 -0.61843,-1.7878 -0.636676,-1.79618 -0.653942,-1.80456 -0.670204,-1.81299 -0.685444,-1.82144 -0.699641,-1.82996 -0.712774,-1.83852 -12.244635,-30.54391 -1.51731,-3.92521 -1.496561,-3.9456 -0.739373,-1.98086 -0.732832,-1.98644 -0.725824,-1.99219 -0.718364,-1.99809 -0.710426,-2.00417 -0.702028,-2.01041 -0.693158,-2.01681 -0.683811,-2.02336 -0.673984,-2.03008 -0.663678,-2.03697 -0.652883,-2.044 -0.641601,-2.0512 -0.629828,-2.05855 -0.61756,-2.06605 -0.604792,-2.0737 -0.591523,-2.0815 -0.577746,-2.08944 -0.563463,-2.09752 -0.548674,-2.10574 -0.533363,-2.11409 -0.517543,-2.12257 -0.501199,-2.13118 -0.484335,-2.1399 -0.466946,-2.14873 -0.449038,-2.15768 -0.430597,-2.16672 -0.411629,-2.17586 -0.392129,-2.1851 -0.372095,-2.19441 -0.351534,-2.2038 -0.330444,-2.21327 -0.308825,-2.2228 -0.286677,-2.23238 -0.264,-2.24201 -0.240756,-2.2517 -0.217021,-2.2614 -0.192756,-2.27115 -0.167962,-2.28091 -0.142639,-2.29069 -0.116788,-2.30047 -0.09044,-2.31026 -0.06362,-2.32003 -0.03628,-2.32981 -0.0083,-2.33955 0.02003,-2.34927 0.04883,-2.35897 0.07812,-2.36836 0.107566,-2.37476 0.13697,-2.37972 0.166261,-2.38389 0.195515,-2.38724 0.224731,-2.38979 0.253946,-2.39151 0.283087,-2.39242 0.312264,-2.39251 0.341443,-2.39176 0.370658,-2.39018 0.399878,-2.38776 0.429158,-2.3845 0.458498,-2.38041 0.487914,-2.37546 0.51741,-2.36967 0.269821,-1.1824 0.277228,-1.18063 0.284636,-1.17876 0.292082,-1.17678 0.299528,-1.17469 0.307011,-1.1725 0.314532,-1.17021 0.322016,-1.16779 0.329574,-1.16528 0.337134,-1.16266 0.344693,-1.15994 0.35229,-1.1571 0.359924,-1.15416 0.367559,-1.15112 0.375232,-1.147956 0.382945,-1.144668 0.390679,-1.141341 0.398438,-1.137826 0.406227,-1.134236 0.414051,-1.13057 0.421909,-1.126714 0.4298,-1.122859 0.43773,-1.118778 0.445697,-1.114696 0.453702,-1.110386 0.461745,-1.106079 0.469836,-1.101618 0.477971,-1.097008 0.486149,-1.09232 0.494374,-1.087521 0.50265,-1.08257 0.510977,-1.077543 0.519357,-1.072402 0.527792,-1.06715 0.536281,-1.061706 0.544826,-1.056227 0.553436,-1.050594 0.562111,-1.04485 0.57084,-1.038916 0.579644,-1.032945 0.58851,-1.026822 0.597449,-1.020547 0.606459,-1.014123 0.615542,-1.007621 0.624699,-1.000932 0.633932,-0.994129 0.643246,-0.987212 0.652638,-0.980069 0.662113,-0.97285 0.671671,-0.965442 0.681313,-0.957883 0.691041,-0.950173 0.700856,-0.942311 0.710758,-0.934299 0.720749,-0.92606 0.73083,-0.917706 0.740999,-0.909128 0.751259,-0.900358 0.76161,-0.891477 0.772049,-0.88233 0.782577,-0.872995 0.793195,-0.863471 0.8039,-0.853757 0.81469,-0.843741 0.825566,-0.833613 0.836523,-0.82318 0.847559,-0.812523 0.858673,-0.801599 0.869506,-0.790186 0.87823,-0.776693 0.886451,-0.762859 0.8945,-0.749064 0.902373,-0.735269 0.910065,-0.721398 0.917576,-0.707603 0.924902,-0.69377 0.932043,-0.680012 0.938997,-0.666217 0.945765,-0.652498 0.952346,-0.638815 0.958741,-0.625134 0.964951,-0.611565 0.970978,-0.597997 0.976822,-0.584503 0.982487,-0.571125 0.987975,-0.557782 0.993288,-0.544516 0.99843,-0.531364 1.003404,-0.518324 1.008213,-0.505323 1.012862,-0.492472 1.017353,-0.479697 1.021691,-0.467074 1.025881,-0.454526 1.029926,-0.442167 1.033831,-0.429845 1.037601,-0.417676 1.041238,-0.405694 1.044749,-0.393751 1.048138,-0.382034 1.05141,-0.370394 1.054566,-0.359055 1.057616,-0.347716 1.06056,-0.336378 1.063404,-0.325417 1.066152,-0.314457 1.068811,-0.303496 1.07137,-0.292913 1.07386,-0.282331 1.07627,-0.272126 1.07859,-0.261921 1.08085,-0.252094 1.08304,-0.24189 1.08516,-0.232441 1.08722,-0.222614 1.08921,-0.213165 1.09116,-0.203716 1.09305,-0.194646 1.09488,-0.185575 1.09667,-0.176882 1.09842,-0.167811 1.10012,-0.159118 1.10177,-0.150803 1.10339,-0.142488 1.10497,-0.134173 1.106523,-0.126236 1.10802,-0.118299 1.1095,-0.110362 1.11094,-0.102804 1.11236,-0.09487 2.22884,-0.167811 2.23415,-0.139086 2.23926,-0.111118 2.24417,-0.08391 2.24887,-0.05783 2.25341,-0.03402 2.25776,-0.0076 2.26193,0.01512 2.26593,0.0378 2.26974,0.05934 2.27338,0.08013 2.27684,0.100157 2.28011,0.119811 2.28321,0.138331 2.28611,0.156094 2.28882,0.173102 2.29133,0.189732 2.29365,0.205229 2.29575,0.220346 2.29764,0.234331 2.29932,0.247937 2.30078,0.260787 2.302,0.272882 2.30299,0.28422 2.30375,0.295181 2.30425,0.305386 2.3045,0.314834 2.30448,0.323906 2.30421,0.331842 4.60647,0.685833 4.60196,0.710891 4.59507,0.730922 4.58574,0.74589 9.13334,1.516799 9.06465,1.51748 4.49949,0.746872 4.47363,0.732586 4.44471,0.713461 4.41262,0.689726 4.37727,0.661228 4.33854,0.628157 2.15368,0.300094 2.14268,0.290268 2.13126,0.279685 2.11937,0.268724 2.10701,0.257008 2.0942,0.244913 2.08092,0.232063 2.06713,0.218835 2.05289,0.205228 2.0385,0.191244 2.02977,0.17726 2.02337,0.163653 2.01731,0.150803 2.01159,0.137953 2.00618,0.125858 2.00111,0.114142 1.99637,0.102425 1.99195,0.09146 1.98786,0.0805 1.98407,0.06992 1.98061,0.06009 1.97746,0.05027 1.97463,0.04082 1.97209,0.03024 1.96987,0.02268 1.96795,0.01512 1.96633,0.0076 1.965,-6.8e-4 3.9272,-0.02268 3.9254,-0.04838 3.92587,-0.07143 3.92855,-0.09147 3.93343,-0.108094 3.94045,-0.122079 7.91025,-0.273638 7.96289,-0.291779 8.03111,-0.283843 4.04584,-0.130771 4.06844,-0.119055 4.08382,-0.104315 4.08868,-0.0892 4.09307,-0.07484 4.09702,-0.06123 4.10056,-0.04876 4.10365,-0.03779 4.10629,-0.02646 4.1085,-0.01512 4.11027,-0.0076 4.11158,0.0022 8.22532,0.02646 8.22518,0.05102 8.22136,0.06916 8.21384,0.08088 16.39014,0.170834 8.16983,0.07748 8.16166,0.0669 8.15682,0.05669 8.15233,0.04687 8.14821,0.0378 8.1445,0.03024 16.2793,0.03402 16.26882,0.0076 16.26142,-0.01134 16.25692,-0.03024 16.25544,-0.04157 32.51819,-0.09978 16.26871,-0.048 16.27907,-0.04044 16.29229,-0.02646 16.30855,-0.0076 M 1326.7162,460 l -0.01,8.18838 -0.019,8.15071 -0.012,8.11034 v 4.03919 l 0.01,4.02806 0.021,4.01658 0.032,4.01501 0.084,8.11221 0.04,4.10078 0.029,4.13184 0.012,4.16385 -0.012,4.19669 -0.017,2.11091 -0.025,2.11942 -0.035,2.12802 -0.045,2.13669 -0.056,2.14545 -0.068,2.14745 -0.079,2.13877 -0.088,2.12986 -0.1985,4.23247 -0.221,4.19524 -0.4716,8.27411 -0.2324,4.0762 -0.2184,4.03365 -0.1958,3.98944 -0.087,1.9776 -0.078,1.96587 -0.068,1.95393 -0.058,1.94173 -0.046,1.92931 -0.034,1.91665 -0.02,1.90374 -0.01,1.8906 0.01,1.87723 0.025,1.86364 0.042,1.84984 0.06,1.83583 0.078,1.82163 0.097,1.80727 0.1171,1.79274 0.1378,1.7781 0.1592,1.76334 0.1814,1.74852 0.204,1.73366 0.2276,1.71879 0.2516,1.70397 0.2764,1.68923 0.3033,1.68353 0.3319,1.69075 0.36,1.69828 0.3873,1.70599 0.4141,1.71385 0.44,1.72184 0.4653,1.72993 0.4896,1.73807 0.5134,1.74629 0.5361,1.75453 0.558,1.76282 0.5791,1.77113 0.5992,1.77945 0.6185,1.7878 0.6366,1.79618 0.654,1.80456 0.6702,1.81299 0.6854,1.82144 0.6997,1.82996 0.7127,1.83852 12.2447,30.54391 1.5173,3.92521 1.4965,3.9456 0.7394,1.98086 0.7328,1.98644 0.7259,1.99219 0.7183,1.99809 0.7105,2.00417 0.702,2.01041 0.6931,2.01681 0.6839,2.02336 0.6739,2.03008 0.6637,2.03697 0.6529,2.044 0.6416,2.0512 0.6298,2.05855 0.6176,2.06605 0.6048,2.0737 0.5915,2.0815 0.5778,2.08944 0.5634,2.09752 0.5487,2.10574 0.5334,2.11409 0.5175,2.12257 0.5012,2.13118 0.4843,2.1399 0.467,2.14873 0.449,2.15768 0.4306,2.16672 0.4116,2.17586 0.3922,2.1851 0.3721,2.19441 0.3515,2.2038 0.3304,2.21327 0.3089,2.2228 0.2866,2.23238 0.264,2.24201 0.2408,2.2517 0.217,2.2614 0.1928,2.27115 0.1679,2.28091 0.1427,2.29069 0.1168,2.30047 0.09,2.31026 0.064,2.32003 0.036,2.32981 0.01,2.33955 -0.02,2.34927 -0.049,2.35897 -0.078,2.36836 -0.1075,2.37476 -0.137,2.37972 -0.1663,2.38389 -0.1955,2.38724 -0.2247,2.38979 -0.254,2.39151 -0.283,2.39242 -0.3123,2.39251 -0.3414,2.39176 -0.3707,2.39018 -0.3999,2.38776 -0.4291,2.3845 -0.4585,2.38041 -0.488,2.37546 -0.5174,2.36967 -0.2698,1.1824 -0.2772,1.18063 -0.2847,1.17876 -0.292,1.17678 -0.2996,1.17469 -0.307,1.1725 -0.3145,1.17021 -0.322,1.16779 -0.3296,1.16528 -0.3371,1.16266 -0.3447,1.15994 -0.3523,1.1571 -0.3599,1.15416 -0.3676,1.15112 -0.3752,1.14796 -0.383,1.14466 -0.3906,1.14134 -0.3985,1.13783 -0.4062,1.13424 -0.4141,1.13057 -0.4219,1.12671 -0.4298,1.12286 -0.4377,1.11878 -0.4457,1.11469 -0.4537,1.11039 -0.4617,1.10608 -0.4699,1.10162 -0.478,1.097 -0.4861,1.09233 -0.4944,1.08752 -0.5026,1.08257 -0.511,1.07754 -0.5194,1.0724 -0.5278,1.06715 -0.5362,1.06171 -0.5449,1.05622 -0.5534,1.0506 -0.5621,1.04485 -0.5708,1.03891 -0.5797,1.03295 -0.5885,1.02682 -0.5975,1.02055 -0.6064,1.01412 -0.6156,1.00762 -0.6247,1.00093 -0.6339,0.99413 -0.6432,0.98722 -0.6527,0.98006 -0.6621,0.97285 -0.6717,0.96545 -0.6813,0.95788 -0.691,0.95017 -0.7009,0.94231 -0.7107,0.9343 -0.7208,0.92606 -0.7308,0.91771 -0.741,0.90913 -0.7513,0.90035 -0.7616,0.89148 -0.772,0.88233 -0.7826,0.873 -0.7932,0.86347 -0.8039,0.85375 -0.8147,0.84375 -0.8255,0.83361 -0.8366,0.82318 -0.8475,0.81252 -0.8587,0.8016 -0.8695,0.79019 -0.8782,0.77669 -0.8865,0.76286 -0.8945,0.74906 -0.9024,0.73527 -0.91,0.7214 -0.9176,0.7076 -0.9249,0.69377 -0.932,0.68001 -0.939,0.66622 -0.9458,0.6525 -0.9524,0.63881 -0.9587,0.62514 -0.9649,0.61156 -0.971,0.598 -0.9768,0.5845 -0.9825,0.57113 -0.988,0.55778 -0.9933,0.54452 -0.9984,0.53136 -1.0034,0.51832 -1.0082,0.50533 -1.0129,0.49247 -1.0174,0.4797 -1.0216,0.46707 -1.0259,0.45453 -1.03,0.44216 -1.0338,0.42985 -1.0376,0.41767 -1.0412,0.4057 -1.0448,0.39375 -1.0481,0.38203 -1.0514,0.3704 -1.0546,0.35905 -1.0576,0.34772 -1.0606,0.33638 -1.0634,0.32541 -1.0661,0.31446 -1.0688,0.3035 -1.0714,0.29291 -1.0739,0.28233 -1.0762,0.27213 -1.0786,0.26192 -1.0809,0.25209 -1.083,0.24189 -1.0852,0.23244 -1.0872,0.22262 -1.0892,0.21316 -1.0912,0.20372 -1.093,0.19464 -1.0949,0.18558 -1.0967,0.17688 -1.0984,0.16781 -1.1001,0.15912 -1.1018,0.1508 -1.1034,0.14249 -1.1049,0.13417 -1.1065,0.12624 -1.1081,0.1183 -1.1095,0.11036 -1.1109,0.1028 -1.1124,0.0949 -2.2288,0.16781 -2.2342,0.13909 -2.2392,0.11112 -2.2442,0.0839 -2.2489,0.0578 -2.2534,0.034 -2.2577,0.008 -2.262,-0.0151 -2.2659,-0.0378 -2.2697,-0.0593 -2.2734,-0.0801 -2.2768,-0.10015 -2.2802,-0.11981 -2.2832,-0.13833 -2.2861,-0.1561 -2.2888,-0.1731 -2.2913,-0.18973 -2.2937,-0.20523 -2.2957,-0.22035 -2.2977,-0.23433 -2.2993,-0.24794 -2.3008,-0.26078 -2.302,-0.27288 -2.303,-0.28423 -2.3037,-0.29518 -2.3043,-0.30538 -2.3045,-0.31484 -2.3044,-0.3239 -2.3043,-0.33184 -4.6064,-0.68584 -4.602,-0.71089 -4.5951,-0.73092 -4.5857,-0.74589 -9.1333,-1.5168 -9.0647,-1.51748 -4.4995,-0.74687 -4.4736,-0.73259 -4.4447,-0.71346 -4.4126,-0.68972 -4.3773,-0.66123 -4.3385,-0.62816 -2.1537,-0.30009 -2.1427,-0.29027 -2.1313,-0.27969 -2.1193,-0.26872 -2.107,-0.25701 -2.0942,-0.24491 -2.081,-0.23206 -2.0671,-0.21884 -2.0529,-0.20523 -2.0385,-0.19124 -2.0298,-0.17726 -2.0233,-0.16365 -2.0173,-0.15081 -2.0116,-0.13795 -2.0062,-0.12586 -2.0011,-0.11414 -1.9964,-0.10242 -1.9919,-0.0915 -1.9879,-0.0805 -1.9841,-0.0699 -1.9806,-0.0601 -1.9774,-0.0503 -1.9747,-0.0408 -1.9721,-0.0302 -1.9698,-0.0227 -1.968,-0.0151 -1.9663,-0.008 -1.965,6.8e-4 -3.9272,0.0227 -3.9254,0.0484 -3.9259,0.0714 -3.9285,0.0915 -3.9335,0.10809 -3.9404,0.12208 -7.9103,0.27364 -7.9628,0.29178 -8.0312,0.28384 -4.0458,0.13077 -4.0684,0.11906 -4.0839,0.10431 -4.0886,0.0892 -4.0931,0.0748 -4.097,0.0612 -4.1006,0.0488 -4.1036,0.0378 -4.1063,0.0265 -4.1085,0.0151 -4.1103,0.008 -4.1116,-0.002 -8.2253,-0.0265 -8.22517,-0.051 -8.22136,-0.0692 -8.21384,-0.0809 -16.39014,-0.17084 -8.16983,-0.0775 -8.16166,-0.0669 -8.15682,-0.0567 -8.15233,-0.0469 -8.14821,-0.0378 -8.1445,-0.0302 -16.2793,-0.034 -16.26882,-0.008 -16.26142,0.0113 -16.25692,0.0302 -16.25544,0.0416 c -16.2623,0.0507 -32.5246,0.0998 -48.7869,0.1478 -10.8571,0.0325 -21.71423,0.0492 -32.57136,0.0669 l -16.30855,0.008" /><path
     d="m 64.354276,504.35893 0.474637,-0.0147 0.472763,-0.0447 0.469025,-0.0743 0.463435,-0.10359 0.456016,-0.13248 0.446797,-0.16085 0.435815,-0.1886 0.423113,-0.21558 0.408742,-0.24174 0.392756,-0.26691 0.37522,-0.29106 0.356205,-0.31404 0.335785,-0.33577 0.314037,-0.35622 0.29105,-0.37523 0.266918,-0.39276 0.241727,-0.40874 0.215588,-0.42311 0.188594,-0.43582 0.160857,-0.4468 0.132484,-0.45601 0.103589,-0.46343 0.07429,-0.46903 0.04469,-0.47276 0.01492,-0.47482 -0.01493,-0.47464 -0.04469,-0.47276 -0.07429,-0.46902 -0.103589,-0.46344 -0.132484,-0.45601 -0.160856,-0.4468 -0.188595,-0.43581 -0.215588,-0.42311 -0.241727,-0.40874 -0.266918,-0.39276 -0.29105,-0.37522 -0.314037,-0.35621 -0.335784,-0.33578 -0.356205,-0.31404 -0.37522,-0.29105 -0.392757,-0.26692 -0.408742,-0.24173 -0.423113,-0.21558 -0.435815,-0.1886 -0.446797,-0.16085 -0.456016,-0.13249 -0.463435,-0.10359 -0.469024,-0.0743 -0.472764,-0.0447 -0.474631,-0.0149 -0.474637,0.0149 -0.472763,0.0447 -0.469025,0.0743 -0.463435,0.10359 -0.456016,0.13248 -0.446797,0.16086 -0.435815,0.18859 -0.423113,0.21559 -0.408742,0.24172 -0.392756,0.26692 -0.37522,0.29105 -0.356205,0.31404 -0.335785,0.33579 -0.314037,0.3562 -0.29105,0.37522 -0.266918,0.39276 -0.241727,0.40874 -0.215588,0.42311 -0.188594,0.43582 -0.160857,0.44679 -0.132484,0.45602 -0.103589,0.46343 -0.07429,0.46902 -0.0447,0.47275 -0.01492,0.47464 0.01493,0.47463 0.04469,0.47277 0.07429,0.46902 0.103589,0.46344 0.132484,0.45601 0.160856,0.4468 0.188595,0.43581 0.215588,0.42311 0.241727,0.40874 0.266918,0.39276 0.29105,0.37523 0.314037,0.35622 0.335784,0.33577 0.356205,0.31404 0.37522,0.29106 0.392757,0.26691 0.408742,0.24174 0.423113,0.21559 0.435815,0.18859 0.446797,0.16086 0.456016,0.13247 0.463435,0.1036 0.469024,0.0743 0.472764,0.0447 0.474631,0.0149"
     id="path68"
     style="fill:none;stroke:#000000;stroke-width:3.92707" /><path
     d="m 64.354276,561.0517 0.474637,-0.0147 0.472763,-0.0447 0.469025,-0.0743 0.463435,-0.10359 0.456016,-0.13248 0.446797,-0.16085 0.435815,-0.1886 0.423113,-0.21558 0.408742,-0.24174 0.392756,-0.26691 0.37522,-0.29106 0.356205,-0.31404 0.335785,-0.33578 0.314037,-0.35622 0.29105,-0.37523 0.266918,-0.39275 0.241727,-0.40875 0.215588,-0.4231 0.188594,-0.43582 0.160857,-0.4468 0.132484,-0.45601 0.103589,-0.46343 0.07429,-0.46903 0.04469,-0.47276 0.01492,-0.47482 -0.01493,-0.47464 -0.04469,-0.47276 -0.07429,-0.46903 -0.103589,-0.46343 -0.132484,-0.45601 -0.160856,-0.4468 -0.188595,-0.43581 -0.215588,-0.42311 -0.241727,-0.40875 -0.266918,-0.39275 -0.29105,-0.37523 -0.314037,-0.35622 -0.335784,-0.33578 -0.356205,-0.31404 -0.37522,-0.29106 -0.392757,-0.26691 -0.408742,-0.24173 -0.423113,-0.21559 -0.435815,-0.1886 -0.446797,-0.16085 -0.456016,-0.13247 -0.463435,-0.1036 -0.469024,-0.0743 -0.472764,-0.0447 -0.474631,-0.0149 -0.474637,0.0147 -0.472763,0.0447 -0.469025,0.0743 -0.463435,0.1036 -0.456016,0.13247 -0.446797,0.16086 -0.435815,0.1886 -0.423113,0.21558 -0.408742,0.24174 -0.392756,0.26691 -0.37522,0.29106 -0.356205,0.31404 -0.335785,0.33577 -0.314037,0.35622 -0.29105,0.37523 -0.266918,0.39276 -0.241727,0.40874 -0.215588,0.42311 -0.188594,0.43582 -0.160857,0.44679 -0.132484,0.45602 -0.103589,0.46343 -0.07429,0.46903 -0.04469,0.47276 -0.01492,0.47482 0.01493,0.47463 0.04469,0.47276 0.07429,0.46903 0.103589,0.46343 0.132484,0.45602 0.160856,0.44679 0.188595,0.43582 0.215588,0.42311 0.241727,0.40874 0.266918,0.39276 0.29105,0.37523 0.314037,0.35622 0.335784,0.33577 0.356205,0.31404 0.37522,0.29106 0.392757,0.26691 0.408742,0.24174 0.423113,0.21558 0.435815,0.1886 0.446797,0.16086 0.456016,0.13247 0.463435,0.1036 0.469024,0.0743 0.472764,0.0447 0.474631,0.0149"
     id="path69"
     style="fill:none;stroke:#000000;stroke-width:3.92707" /><path
     d="m 64.354276,889.86976 0.474637,-0.0151 0.472763,-0.0446 0.469025,-0.0744 0.463435,-0.10356 0.456016,-0.13266 0.446797,-0.16101 0.435815,-0.1886 0.423113,-0.21543 0.408742,-0.24189 0.392756,-0.26683 0.37522,-0.29103 0.356205,-0.31407 0.335785,-0.33563 0.314037,-0.35603 0.29105,-0.3753 0.266918,-0.39277 0.241727,-0.40872 0.215588,-0.42311 0.188594,-0.43582 0.160857,-0.44681 0.132484,-0.456 0.103589,-0.46345 0.07429,-0.469 0.04469,-0.47278 0.01492,-0.47437 -0.01493,-0.47463 -0.04469,-0.47278 -0.07429,-0.469 -0.103589,-0.46344 -0.132484,-0.456 -0.160856,-0.44682 -0.188595,-0.43581 -0.215588,-0.42312 -0.241727,-0.40872 -0.266918,-0.39276 -0.29105,-0.37531 -0.314037,-0.35603 -0.335784,-0.33562 -0.356205,-0.31408 -0.37522,-0.29102 -0.392757,-0.26684 -0.408742,-0.24188 -0.423113,-0.21544 -0.435815,-0.1886 -0.446797,-0.161 -0.456016,-0.13266 -0.463435,-0.10356 -0.469024,-0.0745 -0.472764,-0.0446 -0.474631,-0.0148 -0.474637,0.0151 -0.472763,0.0446 -0.469025,0.0744 -0.463435,0.10356 -0.456016,0.13266 -0.446797,0.16101 -0.435815,0.1886 -0.423113,0.21543 -0.408742,0.24189 -0.392756,0.26683 -0.37522,0.29103 -0.356205,0.31407 -0.335785,0.33562 -0.314037,0.35604 -0.29105,0.3753 -0.266918,0.39277 -0.241727,0.40872 -0.215588,0.42311 -0.188594,0.43582 -0.160857,0.44681 -0.132484,0.456 -0.103589,0.46345 -0.07429,0.469 -0.04469,0.47278 -0.01492,0.47436 0.01493,0.47464 0.04469,0.47278 0.07429,0.469 0.103589,0.46344 0.132484,0.456 0.160856,0.44681 0.188595,0.43582 0.215588,0.42312 0.241727,0.40872 0.266918,0.39276 0.29105,0.37531 0.314037,0.35603 0.335784,0.33562 0.356205,0.31408 0.37522,0.29102 0.392757,0.26684 0.408742,0.24188 0.423113,0.21544 0.435815,0.18859 0.446797,0.16101 0.456016,0.13266 0.463435,0.10356 0.469024,0.0745 0.472764,0.0446 0.474631,0.0149"
     id="path70"
     style="fill:none;stroke:#000000;stroke-width:3.92707" /><path
     d="m 672.85796,889.86976 0.47463,-0.0151 0.47279,-0.0446 0.469,-0.0744 0.46344,-0.10356 0.456,-0.13266 0.44682,-0.16101 0.43582,-0.1886 0.42311,-0.21543 0.40872,-0.24189 0.39277,-0.26683 0.37531,-0.29103 0.35603,-0.31407 0.336,-0.33563 0.31408,-0.35603 0.29102,-0.3753 0.26683,-0.39277 0.24189,-0.40872 0.21544,-0.42311 0.1886,-0.43582 0.161,-0.44681 0.13266,-0.456 0.10356,-0.46345 0.0745,-0.469 0.0446,-0.47278 0.0145,-0.47437 -0.0151,-0.47463 -0.0446,-0.47278 -0.0745,-0.469 -0.10356,-0.46344 -0.13266,-0.456 -0.16101,-0.44682 -0.1886,-0.43581 -0.21543,-0.42312 -0.24189,-0.40872 -0.26683,-0.39276 -0.29103,-0.37531 -0.31407,-0.35603 -0.336,-0.33562 -0.35604,-0.31408 -0.3753,-0.29102 -0.39277,-0.26684 -0.40872,-0.24188 -0.42312,-0.21544 -0.43581,-0.1886 -0.44682,-0.161 -0.456,-0.13266 -0.46345,-0.10356 -0.469,-0.0745 -0.47278,-0.0446 -0.47463,-0.0151 -0.47463,0.0151 -0.47278,0.0446 -0.46901,0.0745 -0.46344,0.10356 -0.456,0.13266 -0.44682,0.161 -0.43581,0.1886 -0.42312,0.21544 -0.40872,0.24188 -0.39277,0.26684 -0.3753,0.29102 -0.35604,0.31408 -0.336,0.33562 -0.31407,0.35603 -0.29103,0.37531 -0.26683,0.39276 -0.24189,0.40872 -0.21544,0.42312 -0.18859,0.43581 -0.16101,0.44682 -0.13266,0.456 -0.10356,0.46344 -0.0745,0.469 -0.0446,0.47278 -0.0138,0.47463 0.0151,0.47464 0.0446,0.47278 0.0745,0.469 0.10356,0.46344 0.13266,0.456 0.16101,0.44681 0.1886,0.43582 0.21543,0.42312 0.24189,0.40872 0.26684,0.39276 0.29102,0.37531 0.31408,0.35603 0.336,0.33562 0.35603,0.31408 0.37531,0.29102 0.39277,0.26684 0.40871,0.24188 0.42312,0.21544 0.43582,0.18859 0.44681,0.16101 0.456,0.13266 0.46345,0.10356 0.469,0.0745 0.47278,0.0446 0.47399,0.0149"
     id="path71"
     style="fill:none;stroke:#000000;stroke-width:3.92707" /><path
     d="m 616.16507,889.86976 0.47463,-0.0151 0.47279,-0.0446 0.469,-0.0744 0.46344,-0.10356 0.456,-0.13266 0.44682,-0.16101 0.43582,-0.1886 0.42311,-0.21543 0.40872,-0.24189 0.39277,-0.26683 0.37531,-0.29103 0.35603,-0.31407 0.336,-0.33563 0.31408,-0.35603 0.29102,-0.3753 0.26683,-0.39277 0.24189,-0.40872 0.21544,-0.42311 0.1886,-0.43582 0.161,-0.44681 0.13266,-0.456 0.10356,-0.46345 0.0745,-0.469 0.0446,-0.47278 0.0145,-0.47437 -0.0151,-0.47463 -0.0446,-0.47278 -0.0745,-0.469 -0.10356,-0.46344 -0.13266,-0.456 -0.16101,-0.44682 -0.1886,-0.43581 -0.21543,-0.42312 -0.24189,-0.40872 -0.26683,-0.39276 -0.29103,-0.37531 -0.31407,-0.35603 -0.336,-0.33562 -0.35604,-0.31408 -0.3753,-0.29102 -0.39277,-0.26684 -0.40872,-0.24188 -0.42312,-0.21544 -0.43581,-0.1886 -0.44682,-0.161 -0.456,-0.13266 -0.46345,-0.10356 -0.469,-0.0745 -0.47278,-0.0446 -0.47463,-0.0151 -0.47463,0.0151 -0.47278,0.0446 -0.46901,0.0745 -0.46344,0.10356 -0.456,0.13266 -0.44682,0.161 -0.43581,0.1886 -0.42312,0.21544 -0.40872,0.24188 -0.39277,0.26684 -0.3753,0.29102 -0.35604,0.31408 -0.336,0.33562 -0.31407,0.35603 -0.29103,0.37531 -0.26683,0.39276 -0.24189,0.40872 -0.21544,0.42312 -0.18859,0.43581 -0.16101,0.44682 -0.13266,0.456 -0.10356,0.46344 -0.0745,0.469 -0.0446,0.47278 -0.0138,0.47463 0.0151,0.47464 0.0446,0.47278 0.0744,0.469 0.10356,0.46344 0.13266,0.456 0.16101,0.44681 0.1886,0.43582 0.21543,0.42312 0.24189,0.40872 0.26684,0.39276 0.29102,0.37531 0.31408,0.35603 0.336,0.33562 0.35603,0.31408 0.37531,0.29102 0.39277,0.26684 0.40871,0.24188 0.42312,0.21544 0.43582,0.18859 0.44681,0.16101 0.456,0.13266 0.46345,0.10356 0.469,0.0745 0.47278,0.0446 0.47399,0.0149"
     id="path72"
     style="fill:none;stroke:#000000;stroke-width:3.92707" /></svg>
